%TF.GenerationSoftware,KiCad,Pcbnew,8.0.4*%
%TF.CreationDate,2024-08-27T17:04:33+01:00*%
%TF.ProjectId,Top Board,546f7020-426f-4617-9264-2e6b69636164,2*%
%TF.SameCoordinates,Original*%
%TF.FileFunction,Copper,L1,Top*%
%TF.FilePolarity,Positive*%
%FSLAX46Y46*%
G04 Gerber Fmt 4.6, Leading zero omitted, Abs format (unit mm)*
G04 Created by KiCad (PCBNEW 8.0.4) date 2024-08-27 17:04:33*
%MOMM*%
%LPD*%
G01*
G04 APERTURE LIST*
G04 APERTURE END LIST*
%TA.AperFunction,NonConductor*%
G36*
X82501330Y-40000029D02*
G01*
X82507638Y-40000166D01*
X82599672Y-40002171D01*
X82618496Y-40004025D01*
X82813458Y-40038403D01*
X82834335Y-40043997D01*
X83019090Y-40111241D01*
X83038675Y-40120374D01*
X83208944Y-40218679D01*
X83226647Y-40231074D01*
X83377261Y-40357454D01*
X83392545Y-40372738D01*
X83518925Y-40523352D01*
X83531322Y-40541058D01*
X83629624Y-40711322D01*
X83638759Y-40730912D01*
X83706002Y-40915664D01*
X83711596Y-40936541D01*
X83745973Y-41131498D01*
X83747828Y-41150329D01*
X83749971Y-41248667D01*
X83750000Y-41251369D01*
X83750000Y-43749980D01*
X83752378Y-43859159D01*
X83790287Y-44074144D01*
X83864949Y-44279276D01*
X83864953Y-44279286D01*
X83974103Y-44468338D01*
X83974105Y-44468341D01*
X84114427Y-44635572D01*
X84235301Y-44736996D01*
X84281660Y-44775896D01*
X84470718Y-44885049D01*
X84675858Y-44959713D01*
X84890841Y-44997621D01*
X84890847Y-44997622D01*
X85000000Y-45000000D01*
X89498630Y-45000000D01*
X89501330Y-45000029D01*
X89507638Y-45000166D01*
X89599672Y-45002171D01*
X89618496Y-45004025D01*
X89813458Y-45038403D01*
X89834335Y-45043997D01*
X90019090Y-45111241D01*
X90038675Y-45120374D01*
X90208944Y-45218679D01*
X90226644Y-45231072D01*
X90377261Y-45357454D01*
X90392545Y-45372738D01*
X90518925Y-45523352D01*
X90531322Y-45541058D01*
X90629624Y-45711322D01*
X90638759Y-45730912D01*
X90706002Y-45915664D01*
X90711596Y-45936541D01*
X90745973Y-46131498D01*
X90747828Y-46150329D01*
X90749971Y-46248667D01*
X90750000Y-46251369D01*
X90750000Y-51499980D01*
X90752378Y-51609159D01*
X90790287Y-51824144D01*
X90864949Y-52029276D01*
X90864953Y-52029286D01*
X90974103Y-52218338D01*
X90974105Y-52218341D01*
X91114427Y-52385572D01*
X91235301Y-52486996D01*
X91281660Y-52525896D01*
X91470718Y-52635049D01*
X91675858Y-52709713D01*
X91890841Y-52747621D01*
X91890847Y-52747622D01*
X92000000Y-52750000D01*
X117999981Y-52750000D01*
X118000000Y-52750000D01*
X118109153Y-52747622D01*
X118324142Y-52709713D01*
X118529282Y-52635049D01*
X118718340Y-52525896D01*
X118885572Y-52385572D01*
X119025896Y-52218340D01*
X119135049Y-52029282D01*
X119209713Y-51824142D01*
X119247622Y-51609153D01*
X119250000Y-51500000D01*
X119250000Y-46251369D01*
X119250029Y-46248669D01*
X119252171Y-46150331D01*
X119254025Y-46131504D01*
X119288403Y-45936538D01*
X119293997Y-45915664D01*
X119361243Y-45730904D01*
X119370371Y-45711329D01*
X119468682Y-45541049D01*
X119481067Y-45523360D01*
X119607460Y-45372731D01*
X119622731Y-45357460D01*
X119773360Y-45231067D01*
X119791049Y-45218682D01*
X119961329Y-45120371D01*
X119980904Y-45111243D01*
X120165666Y-45043996D01*
X120186538Y-45038403D01*
X120381504Y-45004025D01*
X120400326Y-45002171D01*
X120492698Y-45000159D01*
X120498670Y-45000029D01*
X120501370Y-45000000D01*
X124999981Y-45000000D01*
X125000000Y-45000000D01*
X125109153Y-44997622D01*
X125324142Y-44959713D01*
X125529282Y-44885049D01*
X125718340Y-44775896D01*
X125885572Y-44635572D01*
X126025896Y-44468340D01*
X126135049Y-44279282D01*
X126209713Y-44074142D01*
X126247622Y-43859153D01*
X126250000Y-43750000D01*
X126250000Y-43378711D01*
X129649500Y-43378711D01*
X129649500Y-43621288D01*
X129681161Y-43861785D01*
X129743947Y-44096104D01*
X129819820Y-44279276D01*
X129836776Y-44320212D01*
X129958064Y-44530289D01*
X129958066Y-44530292D01*
X129958067Y-44530293D01*
X130105733Y-44722736D01*
X130105739Y-44722743D01*
X130277256Y-44894260D01*
X130277262Y-44894265D01*
X130469711Y-45041936D01*
X130679788Y-45163224D01*
X130903900Y-45256054D01*
X131138211Y-45318838D01*
X131318586Y-45342584D01*
X131378711Y-45350500D01*
X131378712Y-45350500D01*
X131621289Y-45350500D01*
X131669388Y-45344167D01*
X131861789Y-45318838D01*
X132096100Y-45256054D01*
X132320212Y-45163224D01*
X132530289Y-45041936D01*
X132722738Y-44894265D01*
X132894265Y-44722738D01*
X133041936Y-44530289D01*
X133163224Y-44320212D01*
X133256054Y-44096100D01*
X133318838Y-43861789D01*
X133350500Y-43621288D01*
X133350500Y-43378712D01*
X133318838Y-43138211D01*
X133256054Y-42903900D01*
X133163224Y-42679788D01*
X133041936Y-42469711D01*
X132894265Y-42277262D01*
X132894260Y-42277256D01*
X132722743Y-42105739D01*
X132722736Y-42105733D01*
X132530293Y-41958067D01*
X132530292Y-41958066D01*
X132530289Y-41958064D01*
X132320212Y-41836776D01*
X132320205Y-41836773D01*
X132096104Y-41743947D01*
X131861785Y-41681161D01*
X131621289Y-41649500D01*
X131621288Y-41649500D01*
X131378712Y-41649500D01*
X131378711Y-41649500D01*
X131138214Y-41681161D01*
X130903895Y-41743947D01*
X130679794Y-41836773D01*
X130679785Y-41836777D01*
X130469706Y-41958067D01*
X130277263Y-42105733D01*
X130277256Y-42105739D01*
X130105739Y-42277256D01*
X130105733Y-42277263D01*
X129958067Y-42469706D01*
X129836777Y-42679785D01*
X129836773Y-42679794D01*
X129743947Y-42903895D01*
X129681161Y-43138214D01*
X129649500Y-43378711D01*
X126250000Y-43378711D01*
X126250000Y-41251369D01*
X126250029Y-41248669D01*
X126252171Y-41150331D01*
X126254025Y-41131504D01*
X126288403Y-40936538D01*
X126293997Y-40915664D01*
X126361243Y-40730904D01*
X126370371Y-40711329D01*
X126468682Y-40541049D01*
X126481067Y-40523360D01*
X126607460Y-40372731D01*
X126622731Y-40357460D01*
X126773360Y-40231067D01*
X126791049Y-40218682D01*
X126961329Y-40120371D01*
X126980904Y-40111243D01*
X127165666Y-40043996D01*
X127186538Y-40038403D01*
X127381504Y-40004025D01*
X127400326Y-40002171D01*
X127492698Y-40000159D01*
X127498670Y-40000029D01*
X127501370Y-40000000D01*
X131499219Y-40000000D01*
X131500840Y-40000010D01*
X131677619Y-40002323D01*
X131688938Y-40002990D01*
X132041445Y-40040040D01*
X132054252Y-40042070D01*
X132400130Y-40115588D01*
X132412665Y-40118947D01*
X132748965Y-40228218D01*
X132761082Y-40232869D01*
X133084131Y-40376698D01*
X133095679Y-40382583D01*
X133353888Y-40531660D01*
X133401918Y-40559390D01*
X133412800Y-40566457D01*
X133698877Y-40774304D01*
X133708957Y-40782466D01*
X133880074Y-40936541D01*
X133971742Y-41019079D01*
X133980920Y-41028257D01*
X134082296Y-41140847D01*
X134217530Y-41291039D01*
X134225698Y-41301126D01*
X134433540Y-41587196D01*
X134440609Y-41598081D01*
X134617412Y-41904312D01*
X134623305Y-41915877D01*
X134767130Y-42238917D01*
X134771781Y-42251034D01*
X134881052Y-42587334D01*
X134884411Y-42599871D01*
X134957928Y-42945741D01*
X134959959Y-42958560D01*
X134997008Y-43311051D01*
X134997676Y-43322391D01*
X134999989Y-43499159D01*
X135000000Y-43500781D01*
X135000000Y-96499218D01*
X134999989Y-96500840D01*
X134997676Y-96677608D01*
X134997008Y-96688948D01*
X134959959Y-97041439D01*
X134957928Y-97054258D01*
X134884411Y-97400128D01*
X134881052Y-97412665D01*
X134771781Y-97748965D01*
X134767130Y-97761082D01*
X134623305Y-98084122D01*
X134617412Y-98095687D01*
X134440609Y-98401918D01*
X134433540Y-98412803D01*
X134225698Y-98698873D01*
X134217530Y-98708960D01*
X133980920Y-98971742D01*
X133971742Y-98980920D01*
X133708960Y-99217530D01*
X133698873Y-99225698D01*
X133412803Y-99433540D01*
X133401918Y-99440609D01*
X133095687Y-99617412D01*
X133084122Y-99623305D01*
X132761082Y-99767130D01*
X132748965Y-99771781D01*
X132412665Y-99881052D01*
X132400128Y-99884411D01*
X132054258Y-99957928D01*
X132041439Y-99959959D01*
X131688948Y-99997008D01*
X131677608Y-99997676D01*
X131500841Y-99999989D01*
X131499219Y-100000000D01*
X78500781Y-100000000D01*
X78499159Y-99999989D01*
X78322391Y-99997676D01*
X78311051Y-99997008D01*
X77958560Y-99959959D01*
X77945741Y-99957928D01*
X77599871Y-99884411D01*
X77587334Y-99881052D01*
X77251034Y-99771781D01*
X77238917Y-99767130D01*
X76915877Y-99623305D01*
X76904312Y-99617412D01*
X76598081Y-99440609D01*
X76587196Y-99433540D01*
X76301126Y-99225698D01*
X76291039Y-99217530D01*
X76028257Y-98980920D01*
X76019079Y-98971742D01*
X75782469Y-98708960D01*
X75774301Y-98698873D01*
X75566459Y-98412803D01*
X75559390Y-98401918D01*
X75421581Y-98163226D01*
X75382583Y-98095679D01*
X75376698Y-98084131D01*
X75232869Y-97761082D01*
X75228218Y-97748965D01*
X75118947Y-97412665D01*
X75115588Y-97400128D01*
X75042071Y-97054258D01*
X75040040Y-97041439D01*
X75002990Y-96688938D01*
X75002323Y-96677619D01*
X75000011Y-96500840D01*
X75000000Y-96499218D01*
X75000000Y-96378711D01*
X76649500Y-96378711D01*
X76649500Y-96621288D01*
X76681161Y-96861785D01*
X76743947Y-97096104D01*
X76836773Y-97320205D01*
X76836776Y-97320212D01*
X76958064Y-97530289D01*
X76958066Y-97530292D01*
X76958067Y-97530293D01*
X77105733Y-97722736D01*
X77105739Y-97722743D01*
X77277256Y-97894260D01*
X77277262Y-97894265D01*
X77469711Y-98041936D01*
X77679788Y-98163224D01*
X77903900Y-98256054D01*
X78138211Y-98318838D01*
X78318586Y-98342584D01*
X78378711Y-98350500D01*
X78378712Y-98350500D01*
X78621289Y-98350500D01*
X78669388Y-98344167D01*
X78861789Y-98318838D01*
X79096100Y-98256054D01*
X79320212Y-98163224D01*
X79530289Y-98041936D01*
X79722738Y-97894265D01*
X79894265Y-97722738D01*
X80041936Y-97530289D01*
X80163224Y-97320212D01*
X80256054Y-97096100D01*
X80318838Y-96861789D01*
X80350500Y-96621288D01*
X80350500Y-96378712D01*
X80350500Y-96378711D01*
X129649500Y-96378711D01*
X129649500Y-96621288D01*
X129681161Y-96861785D01*
X129743947Y-97096104D01*
X129836773Y-97320205D01*
X129836776Y-97320212D01*
X129958064Y-97530289D01*
X129958066Y-97530292D01*
X129958067Y-97530293D01*
X130105733Y-97722736D01*
X130105739Y-97722743D01*
X130277256Y-97894260D01*
X130277262Y-97894265D01*
X130469711Y-98041936D01*
X130679788Y-98163224D01*
X130903900Y-98256054D01*
X131138211Y-98318838D01*
X131318586Y-98342584D01*
X131378711Y-98350500D01*
X131378712Y-98350500D01*
X131621289Y-98350500D01*
X131669388Y-98344167D01*
X131861789Y-98318838D01*
X132096100Y-98256054D01*
X132320212Y-98163224D01*
X132530289Y-98041936D01*
X132722738Y-97894265D01*
X132894265Y-97722738D01*
X133041936Y-97530289D01*
X133163224Y-97320212D01*
X133256054Y-97096100D01*
X133318838Y-96861789D01*
X133350500Y-96621288D01*
X133350500Y-96378712D01*
X133318838Y-96138211D01*
X133256054Y-95903900D01*
X133163224Y-95679788D01*
X133041936Y-95469711D01*
X132894265Y-95277262D01*
X132894260Y-95277256D01*
X132722743Y-95105739D01*
X132722736Y-95105733D01*
X132530293Y-94958067D01*
X132530292Y-94958066D01*
X132530289Y-94958064D01*
X132320212Y-94836776D01*
X132320205Y-94836773D01*
X132096104Y-94743947D01*
X131861785Y-94681161D01*
X131621289Y-94649500D01*
X131621288Y-94649500D01*
X131378712Y-94649500D01*
X131378711Y-94649500D01*
X131138214Y-94681161D01*
X130903895Y-94743947D01*
X130679794Y-94836773D01*
X130679785Y-94836777D01*
X130469706Y-94958067D01*
X130277263Y-95105733D01*
X130277256Y-95105739D01*
X130105739Y-95277256D01*
X130105733Y-95277263D01*
X129958067Y-95469706D01*
X129836777Y-95679785D01*
X129836773Y-95679794D01*
X129743947Y-95903895D01*
X129681161Y-96138214D01*
X129649500Y-96378711D01*
X80350500Y-96378711D01*
X80318838Y-96138211D01*
X80256054Y-95903900D01*
X80163224Y-95679788D01*
X80041936Y-95469711D01*
X79894265Y-95277262D01*
X79894260Y-95277256D01*
X79722743Y-95105739D01*
X79722736Y-95105733D01*
X79530293Y-94958067D01*
X79530292Y-94958066D01*
X79530289Y-94958064D01*
X79320212Y-94836776D01*
X79320205Y-94836773D01*
X79096104Y-94743947D01*
X78861785Y-94681161D01*
X78621289Y-94649500D01*
X78621288Y-94649500D01*
X78378712Y-94649500D01*
X78378711Y-94649500D01*
X78138214Y-94681161D01*
X77903895Y-94743947D01*
X77679794Y-94836773D01*
X77679785Y-94836777D01*
X77469706Y-94958067D01*
X77277263Y-95105733D01*
X77277256Y-95105739D01*
X77105739Y-95277256D01*
X77105733Y-95277263D01*
X76958067Y-95469706D01*
X76836777Y-95679785D01*
X76836773Y-95679794D01*
X76743947Y-95903895D01*
X76681161Y-96138214D01*
X76649500Y-96378711D01*
X75000000Y-96378711D01*
X75000000Y-90500000D01*
X122500000Y-90500000D01*
X129500000Y-90500000D01*
X129500000Y-87500000D01*
X122500000Y-87500000D01*
X122500000Y-90500000D01*
X75000000Y-90500000D01*
X75000000Y-84000000D01*
X122500000Y-84000000D01*
X129500000Y-84000000D01*
X129500000Y-81000000D01*
X122500000Y-81000000D01*
X122500000Y-84000000D01*
X75000000Y-84000000D01*
X75000000Y-77500000D01*
X122500000Y-77500000D01*
X129500000Y-77500000D01*
X129500000Y-74500000D01*
X122500000Y-74500000D01*
X122500000Y-77500000D01*
X75000000Y-77500000D01*
X75000000Y-71000000D01*
X122500000Y-71000000D01*
X129500000Y-71000000D01*
X129500000Y-68000000D01*
X122500000Y-68000000D01*
X122500000Y-71000000D01*
X75000000Y-71000000D01*
X75000000Y-64500000D01*
X122500000Y-64500000D01*
X129500000Y-64500000D01*
X129500000Y-61500000D01*
X122500000Y-61500000D01*
X122500000Y-64500000D01*
X75000000Y-64500000D01*
X75000000Y-58000000D01*
X122500000Y-58000000D01*
X129500000Y-58000000D01*
X129500000Y-55000000D01*
X122500000Y-55000000D01*
X122500000Y-58000000D01*
X75000000Y-58000000D01*
X75000000Y-43500781D01*
X75000011Y-43499159D01*
X75001586Y-43378711D01*
X76649500Y-43378711D01*
X76649500Y-43621288D01*
X76681161Y-43861785D01*
X76743947Y-44096104D01*
X76819820Y-44279276D01*
X76836776Y-44320212D01*
X76958064Y-44530289D01*
X76958066Y-44530292D01*
X76958067Y-44530293D01*
X77105733Y-44722736D01*
X77105739Y-44722743D01*
X77277256Y-44894260D01*
X77277262Y-44894265D01*
X77469711Y-45041936D01*
X77679788Y-45163224D01*
X77903900Y-45256054D01*
X78138211Y-45318838D01*
X78318586Y-45342584D01*
X78378711Y-45350500D01*
X78378712Y-45350500D01*
X78621289Y-45350500D01*
X78669388Y-45344167D01*
X78861789Y-45318838D01*
X79096100Y-45256054D01*
X79320212Y-45163224D01*
X79530289Y-45041936D01*
X79722738Y-44894265D01*
X79894265Y-44722738D01*
X80041936Y-44530289D01*
X80163224Y-44320212D01*
X80256054Y-44096100D01*
X80318838Y-43861789D01*
X80350500Y-43621288D01*
X80350500Y-43378712D01*
X80318838Y-43138211D01*
X80256054Y-42903900D01*
X80163224Y-42679788D01*
X80041936Y-42469711D01*
X79894265Y-42277262D01*
X79894260Y-42277256D01*
X79722743Y-42105739D01*
X79722736Y-42105733D01*
X79530293Y-41958067D01*
X79530292Y-41958066D01*
X79530289Y-41958064D01*
X79320212Y-41836776D01*
X79320205Y-41836773D01*
X79096104Y-41743947D01*
X78861785Y-41681161D01*
X78621289Y-41649500D01*
X78621288Y-41649500D01*
X78378712Y-41649500D01*
X78378711Y-41649500D01*
X78138214Y-41681161D01*
X77903895Y-41743947D01*
X77679794Y-41836773D01*
X77679785Y-41836777D01*
X77469706Y-41958067D01*
X77277263Y-42105733D01*
X77277256Y-42105739D01*
X77105739Y-42277256D01*
X77105733Y-42277263D01*
X76958067Y-42469706D01*
X76836777Y-42679785D01*
X76836773Y-42679794D01*
X76743947Y-42903895D01*
X76681161Y-43138214D01*
X76649500Y-43378711D01*
X75001586Y-43378711D01*
X75002323Y-43322379D01*
X75002990Y-43311062D01*
X75040041Y-42958551D01*
X75042071Y-42945741D01*
X75115588Y-42599871D01*
X75118947Y-42587334D01*
X75228218Y-42251034D01*
X75232869Y-42238917D01*
X75376702Y-41915860D01*
X75382579Y-41904327D01*
X75559397Y-41598069D01*
X75566451Y-41587207D01*
X75774311Y-41301112D01*
X75782458Y-41291051D01*
X76019088Y-41028247D01*
X76028247Y-41019088D01*
X76291051Y-40782458D01*
X76301112Y-40774311D01*
X76587207Y-40566451D01*
X76598069Y-40559397D01*
X76904327Y-40382579D01*
X76915860Y-40376702D01*
X77238923Y-40232866D01*
X77251028Y-40228220D01*
X77587340Y-40118945D01*
X77599864Y-40115589D01*
X77945750Y-40042069D01*
X77958551Y-40040041D01*
X78311062Y-40002990D01*
X78322379Y-40002323D01*
X78499159Y-40000010D01*
X78500781Y-40000000D01*
X82498630Y-40000000D01*
X82501330Y-40000029D01*
G37*
%TD.AperFunction*%
M02*
