<?xml version="1.0" encoding="UTF-8" standalone="no"?>
<!-- Created with Inkscape (http://www.inkscape.org/) -->

<svg
   width="26.129541mm"
   height="31.401072mm"
   viewBox="0 0 26.129541 31.401072"
   version="1.1"
   id="svg1"
   sodipodi:docname="Label 1.svg"
   inkscape:version="1.3.2 (091e20e, 2023-11-25, custom)"
   xml:space="preserve"
   xmlns:inkscape="http://www.inkscape.org/namespaces/inkscape"
   xmlns:sodipodi="http://sodipodi.sourceforge.net/DTD/sodipodi-0.dtd"
   xmlns="http://www.w3.org/2000/svg"
   xmlns:svg="http://www.w3.org/2000/svg"><sodipodi:namedview
     id="namedview1"
     pagecolor="#ffffff"
     bordercolor="#000000"
     borderopacity="0.25"
     inkscape:showpageshadow="2"
     inkscape:pageopacity="0.0"
     inkscape:pagecheckerboard="0"
     inkscape:deskcolor="#d1d1d1"
     inkscape:document-units="mm"
     showgrid="true"
     inkscape:zoom="9.0356898"
     inkscape:cx="494.53889"
     inkscape:cy="771.27482"
     inkscape:window-width="3840"
     inkscape:window-height="2050"
     inkscape:window-x="-12"
     inkscape:window-y="-12"
     inkscape:window-maximized="1"
     inkscape:current-layer="layer1"><inkscape:grid
       id="grid1"
       units="mm"
       originx="-168.1537"
       originy="-206.59741"
       spacingx="0.5"
       spacingy="0.5"
       empcolor="#0099e5"
       empopacity="0.30196078"
       color="#0099e5"
       opacity="0.14901961"
       empspacing="5"
       dotted="false"
       gridanglex="30"
       gridanglez="30"
       visible="true" /></sodipodi:namedview><defs
     id="defs1" /><g
     inkscape:label="Layer 1"
     inkscape:groupmode="layer"
     id="layer1"
     transform="translate(-168.15371,-206.59741)"><g
       id="g93-1-5"
       transform="matrix(0.49952116,0,0,0.49920258,162.76365,135.76036)"
       style="stroke-width:2.00256"
       inkscape:export-filename="label-s2.svg"
       inkscape:export-xdpi="96"
       inkscape:export-ydpi="96"><g
         id="g8-0-2"
         transform="translate(1.5000016,1.4999919)"><path
           style="color:#000000;fill:#000000;-inkscape-stroke:none"
           d="m 32.900391,144.40039 v 3.69922 h 6.699218 v -3.69922 z m 0.199218,0.19922 h 6.300782 v 3.30078 h -6.300782 z"
           id="rect7-01-59-91-3" /><path
           d="m 36.448956,146.25285 q 0.267168,0.0568 0.399804,0.1819 0.183796,0.17432 0.183796,0.42633 0,0.19138 -0.121267,0.3676 -0.121268,0.17432 -0.333486,0.25579 -0.210323,0.0796 -0.644233,0.0796 h -1.212675 v -0.0701 h 0.09663 q 0.161058,0 0.231166,-0.10232 0.04358,-0.0663 0.04358,-0.28233 v -1.65985 q 0,-0.23874 -0.05495,-0.30127 -0.0739,-0.0834 -0.219797,-0.0834 h -0.09663 v -0.0701 h 1.110355 q 0.310748,0 0.498334,0.0455 0.28422,0.0682 0.43391,0.24253 0.14969,0.17243 0.14969,0.39791 0,0.19327 -0.117478,0.34675 -0.117478,0.15158 -0.34675,0.22548 z m -0.992877,-0.10232 q 0.07011,0.0133 0.159163,0.0208 0.09095,0.006 0.198955,0.006 0.276641,0 0.414962,-0.0587 0.140216,-0.0606 0.214113,-0.1838 0.0739,-0.12316 0.0739,-0.26906 0,-0.22548 -0.183796,-0.38464 -0.183796,-0.15917 -0.536229,-0.15917 -0.189481,0 -0.341065,0.0417 z m 0,1.22784 q 0.219797,0.0512 0.43391,0.0512 0.34296,0 0.522966,-0.15348 0.180007,-0.15538 0.180007,-0.38275 0,-0.14969 -0.08148,-0.28801 -0.08148,-0.13833 -0.265273,-0.21791 -0.183796,-0.0796 -0.454753,-0.0796 -0.117478,0 -0.200849,0.004 -0.08337,0.004 -0.134531,0.0133 z m 2.088074,-1.33584 -0.102319,-0.56086 q -0.04358,-0.23306 -0.04358,-0.31454 0,-0.12127 0.04926,-0.17622 0.04926,-0.055 0.134532,-0.055 0.08527,0 0.140215,0.0568 0.05684,0.055 0.05684,0.1459 0,0.0701 -0.04926,0.34485 l -0.102319,0.55897 z"
           id="text13-0-7-5-9"
           style="-inkscape-font-specification:'Times New Roman';stroke-width:0.200256"
           aria-label="B'" /></g><g
         id="g5-5-8"
         transform="translate(-2.7456945,-2.2479139)"><g
           id="g13-3-2"><path
             style="color:#000000;fill:#000000;-inkscape-stroke:none"
             d="m 30.246094,154.44531 c -1.27146,0 -2.304686,1.03239 -2.304688,2.30274 2e-6,1.27034 1.033228,2.30273 2.304688,2.30273 1.27146,0 2.304685,-1.03239 2.304687,-2.30273 -2e-6,-1.27035 -1.033227,-2.30274 -2.304687,-2.30274 z m 0,0.20117 c 1.163342,0 2.103513,0.93955 2.103515,2.10157 -2e-6,1.16201 -0.940173,2.10156 -2.103515,2.10156 -1.163343,0 -2.105467,-0.93955 -2.105469,-2.10156 2e-6,-1.16202 0.942126,-2.10157 2.105469,-2.10157 z"
             id="path7-9-0-6-08-9" /><path
             d="m 31.284996,155.4045 0.05874,0.8735 h -0.05874 q -0.117478,-0.39222 -0.33538,-0.56465 -0.217903,-0.17243 -0.522967,-0.17243 -0.255798,0 -0.462332,0.13075 -0.206534,0.12884 -0.325906,0.41306 -0.117478,0.28422 -0.117478,0.70677 0,0.34864 0.111793,0.60444 0.111794,0.2558 0.335381,0.39222 0.225482,0.13643 0.513492,0.13643 0.250114,0 0.441489,-0.10611 0.191376,-0.108 0.420647,-0.42633 l 0.05874,0.0379 q -0.19327,0.34296 -0.450964,0.50213 -0.257693,0.15916 -0.612022,0.15916 -0.638549,0 -0.989088,-0.4737 -0.261483,-0.35243 -0.261483,-0.82992 0,-0.38465 0.172428,-0.70677 0.172427,-0.32211 0.473701,-0.49833 0.303169,-0.17811 0.661287,-0.17811 0.278536,0 0.549493,0.13642 0.07958,0.0417 0.113688,0.0417 0.05116,0 0.08906,-0.036 0.04927,-0.0512 0.07011,-0.14211 z"
             id="text14-0-4-7-84-4"
             style="-inkscape-font-specification:'Times New Roman';stroke-width:0.200256"
             aria-label="C" /></g></g><g
         id="g4-6-1"
         transform="translate(-3.7548096,-1.238789)"><path
           style="color:#000000;fill:#000000;-inkscape-stroke:none"
           d="m 35.253906,149.42773 c -1.266876,0 -2.294921,1.03561 -2.294922,2.31055 -5e-6,1.27494 1.028042,2.3125 2.294922,2.3125 1.266881,0 2.29688,-1.03756 2.296875,-2.3125 0,-1.27494 -1.029998,-2.31055 -2.296875,-2.31055 z m 0,0.19922 c 1.15786,0 2.095703,0.94384 2.095703,2.11133 5e-6,1.1675 -0.937839,2.11133 -2.095703,2.11133 -1.157863,0 -2.093754,-0.94383 -2.09375,-2.11133 10e-7,-1.16749 0.93589,-2.11133 2.09375,-2.11133 z"
           id="path7-3-9-06-6" /><path
           d="m 33.960659,153.02347 v -0.0701 h 0.09663 q 0.162953,0 0.231166,-0.10421 0.04169,-0.0625 0.04169,-0.28044 v -1.65984 q 0,-0.24064 -0.05306,-0.30128 -0.0739,-0.0834 -0.219797,-0.0834 h -0.09663 v -0.0701 h 1.045932 q 0.57602,0 0.8754,0.13074 0.301274,0.13075 0.483175,0.43581 0.183796,0.30506 0.183796,0.70487 0,0.53623 -0.325907,0.89624 -0.365697,0.4017 -1.114145,0.4017 z m 0.733289,-0.18569 q 0.24064,0.053 0.403593,0.053 0.439595,0 0.7295,-0.30885 0.289905,-0.30885 0.289905,-0.83751 0,-0.53244 -0.289905,-0.83939 -0.289905,-0.30696 -0.744658,-0.30696 -0.170532,0 -0.388435,0.055 z"
           id="text15-4-1-4-8-1"
           style="-inkscape-font-specification:'Times New Roman';stroke-width:0.200256"
           aria-label="D" /></g><g
         id="g6-6-4"
         transform="translate(-3.7548096,-3.2570235)"><path
           style="color:#000000;fill:#000000;-inkscape-stroke:none"
           d="m 35.253906,159.46484 c -1.266427,0 -2.294922,1.02766 -2.294922,2.29297 0,1.26531 1.028495,2.29297 2.294922,2.29297 1.266428,0 2.296876,-1.02766 2.296875,-2.29297 10e-7,-1.26531 -1.030447,-2.29297 -2.296875,-2.29297 z m 0,0.19922 c 1.158311,0 2.095704,0.93678 2.095703,2.09375 10e-7,1.15698 -0.937392,2.0918 -2.095703,2.0918 -1.15831,0 -2.09375,-0.93482 -2.09375,-2.0918 0,-1.15697 0.93544,-2.09375 2.09375,-2.09375 z"
           id="path7-9-55-7-1-1-2" /><path
           d="m 35.635665,162.11086 h -0.994772 l -0.174322,0.40549 q -0.06442,0.14969 -0.06442,0.22358 0,0.0587 0.05495,0.10422 0.05684,0.0436 0.242535,0.0568 v 0.0701 H 33.89055 v -0.0701 q 0.161059,-0.0284 0.208429,-0.0739 0.09663,-0.0909 0.214113,-0.36948 l 0.903821,-2.1146 h 0.06632 l 0.894347,2.13734 q 0.108004,0.25769 0.195165,0.33538 0.08906,0.0758 0.246325,0.0853 v 0.0701 h -1.013721 v -0.0701 q 0.15348,-0.008 0.206534,-0.0512 0.05495,-0.0436 0.05495,-0.10611 0,-0.0834 -0.07579,-0.26337 z m -0.05305,-0.14022 -0.435805,-1.03835 -0.447174,1.03835 z"
           id="text17-2-2-5-8-5"
           style="-inkscape-font-specification:'Times New Roman';stroke-width:0.200256"
           aria-label="A" /></g><g
         id="g3-5-2"
         transform="translate(-4.7593719,-2.2433515)"><path
           style="color:#000000;fill:#000000;-inkscape-stroke:none"
           d="m 40.259766,154.4375 c -1.264358,0 -2.291017,1.03422 -2.291016,2.30664 -10e-7,1.27242 1.026658,2.30664 2.291016,2.30664 1.264357,0 2.291016,-1.03422 2.291015,-2.30664 10e-7,-1.27242 -1.026658,-2.30664 -2.291015,-2.30664 z m 0,0.19922 c 1.15534,0 2.089844,0.94244 2.089843,2.10742 10e-7,1.16498 -0.934503,2.10547 -2.089843,2.10547 -1.155341,0 -2.091798,-0.94049 -2.091797,-2.10547 -10e-7,-1.16498 0.936456,-2.10742 2.091797,-2.10742 z"
           id="path7-9-5-4-1-98-1" /><path
           d="m 40.831605,156.71683 q 0.267167,0.0568 0.399804,0.1819 0.183796,0.17432 0.183796,0.42633 0,0.19137 -0.121268,0.36759 -0.121267,0.17432 -0.333485,0.2558 -0.210324,0.0796 -0.644234,0.0796 h -1.212675 v -0.0701 h 0.09663 q 0.161059,0 0.231166,-0.10232 0.04358,-0.0663 0.04358,-0.28232 v -1.65985 q 0,-0.23875 -0.05495,-0.30128 -0.0739,-0.0834 -0.219797,-0.0834 h -0.09663 v -0.0701 h 1.110356 q 0.310748,0 0.498333,0.0455 0.284221,0.0682 0.43391,0.24254 0.14969,0.17242 0.14969,0.3979 0,0.19327 -0.117478,0.34675 -0.117478,0.15159 -0.346749,0.22549 z m -0.992878,-0.10232 q 0.07011,0.0133 0.159164,0.0208 0.09095,0.006 0.198954,0.006 0.276642,0 0.414963,-0.0587 0.140215,-0.0606 0.214113,-0.18379 0.0739,-0.12316 0.0739,-0.26906 0,-0.22549 -0.183796,-0.38465 -0.183796,-0.15916 -0.53623,-0.15916 -0.18948,0 -0.341065,0.0417 z m 0,1.22783 q 0.219798,0.0512 0.433911,0.0512 0.342959,0 0.522966,-0.15348 0.180006,-0.15537 0.180006,-0.38275 0,-0.14969 -0.08148,-0.28801 -0.08148,-0.13832 -0.265272,-0.2179 -0.183796,-0.0796 -0.454753,-0.0796 -0.117478,0 -0.20085,0.004 -0.08337,0.004 -0.134531,0.0133 z"
           id="text18-1-5-8-4-6"
           style="-inkscape-font-specification:'Times New Roman';stroke-width:0.200256"
           aria-label="B" /></g><path
         d="m 15.888623,144.01556 v 0.61237 q 0,0.19844 0.04341,0.2465 0.05891,0.0682 0.178284,0.0682 h 0.08062 V 145 h -0.90072 v -0.0574 h 0.07906 q 0.133325,0 0.190686,-0.0868 0.03101,-0.0481 0.03101,-0.22789 v -1.35806 q 0,-0.19843 -0.04186,-0.24649 -0.06046,-0.0682 -0.179834,-0.0682 h -0.07906 v -0.0574 h 0.770496 q 0.282153,0 0.444934,0.0589 0.16278,0.0574 0.274402,0.19534 0.111621,0.13798 0.111621,0.32711 0,0.25735 -0.170533,0.41858 -0.168982,0.16123 -0.47904,0.16123 -0.07596,0 -0.164331,-0.0108 -0.08837,-0.0109 -0.189136,-0.0326 z m 0,-0.0884 q 0.08217,0.0155 0.145728,0.0232 0.06356,0.008 0.10852,0.008 0.161231,0 0.277503,-0.12402 0.117822,-0.12557 0.117822,-0.32401 0,-0.13643 -0.05581,-0.2527 -0.05581,-0.11782 -0.15813,-0.17518 -0.102319,-0.0589 -0.232544,-0.0589 -0.07906,0 -0.203088,0.0294 z m 2.018482,0.86816 q -0.218592,0.16898 -0.274402,0.19534 -0.08372,0.0388 -0.178284,0.0388 -0.147278,0 -0.243396,-0.10077 -0.09457,-0.10077 -0.09457,-0.2651 0,-0.10387 0.04651,-0.17984 0.06356,-0.10542 0.220142,-0.19844 0.158129,-0.093 0.523999,-0.22634 v -0.0558 q 0,-0.21239 -0.06821,-0.29145 -0.06666,-0.0791 -0.195337,-0.0791 -0.09767,0 -0.15503,0.0527 -0.05891,0.0527 -0.05891,0.12092 l 0.0031,0.0899 q 0,0.0713 -0.03721,0.11007 -0.03566,0.0388 -0.09457,0.0388 -0.05736,0 -0.09457,-0.0403 -0.03566,-0.0403 -0.03566,-0.11007 0,-0.13332 0.136426,-0.24495 0.136426,-0.11162 0.382923,-0.11162 0.189135,0 0.310058,0.0636 0.09147,0.048 0.134876,0.15037 0.02791,0.0667 0.02791,0.27286 v 0.48214 q 0,0.20309 0.0078,0.24959 0.0078,0.045 0.02481,0.0605 0.0186,0.0155 0.04186,0.0155 0.02481,0 0.04341,-0.0109 0.03256,-0.0202 0.125574,-0.11318 v 0.0868 q -0.173633,0.23255 -0.331763,0.23255 -0.07596,0 -0.120923,-0.0527 -0.04496,-0.0527 -0.04651,-0.17984 z m 0,-0.10077 v -0.54105 q -0.234095,0.093 -0.302308,0.13177 -0.122473,0.0682 -0.175183,0.14263 -0.05271,0.0744 -0.05271,0.16278 0,0.11162 0.06666,0.18604 0.06666,0.0729 0.153479,0.0729 0.117822,0 0.310059,-0.15503 z m 1.607653,0.14573 q -0.103869,0.10852 -0.203088,0.15658 -0.09922,0.0465 -0.21394,0.0465 -0.232544,0 -0.406177,-0.19379 -0.173633,-0.19534 -0.173633,-0.50074 0,-0.30541 0.192236,-0.55811 0.192237,-0.25425 0.494544,-0.25425 0.187585,0 0.310058,0.11938 v -0.262 q 0,-0.2434 -0.0124,-0.29921 -0.01085,-0.0558 -0.03566,-0.076 -0.0248,-0.0202 -0.06201,-0.0202 -0.04031,0 -0.106971,0.0248 l -0.02015,-0.0543 0.42323,-0.17364 h 0.06976 v 1.64176 q 0,0.2496 0.01085,0.30541 0.0124,0.0543 0.03721,0.076 0.02636,0.0217 0.06046,0.0217 0.04186,0 0.111621,-0.0264 l 0.01705,0.0543 -0.421679,0.17518 h -0.07131 z m 0,-0.10852 v -0.73174 q -0.0093,-0.10542 -0.05581,-0.19224 -0.04651,-0.0868 -0.124024,-0.13022 -0.07596,-0.045 -0.148828,-0.045 -0.136426,0 -0.243396,0.12247 -0.141076,0.16124 -0.141076,0.47129 0,0.31316 0.136425,0.48059 0.136426,0.16589 0.303858,0.16589 0.141076,0 0.272851,-0.14108 z"
         id="text21-6-6-2"
         style="-inkscape-font-specification:'Times New Roman';stroke-width:0.200256"
         aria-label="Pad" /><g
         id="g7-7-1"
         transform="translate(1.5000008,1.999996)"><path
           d="m 34.614788,143.06406 v -0.0701 h 0.09664 q 0.162953,0 0.231166,-0.10422 0.04169,-0.0625 0.04169,-0.28043 v -1.65985 q 0,-0.24064 -0.05305,-0.30127 -0.0739,-0.0834 -0.219797,-0.0834 h -0.09664 v -0.0701 h 1.045932 q 0.57602,0 0.8754,0.13074 0.301274,0.13074 0.483175,0.43581 0.183796,0.30506 0.183796,0.70487 0,0.53622 -0.325907,0.89624 -0.365697,0.4017 -1.114145,0.4017 z m 0.733289,-0.18569 q 0.24064,0.0531 0.403593,0.0531 0.439595,0 0.7295,-0.30885 0.289905,-0.30886 0.289905,-0.83751 0,-0.53244 -0.289905,-0.8394 -0.289905,-0.30695 -0.744658,-0.30695 -0.170532,0 -0.388435,0.0549 z m 2.302188,-1.33584 -0.10232,-0.56086 q -0.04358,-0.23306 -0.04358,-0.31454 0,-0.12127 0.04926,-0.17622 0.04926,-0.055 0.134531,-0.055 0.08527,0 0.140215,0.0568 0.05685,0.055 0.05685,0.1459 0,0.0701 -0.04926,0.34485 l -0.10232,0.55897 z"
           id="text12-7-8-1-7"
           style="-inkscape-font-specification:'Times New Roman';stroke-width:0.200256"
           aria-label="D'" /><path
           style="color:#000000;fill:#000000;-inkscape-stroke:none"
           d="m 32.900391,139.90039 v 3.69922 h 6.699218 v -3.69922 z m 0.199218,0.19922 h 6.300782 v 3.30078 h -6.300782 z"
           id="rect7-01-59-5-8-9" /></g><g
         id="g9-2-8"
         transform="translate(-1.4999995,1.499996)"><path
           d="m 27.45487,140.90659 0.05874,0.8735 h -0.05874 q -0.117478,-0.39222 -0.33538,-0.56465 -0.217903,-0.17242 -0.522966,-0.17242 -0.255799,0 -0.462333,0.13074 -0.206533,0.12884 -0.325906,0.41306 -0.117478,0.28422 -0.117478,0.70677 0,0.34864 0.111794,0.60444 0.111793,0.2558 0.33538,0.39222 0.225482,0.13643 0.513492,0.13643 0.250114,0 0.441489,-0.10611 0.191376,-0.108 0.420647,-0.42633 l 0.05874,0.0379 q -0.19327,0.34295 -0.450963,0.50212 -0.257694,0.15916 -0.612022,0.15916 -0.63855,0 -0.989088,-0.4737 -0.261483,-0.35243 -0.261483,-0.82992 0,-0.38465 0.172427,-0.70677 0.172427,-0.32211 0.473701,-0.49833 0.303169,-0.17811 0.661287,-0.17811 0.278536,0 0.549493,0.13643 0.07958,0.0417 0.113688,0.0417 0.05116,0 0.08906,-0.036 0.04927,-0.0512 0.07011,-0.14211 z m 0.551388,1.10657 -0.102319,-0.56087 q -0.04358,-0.23306 -0.04358,-0.31453 0,-0.12127 0.04926,-0.17622 0.04927,-0.055 0.134531,-0.055 0.08527,0 0.140216,0.0568 0.05684,0.055 0.05684,0.1459 0,0.0701 -0.04926,0.34486 l -0.102319,0.55897 z"
           id="text11-5-7-2-5-3"
           style="-inkscape-font-specification:'Times New Roman';stroke-width:0.200256"
           aria-label="C'" /><path
           style="color:#000000;fill:#000000;-inkscape-stroke:none"
           d="m 23.400391,140.40039 v 3.69922 h 6.699218 v -3.69922 z m 0.199218,0.19922 h 6.300782 v 3.30078 h -6.300782 z"
           id="rect7-01-59-8-6-1" /></g><g
         id="g10-6-8"
         transform="translate(-1.4999995,1.499996)"><path
           d="m 26.841901,146.70382 h -0.994772 l -0.174322,0.40548 q -0.06442,0.14969 -0.06442,0.22359 0,0.0587 0.05495,0.10421 0.05684,0.0436 0.242535,0.0569 v 0.0701 H 25.09679 v -0.0701 q 0.161058,-0.0284 0.208429,-0.0739 0.09663,-0.0909 0.214113,-0.36949 l 0.903821,-2.1146 h 0.06632 l 0.894348,2.13734 q 0.108004,0.2577 0.195165,0.33538 0.08906,0.0758 0.246325,0.0853 v 0.0701 H 26.81159 v -0.0701 q 0.153479,-0.008 0.206534,-0.0512 0.05495,-0.0436 0.05495,-0.10611 0,-0.0834 -0.07579,-0.26338 z m -0.05305,-0.14022 -0.435805,-1.03835 -0.447174,1.03835 z m 1.379417,-0.52107 -0.102319,-0.56086 q -0.04358,-0.23306 -0.04358,-0.31454 0,-0.12127 0.04927,-0.17622 0.04926,-0.055 0.134532,-0.055 0.08527,0 0.140215,0.0568 0.05684,0.055 0.05684,0.1459 0,0.0701 -0.04927,0.34485 l -0.102319,0.55897 z"
           id="text11-9-8-0-2"
           style="-inkscape-font-specification:'Times New Roman';stroke-width:0.200256"
           aria-label="A'" /><path
           style="color:#000000;fill:#000000;-inkscape-stroke:none"
           d="m 23.400391,144.40039 v 3.69922 h 6.699218 v -3.69922 z m 0.199218,0.19922 h 6.300782 v 3.30078 h -6.300782 z"
           id="rect7-01-59-7-8-8" /></g><g
         id="g5-6-4-3"
         transform="translate(18.254306,-4.7479139)"><path
           style="color:#000000;fill:#000000;-inkscape-stroke:none"
           d="m 30.246094,154.44531 c -1.27146,0 -2.304686,1.03239 -2.304688,2.30274 2e-6,1.27034 1.033228,2.30273 2.304688,2.30273 1.27146,0 2.304685,-1.03239 2.304687,-2.30273 -2e-6,-1.27035 -1.033227,-2.30274 -2.304687,-2.30274 z m 0,0.20117 c 1.163342,0 2.103513,0.93955 2.103515,2.10157 -2e-6,1.16201 -0.940173,2.10156 -2.103515,2.10156 -1.163343,0 -2.105467,-0.93955 -2.105469,-2.10156 2e-6,-1.16202 0.942126,-2.10157 2.105469,-2.10157 z"
           id="path7-9-0-6-4-33-8" /><path
           d="m 31.284996,155.4045 0.05874,0.8735 h -0.05874 q -0.117478,-0.39222 -0.33538,-0.56465 -0.217903,-0.17243 -0.522967,-0.17243 -0.255798,0 -0.462332,0.13075 -0.206534,0.12884 -0.325906,0.41306 -0.117478,0.28422 -0.117478,0.70677 0,0.34864 0.111793,0.60444 0.111794,0.2558 0.335381,0.39222 0.225482,0.13643 0.513492,0.13643 0.250114,0 0.441489,-0.10611 0.191376,-0.108 0.420647,-0.42633 l 0.05874,0.0379 q -0.19327,0.34296 -0.450964,0.50213 -0.257693,0.15916 -0.612022,0.15916 -0.638549,0 -0.989088,-0.4737 -0.261483,-0.35243 -0.261483,-0.82992 0,-0.38465 0.172428,-0.70677 0.172427,-0.32211 0.473701,-0.49833 0.303169,-0.17811 0.661287,-0.17811 0.278536,0 0.549493,0.13642 0.07958,0.0417 0.113688,0.0417 0.05116,0 0.08906,-0.036 0.04927,-0.0512 0.07011,-0.14211 z"
           id="text14-0-4-7-9-97-6"
           style="-inkscape-font-specification:'Times New Roman';stroke-width:0.200256"
           aria-label="C" /></g><g
         id="g4-9-7-1"
         transform="translate(18.745191,-1.2387891)"><path
           style="color:#000000;fill:#000000;-inkscape-stroke:none"
           d="m 35.253906,149.42773 c -1.266876,0 -2.294921,1.03561 -2.294922,2.31055 -5e-6,1.27494 1.028042,2.3125 2.294922,2.3125 1.266881,0 2.29688,-1.03756 2.296875,-2.3125 0,-1.27494 -1.029998,-2.31055 -2.296875,-2.31055 z m 0,0.19922 c 1.15786,0 2.095703,0.94384 2.095703,2.11133 5e-6,1.1675 -0.937839,2.11133 -2.095703,2.11133 -1.157863,0 -2.093754,-0.94383 -2.09375,-2.11133 10e-7,-1.16749 0.93589,-2.11133 2.09375,-2.11133 z"
           id="path7-3-9-5-6-2" /><path
           d="m 33.960659,153.02347 v -0.0701 h 0.09663 q 0.162953,0 0.231166,-0.10421 0.04169,-0.0625 0.04169,-0.28044 v -1.65984 q 0,-0.24064 -0.05306,-0.30128 -0.0739,-0.0834 -0.219797,-0.0834 h -0.09663 v -0.0701 h 1.045932 q 0.57602,0 0.8754,0.13074 0.301274,0.13075 0.483175,0.43581 0.183796,0.30506 0.183796,0.70487 0,0.53623 -0.325907,0.89624 -0.365697,0.4017 -1.114145,0.4017 z m 0.733289,-0.18569 q 0.24064,0.053 0.403593,0.053 0.439595,0 0.7295,-0.30885 0.289905,-0.30885 0.289905,-0.83751 0,-0.53244 -0.289905,-0.83939 -0.289905,-0.30696 -0.744658,-0.30696 -0.170532,0 -0.388435,0.055 z"
           id="text15-4-1-4-2-14-8"
           style="-inkscape-font-specification:'Times New Roman';stroke-width:0.200256"
           aria-label="D" /></g><g
         id="g5-6-6-4-0"
         transform="translate(29.254306,-7.7479138)"><path
           style="color:#000000;fill:#000000;-inkscape-stroke:none"
           d="m 30.246094,154.44531 c -1.27146,0 -2.304686,1.03239 -2.304688,2.30274 2e-6,1.27034 1.033228,2.30273 2.304688,2.30273 1.27146,0 2.304685,-1.03239 2.304687,-2.30273 -2e-6,-1.27035 -1.033227,-2.30274 -2.304687,-2.30274 z m 0,0.20117 c 1.163342,0 2.103513,0.93955 2.103515,2.10157 -2e-6,1.16201 -0.940173,2.10156 -2.103515,2.10156 -1.163343,0 -2.105467,-0.93955 -2.105469,-2.10156 2e-6,-1.16202 0.942126,-2.10157 2.105469,-2.10157 z"
           id="path7-9-0-6-4-3-8-0" /><path
           d="m 30.950563,155.4045 0.05874,0.8735 h -0.05874 q -0.117477,-0.39222 -0.33538,-0.56465 -0.217903,-0.17243 -0.522966,-0.17243 -0.255799,0 -0.462332,0.13075 -0.206534,0.12884 -0.325907,0.41306 -0.117478,0.28422 -0.117478,0.70677 0,0.34864 0.111794,0.60444 0.111793,0.2558 0.33538,0.39222 0.225482,0.13643 0.513492,0.13643 0.250114,0 0.44149,-0.10611 0.191375,-0.108 0.420646,-0.42633 l 0.05874,0.0379 q -0.19327,0.34296 -0.450963,0.50213 -0.257694,0.15916 -0.612022,0.15916 -0.638549,0 -0.989088,-0.4737 -0.261483,-0.35243 -0.261483,-0.82992 0,-0.38465 0.172427,-0.70677 0.172427,-0.32211 0.473701,-0.49833 0.303169,-0.17811 0.661287,-0.17811 0.278536,0 0.549493,0.13642 0.07958,0.0417 0.113689,0.0417 0.05116,0 0.08905,-0.036 0.04927,-0.0512 0.07011,-0.14211 z m 0.551388,1.10656 -0.102319,-0.56086 q -0.04358,-0.23306 -0.04358,-0.31454 0,-0.12126 0.04926,-0.17621 0.04927,-0.0549 0.134532,-0.0549 0.08527,0 0.140215,0.0568 0.05684,0.0549 0.05684,0.1459 0,0.0701 -0.04926,0.34486 l -0.102319,0.55896 z"
           id="text14-0-4-7-9-6-6-4"
           style="-inkscape-font-specification:'Times New Roman';stroke-width:0.200256"
           aria-label="C'" /></g><g
         id="g12-6-7"
         transform="translate(-5.5000001,1.9999999)"><path
           style="color:#000000;fill:#000000;-inkscape-stroke:none"
           d="m 55,153.20703 c -1.266427,0 -2.294922,1.02766 -2.294922,2.29297 0,1.26531 1.028495,2.29297 2.294922,2.29297 1.266427,0 2.294922,-1.02766 2.294922,-2.29297 0,-1.26531 -1.028495,-2.29297 -2.294922,-2.29297 z m 0,0.19922 c 1.15831,0 2.095704,0.93678 2.095703,2.09375 10e-7,1.15697 -0.937393,2.09375 -2.095703,2.09375 -1.15831,0 -2.095704,-0.93678 -2.095703,-2.09375 -10e-7,-1.15697 0.937393,-2.09375 2.095703,-2.09375 z"
           id="path7-9-55-7-1-9-7-8" /><path
           d="m 55.380855,155.85385 h -0.994773 l -0.174322,0.40549 q -0.06442,0.14969 -0.06442,0.22359 0,0.0587 0.05495,0.10421 0.05684,0.0436 0.242535,0.0568 v 0.0701 H 53.63574 v -0.0701 q 0.161058,-0.0284 0.208428,-0.0739 0.09663,-0.0909 0.214113,-0.36949 l 0.903822,-2.1146 h 0.06632 l 0.894348,2.13734 q 0.108004,0.2577 0.195165,0.33538 0.08906,0.0758 0.246325,0.0853 v 0.0701 H 55.35054 v -0.0701 q 0.153479,-0.008 0.206534,-0.0512 0.05495,-0.0436 0.05495,-0.10611 0,-0.0834 -0.07579,-0.26338 z m -0.05305,-0.14021 -0.435805,-1.03835 -0.447174,1.03835 z"
           id="text17-2-2-5-0-1-3"
           style="-inkscape-font-specification:'Times New Roman';stroke-width:0.200256"
           aria-label="A" /></g><g
         id="g6-0-9-1"
         transform="translate(25.245191,-7.2570235)"><path
           style="color:#000000;fill:#000000;-inkscape-stroke:none"
           d="m 35.253906,159.46484 c -1.266427,0 -2.294922,1.02766 -2.294922,2.29297 0,1.26531 1.028495,2.29297 2.294922,2.29297 1.266428,0 2.296876,-1.02766 2.296875,-2.29297 10e-7,-1.26531 -1.030447,-2.29297 -2.296875,-2.29297 z m 0,0.19922 c 1.158311,0 2.095704,0.93678 2.095703,2.09375 10e-7,1.15698 -0.937392,2.0918 -2.095703,2.0918 -1.15831,0 -2.09375,-0.93482 -2.09375,-2.0918 0,-1.15697 0.93544,-2.09375 2.09375,-2.09375 z"
           id="path7-9-55-7-1-2-2-1" /><path
           d="m 35.611293,162.11087 h -0.994772 l -0.174322,0.40549 q -0.06442,0.14969 -0.06442,0.22359 0,0.0587 0.05495,0.10421 0.05684,0.0436 0.242535,0.0569 v 0.0701 h -0.809082 v -0.0701 q 0.161058,-0.0284 0.208429,-0.0739 0.09663,-0.0909 0.214113,-0.36949 l 0.903821,-2.1146 h 0.06632 l 0.894348,2.13734 q 0.108004,0.25769 0.195165,0.33538 0.08906,0.0758 0.246325,0.0853 v 0.0701 h -1.013721 v -0.0701 q 0.153479,-0.008 0.206534,-0.0512 0.05495,-0.0436 0.05495,-0.10611 0,-0.0834 -0.07579,-0.26338 z m -0.05305,-0.14021 -0.435805,-1.03835 -0.447174,1.03835 z m 0.85025,-0.52107 -0.102319,-0.56087 q -0.04358,-0.23306 -0.04358,-0.31453 0,-0.12127 0.04926,-0.17622 0.04927,-0.0549 0.134532,-0.0549 0.08527,0 0.140215,0.0568 0.05684,0.0549 0.05684,0.1459 0,0.0701 -0.04926,0.34485 l -0.102319,0.55897 z"
           id="text17-2-2-5-7-7-6"
           style="-inkscape-font-specification:'Times New Roman';stroke-width:0.200256"
           aria-label="A'" /></g><g
         id="g3-3-90-8"
         transform="translate(14.740629,-0.74335156)"><path
           style="color:#000000;fill:#000000;-inkscape-stroke:none"
           d="m 40.259766,154.4375 c -1.264358,0 -2.291017,1.03422 -2.291016,2.30664 -10e-7,1.27242 1.026658,2.30664 2.291016,2.30664 1.264357,0 2.291016,-1.03422 2.291015,-2.30664 10e-7,-1.27242 -1.026658,-2.30664 -2.291015,-2.30664 z m 0,0.19922 c 1.15534,0 2.089844,0.94244 2.089843,2.10742 10e-7,1.16498 -0.934503,2.10547 -2.089843,2.10547 -1.155341,0 -2.091798,-0.94049 -2.091797,-2.10547 -10e-7,-1.16498 0.936456,-2.10742 2.091797,-2.10742 z"
           id="path7-9-5-4-1-7-8-9" /><path
           d="m 40.831605,156.71683 q 0.267167,0.0568 0.399804,0.1819 0.183796,0.17432 0.183796,0.42633 0,0.19137 -0.121268,0.36759 -0.121267,0.17432 -0.333485,0.2558 -0.210324,0.0796 -0.644234,0.0796 h -1.212675 v -0.0701 h 0.09663 q 0.161059,0 0.231166,-0.10232 0.04358,-0.0663 0.04358,-0.28232 v -1.65985 q 0,-0.23875 -0.05495,-0.30128 -0.0739,-0.0834 -0.219797,-0.0834 h -0.09663 v -0.0701 h 1.110356 q 0.310748,0 0.498333,0.0455 0.284221,0.0682 0.43391,0.24254 0.14969,0.17242 0.14969,0.3979 0,0.19327 -0.117478,0.34675 -0.117478,0.15159 -0.346749,0.22549 z m -0.992878,-0.10232 q 0.07011,0.0133 0.159164,0.0208 0.09095,0.006 0.198954,0.006 0.276642,0 0.414963,-0.0587 0.140215,-0.0606 0.214113,-0.18379 0.0739,-0.12316 0.0739,-0.26906 0,-0.22549 -0.183796,-0.38465 -0.183796,-0.15916 -0.53623,-0.15916 -0.18948,0 -0.341065,0.0417 z m 0,1.22783 q 0.219798,0.0512 0.433911,0.0512 0.342959,0 0.522966,-0.15348 0.180006,-0.15537 0.180006,-0.38275 0,-0.14969 -0.08148,-0.28801 -0.08148,-0.13832 -0.265272,-0.2179 -0.183796,-0.0796 -0.454753,-0.0796 -0.117478,0 -0.20085,0.004 -0.08337,0.004 -0.134531,0.0133 z"
           id="text18-1-5-8-9-27-9"
           style="-inkscape-font-specification:'Times New Roman';stroke-width:0.200256"
           aria-label="B" /></g><g
         id="g8-1-7-9"
         transform="translate(13.000001,-2.500004)"><path
           style="color:#000000;fill:#000000;-inkscape-stroke:none"
           d="m 32.900391,144.40039 v 3.69922 h 6.699218 v -3.69922 z m 0.199218,0.19922 h 6.300782 v 3.30078 h -6.300782 z"
           id="rect7-01-59-9-5-5" /><path
           d="m 36.448956,146.25285 q 0.267168,0.0568 0.399804,0.1819 0.183796,0.17432 0.183796,0.42633 0,0.19138 -0.121267,0.3676 -0.121268,0.17432 -0.333486,0.25579 -0.210323,0.0796 -0.644233,0.0796 h -1.212675 v -0.0701 h 0.09663 q 0.161058,0 0.231166,-0.10232 0.04358,-0.0663 0.04358,-0.28233 v -1.65985 q 0,-0.23874 -0.05495,-0.30127 -0.0739,-0.0834 -0.219797,-0.0834 h -0.09663 v -0.0701 h 1.110355 q 0.310748,0 0.498334,0.0455 0.28422,0.0682 0.43391,0.24253 0.14969,0.17243 0.14969,0.39791 0,0.19327 -0.117478,0.34675 -0.117478,0.15158 -0.34675,0.22548 z m -0.992877,-0.10232 q 0.07011,0.0133 0.159163,0.0208 0.09095,0.006 0.198955,0.006 0.276641,0 0.414962,-0.0587 0.140216,-0.0606 0.214113,-0.1838 0.0739,-0.12316 0.0739,-0.26906 0,-0.22548 -0.183796,-0.38464 -0.183796,-0.15917 -0.536229,-0.15917 -0.189481,0 -0.341065,0.0417 z m 0,1.22784 q 0.219797,0.0512 0.43391,0.0512 0.34296,0 0.522966,-0.15348 0.180007,-0.15538 0.180007,-0.38275 0,-0.14969 -0.08148,-0.28801 -0.08148,-0.13833 -0.265273,-0.21791 -0.183796,-0.0796 -0.454753,-0.0796 -0.117478,0 -0.200849,0.004 -0.08337,0.004 -0.134531,0.0133 z m 2.088074,-1.33584 -0.102319,-0.56086 q -0.04358,-0.23306 -0.04358,-0.31454 0,-0.12127 0.04926,-0.17622 0.04926,-0.055 0.134532,-0.055 0.08527,0 0.140215,0.0568 0.05684,0.055 0.05684,0.1459 0,0.0701 -0.04926,0.34485 l -0.102319,0.55897 z"
           id="text13-0-7-3-2-5"
           style="-inkscape-font-specification:'Times New Roman';stroke-width:0.200256"
           aria-label="B'" /></g><g
         id="g7-2-7-2"
         transform="translate(23.500002,1.9999999)"><path
           d="m 34.614788,143.06406 v -0.0701 h 0.09664 q 0.162953,0 0.231166,-0.10422 0.04169,-0.0625 0.04169,-0.28043 v -1.65985 q 0,-0.24064 -0.05305,-0.30127 -0.0739,-0.0834 -0.219797,-0.0834 h -0.09664 v -0.0701 h 1.045932 q 0.57602,0 0.8754,0.13074 0.301274,0.13074 0.483175,0.43581 0.183796,0.30506 0.183796,0.70487 0,0.53622 -0.325907,0.89624 -0.365697,0.4017 -1.114145,0.4017 z m 0.733289,-0.18569 q 0.24064,0.0531 0.403593,0.0531 0.439595,0 0.7295,-0.30885 0.289905,-0.30886 0.289905,-0.83751 0,-0.53244 -0.289905,-0.8394 -0.289905,-0.30695 -0.744658,-0.30695 -0.170532,0 -0.388435,0.0549 z m 2.302188,-1.33584 -0.10232,-0.56086 q -0.04358,-0.23306 -0.04358,-0.31454 0,-0.12127 0.04926,-0.17622 0.04926,-0.055 0.134531,-0.055 0.08527,0 0.140215,0.0568 0.05685,0.055 0.05685,0.1459 0,0.0701 -0.04926,0.34485 l -0.10232,0.55897 z"
           id="text12-7-8-0-0-8"
           style="-inkscape-font-specification:'Times New Roman';stroke-width:0.200256"
           aria-label="D'" /><path
           style="color:#000000;fill:#000000;-inkscape-stroke:none"
           d="m 32.900391,139.90039 v 3.69922 h 6.699218 v -3.69922 z m 0.199218,0.19922 h 6.300782 v 3.30078 h -6.300782 z"
           id="rect7-01-59-5-5-5-0" /></g><g
         id="g8-6-6-6"
         transform="translate(1.500002,23.499991)"><path
           style="color:#000000;fill:#000000;-inkscape-stroke:none"
           d="m 32.900391,144.40039 v 3.69922 h 6.699218 v -3.69922 z m 0.199218,0.19922 h 6.300782 v 3.30078 h -6.300782 z"
           id="rect7-01-59-1-5-7" /><path
           d="m 37.289301,144.90659 0.05874,0.8735 h -0.05874 q -0.117478,-0.39222 -0.335381,-0.56465 -0.217902,-0.17242 -0.522966,-0.17242 -0.255798,0 -0.462332,0.13074 -0.206534,0.12884 -0.325906,0.41306 -0.117478,0.28422 -0.117478,0.70677 0,0.34864 0.111793,0.60444 0.111794,0.2558 0.335381,0.39222 0.225481,0.13643 0.513492,0.13643 0.250114,0 0.441489,-0.10611 0.191375,-0.108 0.420647,-0.42633 l 0.05874,0.0379 q -0.19327,0.34295 -0.450964,0.50212 -0.257693,0.15916 -0.612022,0.15916 -0.638549,0 -0.989088,-0.4737 -0.261483,-0.35243 -0.261483,-0.82992 0,-0.38465 0.172428,-0.70677 0.172427,-0.32211 0.473701,-0.49833 0.303168,-0.17811 0.661286,-0.17811 0.278537,0 0.549494,0.13643 0.07958,0.0417 0.113688,0.0417 0.05116,0 0.08906,-0.036 0.04926,-0.0512 0.07011,-0.14211 z"
           id="text13-0-7-8-8-5"
           style="-inkscape-font-specification:'Times New Roman';stroke-width:0.200256"
           aria-label="C" /></g><g
         id="g6-8-6-1"
         transform="translate(-3.7548092,18.742976)"><path
           style="color:#000000;fill:#000000;-inkscape-stroke:none"
           d="m 35.253906,159.46484 c -1.266427,0 -2.294922,1.02766 -2.294922,2.29297 0,1.26531 1.028495,2.29297 2.294922,2.29297 1.266428,0 2.296876,-1.02766 2.296875,-2.29297 10e-7,-1.26531 -1.030447,-2.29297 -2.296875,-2.29297 z m 0,0.19922 c 1.158311,0 2.095704,0.93678 2.095703,2.09375 10e-7,1.15698 -0.937392,2.0918 -2.095703,2.0918 -1.15831,0 -2.09375,-0.93482 -2.09375,-2.0918 0,-1.15697 0.93544,-2.09375 2.09375,-2.09375 z"
           id="path7-9-55-7-1-4-1-8" /><path
           d="m 35.635665,162.11086 h -0.994772 l -0.174322,0.40549 q -0.06442,0.14969 -0.06442,0.22358 0,0.0587 0.05495,0.10422 0.05684,0.0436 0.242535,0.0568 v 0.0701 H 33.89055 v -0.0701 q 0.161059,-0.0284 0.208429,-0.0739 0.09663,-0.0909 0.214113,-0.36948 l 0.903821,-2.1146 h 0.06632 l 0.894347,2.13734 q 0.108004,0.25769 0.195165,0.33538 0.08906,0.0758 0.246325,0.0853 v 0.0701 h -1.013721 v -0.0701 q 0.15348,-0.008 0.206534,-0.0512 0.05495,-0.0436 0.05495,-0.10611 0,-0.0834 -0.07579,-0.26337 z m -0.05305,-0.14022 -0.435805,-1.03835 -0.447174,1.03835 z"
           id="text17-2-2-5-06-43-4"
           style="-inkscape-font-specification:'Times New Roman';stroke-width:0.200256"
           aria-label="A" /></g><g
         id="g3-2-9-1"
         transform="translate(-4.7593715,19.756648)"><path
           style="color:#000000;fill:#000000;-inkscape-stroke:none"
           d="m 40.259766,154.4375 c -1.264358,0 -2.291017,1.03422 -2.291016,2.30664 -10e-7,1.27242 1.026658,2.30664 2.291016,2.30664 1.264357,0 2.291016,-1.03422 2.291015,-2.30664 10e-7,-1.27242 -1.026658,-2.30664 -2.291015,-2.30664 z m 0,0.19922 c 1.15534,0 2.089844,0.94244 2.089843,2.10742 10e-7,1.16498 -0.934503,2.10547 -2.089843,2.10547 -1.155341,0 -2.091798,-0.94049 -2.091797,-2.10547 -10e-7,-1.16498 0.936456,-2.10742 2.091797,-2.10742 z"
           id="path7-9-5-4-1-5-5-2" /><path
           d="m 40.831605,156.71683 q 0.267167,0.0568 0.399804,0.1819 0.183796,0.17432 0.183796,0.42633 0,0.19137 -0.121268,0.36759 -0.121267,0.17432 -0.333485,0.2558 -0.210324,0.0796 -0.644234,0.0796 h -1.212675 v -0.0701 h 0.09663 q 0.161059,0 0.231166,-0.10232 0.04358,-0.0663 0.04358,-0.28232 v -1.65985 q 0,-0.23875 -0.05495,-0.30128 -0.0739,-0.0834 -0.219797,-0.0834 h -0.09663 v -0.0701 h 1.110356 q 0.310748,0 0.498333,0.0455 0.284221,0.0682 0.43391,0.24254 0.14969,0.17242 0.14969,0.3979 0,0.19327 -0.117478,0.34675 -0.117478,0.15159 -0.346749,0.22549 z m -0.992878,-0.10232 q 0.07011,0.0133 0.159164,0.0208 0.09095,0.006 0.198954,0.006 0.276642,0 0.414963,-0.0587 0.140215,-0.0606 0.214113,-0.18379 0.0739,-0.12316 0.0739,-0.26906 0,-0.22549 -0.183796,-0.38465 -0.183796,-0.15916 -0.53623,-0.15916 -0.18948,0 -0.341065,0.0417 z m 0,1.22783 q 0.219798,0.0512 0.433911,0.0512 0.342959,0 0.522966,-0.15348 0.180006,-0.15537 0.180006,-0.38275 0,-0.14969 -0.08148,-0.28801 -0.08148,-0.13832 -0.265272,-0.2179 -0.183796,-0.0796 -0.454753,-0.0796 -0.117478,0 -0.20085,0.004 -0.08337,0.004 -0.134531,0.0133 z"
           id="text18-1-5-8-8-7-4"
           style="-inkscape-font-specification:'Times New Roman';stroke-width:0.200256"
           aria-label="B" /></g><g
         id="g7-1-5-5"
         transform="translate(13.000001,23.999995)"><path
           d="m 34.614788,143.06406 v -0.0701 h 0.09664 q 0.162953,0 0.231166,-0.10422 0.04169,-0.0625 0.04169,-0.28043 v -1.65985 q 0,-0.24064 -0.05305,-0.30127 -0.0739,-0.0834 -0.219797,-0.0834 h -0.09664 v -0.0701 h 1.045932 q 0.57602,0 0.8754,0.13074 0.301274,0.13074 0.483175,0.43581 0.183796,0.30506 0.183796,0.70487 0,0.53622 -0.325907,0.89624 -0.365697,0.4017 -1.114145,0.4017 z m 0.733289,-0.18569 q 0.24064,0.0531 0.403593,0.0531 0.439595,0 0.7295,-0.30885 0.289905,-0.30886 0.289905,-0.83751 0,-0.53244 -0.289905,-0.8394 -0.289905,-0.30695 -0.744658,-0.30695 -0.170532,0 -0.388435,0.0549 z m 2.302188,-1.33584 -0.10232,-0.56086 q -0.04358,-0.23306 -0.04358,-0.31454 0,-0.12127 0.04926,-0.17622 0.04926,-0.055 0.134531,-0.055 0.08527,0 0.140215,0.0568 0.05685,0.055 0.05685,0.1459 0,0.0701 -0.04926,0.34485 l -0.10232,0.55897 z"
           id="text12-7-8-9-0-6"
           style="-inkscape-font-specification:'Times New Roman';stroke-width:0.200256"
           aria-label="D'" /><path
           style="color:#000000;fill:#000000;-inkscape-stroke:none"
           d="m 32.900391,139.90039 v 3.69922 h 6.699218 v -3.69922 z m 0.199218,0.19922 h 6.300782 v 3.30078 h -6.300782 z"
           id="rect7-01-59-5-4-31-2" /></g><g
         id="g9-3-8-9"
         transform="translate(-1.4999991,27.499995)"><path
           d="m 27.45487,140.90659 0.05874,0.8735 h -0.05874 q -0.117478,-0.39222 -0.33538,-0.56465 -0.217903,-0.17242 -0.522966,-0.17242 -0.255799,0 -0.462333,0.13074 -0.206533,0.12884 -0.325906,0.41306 -0.117478,0.28422 -0.117478,0.70677 0,0.34864 0.111794,0.60444 0.111793,0.2558 0.33538,0.39222 0.225482,0.13643 0.513492,0.13643 0.250114,0 0.441489,-0.10611 0.191376,-0.108 0.420647,-0.42633 l 0.05874,0.0379 q -0.19327,0.34295 -0.450963,0.50212 -0.257694,0.15916 -0.612022,0.15916 -0.63855,0 -0.989088,-0.4737 -0.261483,-0.35243 -0.261483,-0.82992 0,-0.38465 0.172427,-0.70677 0.172427,-0.32211 0.473701,-0.49833 0.303169,-0.17811 0.661287,-0.17811 0.278536,0 0.549493,0.13643 0.07958,0.0417 0.113688,0.0417 0.05116,0 0.08906,-0.036 0.04927,-0.0512 0.07011,-0.14211 z m 0.551388,1.10657 -0.102319,-0.56087 q -0.04358,-0.23306 -0.04358,-0.31453 0,-0.12127 0.04926,-0.17622 0.04927,-0.055 0.134531,-0.055 0.08527,0 0.140216,0.0568 0.05684,0.055 0.05684,0.1459 0,0.0701 -0.04926,0.34486 l -0.102319,0.55897 z"
           id="text11-5-7-2-1-3-1"
           style="-inkscape-font-specification:'Times New Roman';stroke-width:0.200256"
           aria-label="C'" /><path
           style="color:#000000;fill:#000000;-inkscape-stroke:none"
           d="m 23.400391,140.40039 v 3.69922 h 6.699218 v -3.69922 z m 0.199218,0.19922 h 6.300782 v 3.30078 h -6.300782 z"
           id="rect7-01-59-8-3-6-9" /></g><g
         id="g10-9-6-2"
         transform="translate(11.000001,19.499995)"><path
           d="m 25.455848,147.53468 v -0.0701 h 0.09663 q 0.162954,0 0.231167,-0.10422 0.04168,-0.0625 0.04168,-0.28043 v -1.65985 q 0,-0.24064 -0.05305,-0.30127 -0.0739,-0.0834 -0.219798,-0.0834 h -0.09663 v -0.0701 h 1.045933 q 0.57602,0 0.875399,0.13074 0.301274,0.13074 0.483175,0.4358 0.183796,0.30507 0.183796,0.70487 0,0.53623 -0.325906,0.89624 -0.365697,0.4017 -1.114145,0.4017 z m 0.73329,-0.18569 q 0.24064,0.0531 0.403593,0.0531 0.439595,0 0.7295,-0.30886 0.289905,-0.30885 0.289905,-0.8375 0,-0.53244 -0.289905,-0.8394 -0.289905,-0.30696 -0.744658,-0.30696 -0.170533,0 -0.388435,0.0549 z"
           id="text11-9-8-9-11-3"
           style="-inkscape-font-specification:'Times New Roman';stroke-width:0.200256"
           aria-label="D" /><path
           style="color:#000000;fill:#000000;-inkscape-stroke:none"
           d="m 23.400391,144.40039 v 3.69922 h 6.699218 v -3.69922 z m 0.199218,0.19922 h 6.300782 v 3.30078 h -6.300782 z"
           id="rect7-01-59-7-0-36-2" /></g><g
         id="g5-6-6-1-8-8"
         transform="translate(29.254306,14.252085)"><path
           style="color:#000000;fill:#000000;-inkscape-stroke:none"
           d="m 30.246094,154.44531 c -1.27146,0 -2.304686,1.03239 -2.304688,2.30274 2e-6,1.27034 1.033228,2.30273 2.304688,2.30273 1.27146,0 2.304685,-1.03239 2.304687,-2.30273 -2e-6,-1.27035 -1.033227,-2.30274 -2.304687,-2.30274 z m 0,0.20117 c 1.163342,0 2.103513,0.93955 2.103515,2.10157 -2e-6,1.16201 -0.940173,2.10156 -2.103515,2.10156 -1.163343,0 -2.105467,-0.93955 -2.105469,-2.10156 2e-6,-1.16202 0.942126,-2.10157 2.105469,-2.10157 z"
           id="path7-9-0-6-4-3-5-1-9" /><path
           d="m 30.950563,155.4045 0.05874,0.8735 h -0.05874 q -0.117477,-0.39222 -0.33538,-0.56465 -0.217903,-0.17243 -0.522966,-0.17243 -0.255799,0 -0.462332,0.13075 -0.206534,0.12884 -0.325907,0.41306 -0.117478,0.28422 -0.117478,0.70677 0,0.34864 0.111794,0.60444 0.111793,0.2558 0.33538,0.39222 0.225482,0.13643 0.513492,0.13643 0.250114,0 0.44149,-0.10611 0.191375,-0.108 0.420646,-0.42633 l 0.05874,0.0379 q -0.19327,0.34296 -0.450963,0.50213 -0.257694,0.15916 -0.612022,0.15916 -0.638549,0 -0.989088,-0.4737 -0.261483,-0.35243 -0.261483,-0.82992 0,-0.38465 0.172427,-0.70677 0.172427,-0.32211 0.473701,-0.49833 0.303169,-0.17811 0.661287,-0.17811 0.278536,0 0.549493,0.13642 0.07958,0.0417 0.113689,0.0417 0.05116,0 0.08905,-0.036 0.04927,-0.0512 0.07011,-0.14211 z m 0.551388,1.10656 -0.102319,-0.56086 q -0.04358,-0.23306 -0.04358,-0.31454 0,-0.12126 0.04926,-0.17621 0.04927,-0.0549 0.134532,-0.0549 0.08527,0 0.140215,0.0568 0.05684,0.0549 0.05684,0.1459 0,0.0701 -0.04926,0.34486 l -0.102319,0.55896 z"
           id="text14-0-4-7-9-6-7-0-9"
           style="-inkscape-font-specification:'Times New Roman';stroke-width:0.200256"
           aria-label="C'" /></g><g
         id="g12-5-7-9"
         transform="translate(-5.4999997,23.999999)"><path
           style="color:#000000;fill:#000000;-inkscape-stroke:none"
           d="m 55,153.20703 c -1.266427,0 -2.294922,1.02766 -2.294922,2.29297 0,1.26531 1.028495,2.29297 2.294922,2.29297 1.266427,0 2.294922,-1.02766 2.294922,-2.29297 0,-1.26531 -1.028495,-2.29297 -2.294922,-2.29297 z m 0,0.19922 c 1.15831,0 2.095704,0.93678 2.095703,2.09375 10e-7,1.15697 -0.937393,2.09375 -2.095703,2.09375 -1.15831,0 -2.095704,-0.93678 -2.095703,-2.09375 -10e-7,-1.15697 0.937393,-2.09375 2.095703,-2.09375 z"
           id="path7-9-55-7-1-9-4-7-7" /><path
           d="m 55.380855,155.85385 h -0.994773 l -0.174322,0.40549 q -0.06442,0.14969 -0.06442,0.22359 0,0.0587 0.05495,0.10421 0.05684,0.0436 0.242535,0.0568 v 0.0701 H 53.63574 v -0.0701 q 0.161058,-0.0284 0.208428,-0.0739 0.09663,-0.0909 0.214113,-0.36949 l 0.903822,-2.1146 h 0.06632 l 0.894348,2.13734 q 0.108004,0.2577 0.195165,0.33538 0.08906,0.0758 0.246325,0.0853 v 0.0701 H 55.35054 v -0.0701 q 0.153479,-0.008 0.206534,-0.0512 0.05495,-0.0436 0.05495,-0.10611 0,-0.0834 -0.07579,-0.26338 z m -0.05305,-0.14021 -0.435805,-1.03835 -0.447174,1.03835 z"
           id="text17-2-2-5-0-6-6-9"
           style="-inkscape-font-specification:'Times New Roman';stroke-width:0.200256"
           aria-label="A" /></g><g
         id="g3-3-5-9-4"
         transform="translate(14.740629,21.256647)"><path
           style="color:#000000;fill:#000000;-inkscape-stroke:none"
           d="m 40.259766,154.4375 c -1.264358,0 -2.291017,1.03422 -2.291016,2.30664 -10e-7,1.27242 1.026658,2.30664 2.291016,2.30664 1.264357,0 2.291016,-1.03422 2.291015,-2.30664 10e-7,-1.27242 -1.026658,-2.30664 -2.291015,-2.30664 z m 0,0.19922 c 1.15534,0 2.089844,0.94244 2.089843,2.10742 10e-7,1.16498 -0.934503,2.10547 -2.089843,2.10547 -1.155341,0 -2.091798,-0.94049 -2.091797,-2.10547 -10e-7,-1.16498 0.936456,-2.10742 2.091797,-2.10742 z"
           id="path7-9-5-4-1-7-5-9-2" /><path
           d="m 40.831605,156.71683 q 0.267167,0.0568 0.399804,0.1819 0.183796,0.17432 0.183796,0.42633 0,0.19137 -0.121268,0.36759 -0.121267,0.17432 -0.333485,0.2558 -0.210324,0.0796 -0.644234,0.0796 h -1.212675 v -0.0701 h 0.09663 q 0.161059,0 0.231166,-0.10232 0.04358,-0.0663 0.04358,-0.28232 v -1.65985 q 0,-0.23875 -0.05495,-0.30128 -0.0739,-0.0834 -0.219797,-0.0834 h -0.09663 v -0.0701 h 1.110356 q 0.310748,0 0.498333,0.0455 0.284221,0.0682 0.43391,0.24254 0.14969,0.17242 0.14969,0.3979 0,0.19327 -0.117478,0.34675 -0.117478,0.15159 -0.346749,0.22549 z m -0.992878,-0.10232 q 0.07011,0.0133 0.159164,0.0208 0.09095,0.006 0.198954,0.006 0.276642,0 0.414963,-0.0587 0.140215,-0.0606 0.214113,-0.18379 0.0739,-0.12316 0.0739,-0.26906 0,-0.22549 -0.183796,-0.38465 -0.183796,-0.15916 -0.53623,-0.15916 -0.18948,0 -0.341065,0.0417 z m 0,1.22783 q 0.219798,0.0512 0.433911,0.0512 0.342959,0 0.522966,-0.15348 0.180006,-0.15537 0.180006,-0.38275 0,-0.14969 -0.08148,-0.28801 -0.08148,-0.13832 -0.265272,-0.2179 -0.183796,-0.0796 -0.454753,-0.0796 -0.117478,0 -0.20085,0.004 -0.08337,0.004 -0.134531,0.0133 z"
           id="text18-1-5-8-9-1-4-3"
           style="-inkscape-font-specification:'Times New Roman';stroke-width:0.200256"
           aria-label="B" /></g><path
         d="m 12.547742,164.84974 v 0.72709 h -0.05736 q -0.0279,-0.20929 -0.100769,-0.33331 -0.07131,-0.12403 -0.204639,-0.19689 -0.133325,-0.0729 -0.275952,-0.0729 -0.16123,0 -0.26665,0.0992 -0.10542,0.0977 -0.10542,0.22324 0,0.0961 0.06666,0.17518 0.09612,0.11627 0.457337,0.31006 0.294555,0.15813 0.401526,0.2434 0.10852,0.0837 0.165881,0.19843 0.05891,0.11472 0.05891,0.2403 0,0.23874 -0.186035,0.41238 -0.184485,0.17208 -0.47594,0.17208 -0.09147,0 -0.172082,-0.0139 -0.04806,-0.008 -0.199988,-0.0558 -0.150379,-0.0496 -0.190686,-0.0496 -0.03876,0 -0.06201,0.0233 -0.0217,0.0233 -0.03256,0.0961 h -0.05736 v -0.72089 h 0.05736 q 0.04031,0.22635 0.10852,0.33952 0.06821,0.11162 0.20774,0.18603 0.141076,0.0744 0.308508,0.0744 0.193787,0 0.305408,-0.10232 0.113171,-0.10232 0.113171,-0.24185 0,-0.0775 -0.04341,-0.15658 -0.04186,-0.0791 -0.131775,-0.14728 -0.06046,-0.0465 -0.330212,-0.19688 -0.269751,-0.15193 -0.384473,-0.24185 -0.113172,-0.0899 -0.172083,-0.19844 -0.05891,-0.10852 -0.05891,-0.23874 0,-0.22634 0.173633,-0.38913 0.173633,-0.16433 0.441834,-0.16433 0.167431,0 0.355017,0.0822 0.08682,0.0388 0.122473,0.0388 0.04031,0 0.06511,-0.0233 0.02636,-0.0248 0.04186,-0.0977 z m 0.821655,0.26355 v 0.46664 h 0.331763 v 0.10852 h -0.331763 v 0.92088 q 0,0.13797 0.03876,0.18603 0.04031,0.0481 0.10232,0.0481 0.05116,0 0.09922,-0.031 0.04806,-0.0325 0.07441,-0.0946 h 0.06046 q -0.05426,0.15193 -0.153479,0.22944 -0.09922,0.076 -0.204639,0.076 -0.07131,0 -0.139526,-0.0387 -0.06821,-0.0403 -0.100769,-0.11317 -0.03256,-0.0744 -0.03256,-0.2279 v -0.95498 h -0.224793 v -0.0512 q 0.08527,-0.0341 0.173633,-0.11472 0.08992,-0.0822 0.15968,-0.19379 0.03566,-0.0589 0.09922,-0.21549 z m 0.830957,-0.31781 q 0.06511,0 0.110071,0.0465 0.04651,0.045 0.04651,0.11007 0,0.0651 -0.04651,0.11162 -0.04496,0.0465 -0.110071,0.0465 -0.06511,0 -0.111621,-0.0465 -0.04651,-0.0465 -0.04651,-0.11162 0,-0.0651 0.04496,-0.11007 0.04651,-0.0465 0.113171,-0.0465 z m 0.128674,0.74259 v 1.14102 q 0,0.13332 0.0186,0.17828 0.02015,0.0434 0.05736,0.0651 0.03876,0.0217 0.139526,0.0217 V 167 h -0.68988 v -0.0558 q 0.103869,0 0.139526,-0.0202 0.03566,-0.0202 0.05581,-0.0667 0.0217,-0.0465 0.0217,-0.17828 v -0.54725 q 0,-0.231 -0.01395,-0.29921 -0.01085,-0.0496 -0.03411,-0.0682 -0.02326,-0.0202 -0.06356,-0.0202 -0.04341,0 -0.10542,0.0233 l -0.0217,-0.0558 0.427881,-0.17364 z m 1.598352,0.92243 q -0.05736,0.2806 -0.224792,0.43253 -0.167432,0.15038 -0.37052,0.15038 -0.241846,0 -0.42168,-0.20309 -0.179834,-0.20309 -0.179834,-0.5488 0,-0.33487 0.198438,-0.54416 0.199987,-0.20929 0.47904,-0.20929 0.20929,0 0.344165,0.11162 0.134876,0.11008 0.134876,0.22945 0,0.0589 -0.03876,0.0961 -0.03721,0.0357 -0.10542,0.0357 -0.09147,0 -0.137976,-0.0589 -0.02636,-0.0325 -0.03566,-0.12402 -0.0078,-0.0915 -0.06201,-0.13953 -0.05426,-0.0465 -0.150379,-0.0465 -0.155029,0 -0.249597,0.11473 -0.125573,0.15192 -0.125573,0.40152 0,0.25425 0.124023,0.44959 0.125574,0.19378 0.337964,0.19378 0.151929,0 0.272851,-0.10387 0.08527,-0.0713 0.165882,-0.2589 z m 0.623218,-1.66502 v 1.41232 l 0.361218,-0.32866 q 0.114722,-0.10542 0.133326,-0.13333 0.0124,-0.0186 0.0124,-0.0372 0,-0.031 -0.02635,-0.0527 -0.02481,-0.0233 -0.08372,-0.0264 v -0.0496 h 0.617017 v 0.0496 q -0.127124,0.003 -0.21239,0.0388 -0.08372,0.0357 -0.184485,0.12712 l -0.364319,0.33642 0.364319,0.46043 q 0.151928,0.19069 0.204638,0.24185 0.07441,0.0729 0.130225,0.0946 0.03876,0.0155 0.134876,0.0155 V 167 h -0.689881 v -0.0558 q 0.05891,-0.002 0.07906,-0.017 0.0217,-0.0171 0.0217,-0.0465 0,-0.0357 -0.06201,-0.11472 l -0.435632,-0.55656 v 0.47129 q 0,0.13798 0.0186,0.18138 0.02015,0.0434 0.05581,0.062 0.03566,0.0186 0.15503,0.0202 V 167 h -0.722437 v -0.0558 q 0.108521,0 0.162781,-0.0264 0.03256,-0.0171 0.04961,-0.0527 0.02325,-0.0512 0.02325,-0.17673 v -1.29294 q 0,-0.2465 -0.01085,-0.30076 -0.01085,-0.0558 -0.03566,-0.076 -0.02481,-0.0217 -0.06511,-0.0217 -0.03256,0 -0.09767,0.0264 l -0.02636,-0.0543 0.42168,-0.17364 z m 2.233972,0.30851 0.511597,-0.2496 h 0.05116 v 1.77509 q 0,0.17673 0.01395,0.22014 0.0155,0.0434 0.06201,0.0667 0.04651,0.0233 0.189136,0.0264 V 167 h -0.79065 v -0.0574 q 0.148828,-0.003 0.192237,-0.0248 0.04341,-0.0233 0.06046,-0.0605 0.01705,-0.0387 0.01705,-0.22789 v -1.13481 q 0,-0.22945 -0.0155,-0.29456 -0.01085,-0.0496 -0.04031,-0.0729 -0.02791,-0.0233 -0.06821,-0.0233 -0.05736,0 -0.15968,0.0481 z"
         id="text22-4-6-4"
         style="-inkscape-font-specification:'Times New Roman';stroke-width:0.200256"
         aria-label="Stick 1" /><g
         id="g6-8-3-8-8"
         transform="translate(-7.7548093,14.742976)"><path
           style="color:#000000;fill:#000000;-inkscape-stroke:none"
           d="m 35.253906,159.46484 c -1.266427,0 -2.294922,1.02766 -2.294922,2.29297 0,1.26531 1.028495,2.29297 2.294922,2.29297 1.266428,0 2.296876,-1.02766 2.296875,-2.29297 10e-7,-1.26531 -1.030447,-2.29297 -2.296875,-2.29297 z m 0,0.19922 c 1.158311,0 2.095704,0.93678 2.095703,2.09375 10e-7,1.15698 -0.937392,2.0918 -2.095703,2.0918 -1.15831,0 -2.09375,-0.93482 -2.09375,-2.0918 0,-1.15697 0.93544,-2.09375 2.09375,-2.09375 z"
           id="path7-9-55-7-1-4-9-0-6" /><path
           d="m 35.635665,162.11086 h -0.994772 l -0.174322,0.40549 q -0.06442,0.14969 -0.06442,0.22358 0,0.0587 0.05495,0.10422 0.05684,0.0436 0.242535,0.0568 v 0.0701 H 33.89055 v -0.0701 q 0.161059,-0.0284 0.208429,-0.0739 0.09663,-0.0909 0.214113,-0.36948 l 0.903821,-2.1146 h 0.06632 l 0.894347,2.13734 q 0.108004,0.25769 0.195165,0.33538 0.08906,0.0758 0.246325,0.0853 v 0.0701 h -1.013721 v -0.0701 q 0.15348,-0.008 0.206534,-0.0512 0.05495,-0.0436 0.05495,-0.10611 0,-0.0834 -0.07579,-0.26337 z m -0.05305,-0.14022 -0.435805,-1.03835 -0.447174,1.03835 z m 0.850251,-0.52107 -0.10232,-0.56086 q -0.04358,-0.23306 -0.04358,-0.31454 0,-0.12127 0.04926,-0.17621 0.04926,-0.055 0.134531,-0.055 0.08527,0 0.140215,0.0568 0.05684,0.055 0.05684,0.1459 0,0.0701 -0.04926,0.34485 l -0.102319,0.55897 z"
           id="text17-2-2-5-06-4-2-5"
           style="-inkscape-font-specification:'Times New Roman';stroke-width:0.200256"
           aria-label="A'" /></g><g
         id="g3-2-0-0-7"
         transform="translate(-8.7593705,15.760115)"><path
           style="color:#000000;fill:#000000;-inkscape-stroke:none"
           d="m 40.259766,154.4375 c -1.264358,0 -2.291017,1.03422 -2.291016,2.30664 -10e-7,1.27242 1.026658,2.30664 2.291016,2.30664 1.264357,0 2.291016,-1.03422 2.291015,-2.30664 10e-7,-1.27242 -1.026658,-2.30664 -2.291015,-2.30664 z m 0,0.19922 c 1.15534,0 2.089844,0.94244 2.089843,2.10742 10e-7,1.16498 -0.934503,2.10547 -2.089843,2.10547 -1.155341,0 -2.091798,-0.94049 -2.091797,-2.10547 -10e-7,-1.16498 0.936456,-2.10742 2.091797,-2.10742 z"
           id="path7-9-5-4-1-5-6-3-0" /><path
           d="m 40.831605,156.71683 q 0.267167,0.0568 0.399804,0.1819 0.183796,0.17432 0.183796,0.42633 0,0.19137 -0.121268,0.36759 -0.121267,0.17432 -0.333485,0.2558 -0.210324,0.0796 -0.644234,0.0796 h -1.212675 v -0.0701 h 0.09663 q 0.161059,0 0.231166,-0.10232 0.04358,-0.0663 0.04358,-0.28232 v -1.65985 q 0,-0.23875 -0.05495,-0.30128 -0.0739,-0.0834 -0.219797,-0.0834 h -0.09663 v -0.0701 h 1.110356 q 0.310748,0 0.498333,0.0455 0.284221,0.0682 0.43391,0.24254 0.14969,0.17242 0.14969,0.3979 0,0.19327 -0.117478,0.34675 -0.117478,0.15159 -0.346749,0.22549 z m -0.992878,-0.10232 q 0.07011,0.0133 0.159164,0.0208 0.09095,0.006 0.198954,0.006 0.276642,0 0.414963,-0.0587 0.140215,-0.0606 0.214113,-0.18379 0.0739,-0.12316 0.0739,-0.26906 0,-0.22549 -0.183796,-0.38465 -0.183796,-0.15916 -0.53623,-0.15916 -0.18948,0 -0.341065,0.0417 z m 0,1.22783 q 0.219798,0.0512 0.433911,0.0512 0.342959,0 0.522966,-0.15348 0.180006,-0.15537 0.180006,-0.38275 0,-0.14969 -0.08148,-0.28801 -0.08148,-0.13832 -0.265272,-0.2179 -0.183796,-0.0796 -0.454753,-0.0796 -0.117478,0 -0.20085,0.004 -0.08337,0.004 -0.134531,0.0133 z m 1.823492,-1.33584 -0.10232,-0.56086 q -0.04358,-0.23306 -0.04358,-0.31454 0,-0.12126 0.04926,-0.17621 0.04926,-0.055 0.134531,-0.055 0.08527,0 0.140215,0.0568 0.05684,0.0549 0.05684,0.1459 0,0.0701 -0.04926,0.34485 l -0.10232,0.55897 z"
           id="text18-1-5-8-8-4-1-7"
           style="-inkscape-font-specification:'Times New Roman';stroke-width:0.200256"
           aria-label="B'" /></g><g
         id="g7-1-4-7-3"
         transform="translate(-10.999999,23.999995)"><path
           d="m 34.614788,143.06406 v -0.0701 h 0.09664 q 0.162953,0 0.231166,-0.10422 0.04169,-0.0625 0.04169,-0.28043 v -1.65985 q 0,-0.24064 -0.05305,-0.30127 -0.0739,-0.0834 -0.219797,-0.0834 h -0.09664 v -0.0701 h 1.045932 q 0.57602,0 0.8754,0.13074 0.301274,0.13074 0.483175,0.43581 0.183796,0.30506 0.183796,0.70487 0,0.53622 -0.325907,0.89624 -0.365697,0.4017 -1.114145,0.4017 z m 0.733289,-0.18569 q 0.24064,0.0531 0.403593,0.0531 0.439595,0 0.7295,-0.30885 0.289905,-0.30886 0.289905,-0.83751 0,-0.53244 -0.289905,-0.8394 -0.289905,-0.30695 -0.744658,-0.30695 -0.170532,0 -0.388435,0.0549 z m 2.302188,-1.33584 -0.10232,-0.56086 q -0.04358,-0.23306 -0.04358,-0.31454 0,-0.12127 0.04926,-0.17622 0.04926,-0.055 0.134531,-0.055 0.08527,0 0.140215,0.0568 0.05685,0.055 0.05685,0.1459 0,0.0701 -0.04926,0.34485 l -0.10232,0.55897 z"
           id="text12-7-8-9-1-7-4"
           style="-inkscape-font-specification:'Times New Roman';stroke-width:0.200256"
           aria-label="D'" /><path
           style="color:#000000;fill:#000000;-inkscape-stroke:none"
           d="m 32.900391,139.90039 v 3.69922 h 6.699218 v -3.69922 z m 0.199218,0.19922 h 6.300782 v 3.30078 h -6.300782 z"
           id="rect7-01-59-5-4-3-3-2" /></g><g
         id="g10-9-7-4-5"
         transform="translate(33.000001,19.499995)"><path
           d="m 25.455848,147.53468 v -0.0701 h 0.09663 q 0.162954,0 0.231167,-0.10422 0.04168,-0.0625 0.04168,-0.28043 v -1.65985 q 0,-0.24064 -0.05305,-0.30127 -0.0739,-0.0834 -0.219798,-0.0834 h -0.09663 v -0.0701 h 1.045933 q 0.57602,0 0.875399,0.13074 0.301274,0.13074 0.483175,0.4358 0.183796,0.30507 0.183796,0.70487 0,0.53623 -0.325906,0.89624 -0.365697,0.4017 -1.114145,0.4017 z m 0.73329,-0.18569 q 0.24064,0.0531 0.403593,0.0531 0.439595,0 0.7295,-0.30886 0.289905,-0.30885 0.289905,-0.8375 0,-0.53244 -0.289905,-0.8394 -0.289905,-0.30696 -0.744658,-0.30696 -0.170533,0 -0.388435,0.0549 z"
           id="text11-9-8-9-1-8-9"
           style="-inkscape-font-specification:'Times New Roman';stroke-width:0.200256"
           aria-label="D" /><path
           style="color:#000000;fill:#000000;-inkscape-stroke:none"
           d="m 23.400391,144.40039 v 3.69922 h 6.699218 v -3.69922 z m 0.199218,0.19922 h 6.300782 v 3.30078 h -6.300782 z"
           id="rect7-01-59-7-0-3-5-5" /></g><g
         id="g6-0-1-7-1-7"
         transform="translate(13.245191,12.242976)"><path
           style="color:#000000;fill:#000000;-inkscape-stroke:none"
           d="m 35.253906,159.46484 c -1.266427,0 -2.294922,1.02766 -2.294922,2.29297 0,1.26531 1.028495,2.29297 2.294922,2.29297 1.266428,0 2.296876,-1.02766 2.296875,-2.29297 10e-7,-1.26531 -1.030447,-2.29297 -2.296875,-2.29297 z m 0,0.19922 c 1.158311,0 2.095704,0.93678 2.095703,2.09375 10e-7,1.15698 -0.937392,2.0918 -2.095703,2.0918 -1.15831,0 -2.09375,-0.93482 -2.09375,-2.0918 0,-1.15697 0.93544,-2.09375 2.09375,-2.09375 z"
           id="path7-9-55-7-1-2-9-8-8-2" /><path
           d="m 35.611293,162.11087 h -0.994772 l -0.174322,0.40549 q -0.06442,0.14969 -0.06442,0.22359 0,0.0587 0.05495,0.10421 0.05684,0.0436 0.242535,0.0569 v 0.0701 h -0.809082 v -0.0701 q 0.161058,-0.0284 0.208429,-0.0739 0.09663,-0.0909 0.214113,-0.36949 l 0.903821,-2.1146 h 0.06632 l 0.894348,2.13734 q 0.108004,0.25769 0.195165,0.33538 0.08906,0.0758 0.246325,0.0853 v 0.0701 h -1.013721 v -0.0701 q 0.153479,-0.008 0.206534,-0.0512 0.05495,-0.0436 0.05495,-0.10611 0,-0.0834 -0.07579,-0.26338 z m -0.05305,-0.14021 -0.435805,-1.03835 -0.447174,1.03835 z m 0.85025,-0.52107 -0.102319,-0.56087 q -0.04358,-0.23306 -0.04358,-0.31453 0,-0.12127 0.04926,-0.17622 0.04927,-0.0549 0.134532,-0.0549 0.08527,0 0.140215,0.0568 0.05684,0.0549 0.05684,0.1459 0,0.0701 -0.04926,0.34485 l -0.102319,0.55897 z"
           id="text17-2-2-5-7-2-9-5-0"
           style="-inkscape-font-specification:'Times New Roman';stroke-width:0.200256"
           aria-label="A'" /></g><g
         id="g3-2-0-2-9-8"
         transform="translate(13.740629,15.756648)"><path
           style="color:#000000;fill:#000000;-inkscape-stroke:none"
           d="m 40.259766,154.4375 c -1.264358,0 -2.291017,1.03422 -2.291016,2.30664 -10e-7,1.27242 1.026658,2.30664 2.291016,2.30664 1.264357,0 2.291016,-1.03422 2.291015,-2.30664 10e-7,-1.27242 -1.026658,-2.30664 -2.291015,-2.30664 z m 0,0.19922 c 1.15534,0 2.089844,0.94244 2.089843,2.10742 10e-7,1.16498 -0.934503,2.10547 -2.089843,2.10547 -1.155341,0 -2.091798,-0.94049 -2.091797,-2.10547 -10e-7,-1.16498 0.936456,-2.10742 2.091797,-2.10742 z"
           id="path7-9-5-4-1-5-6-4-7-4" /><path
           d="m 40.831605,156.71683 q 0.267167,0.0568 0.399804,0.1819 0.183796,0.17432 0.183796,0.42633 0,0.19137 -0.121268,0.36759 -0.121267,0.17432 -0.333485,0.2558 -0.210324,0.0796 -0.644234,0.0796 h -1.212675 v -0.0701 h 0.09663 q 0.161059,0 0.231166,-0.10232 0.04358,-0.0663 0.04358,-0.28232 v -1.65985 q 0,-0.23875 -0.05495,-0.30128 -0.0739,-0.0834 -0.219797,-0.0834 h -0.09663 v -0.0701 h 1.110356 q 0.310748,0 0.498333,0.0455 0.284221,0.0682 0.43391,0.24254 0.14969,0.17242 0.14969,0.3979 0,0.19327 -0.117478,0.34675 -0.117478,0.15159 -0.346749,0.22549 z m -0.992878,-0.10232 q 0.07011,0.0133 0.159164,0.0208 0.09095,0.006 0.198954,0.006 0.276642,0 0.414963,-0.0587 0.140215,-0.0606 0.214113,-0.18379 0.0739,-0.12316 0.0739,-0.26906 0,-0.22549 -0.183796,-0.38465 -0.183796,-0.15916 -0.53623,-0.15916 -0.18948,0 -0.341065,0.0417 z m 0,1.22783 q 0.219798,0.0512 0.433911,0.0512 0.342959,0 0.522966,-0.15348 0.180006,-0.15537 0.180006,-0.38275 0,-0.14969 -0.08148,-0.28801 -0.08148,-0.13832 -0.265272,-0.2179 -0.183796,-0.0796 -0.454753,-0.0796 -0.117478,0 -0.20085,0.004 -0.08337,0.004 -0.134531,0.0133 z m 1.823492,-1.33584 -0.10232,-0.56086 q -0.04358,-0.23306 -0.04358,-0.31454 0,-0.12126 0.04926,-0.17621 0.04926,-0.055 0.134531,-0.055 0.08527,0 0.140215,0.0568 0.05684,0.0549 0.05684,0.1459 0,0.0701 -0.04926,0.34485 l -0.10232,0.55897 z"
           id="text18-1-5-8-8-4-6-3-3"
           style="-inkscape-font-specification:'Times New Roman';stroke-width:0.200256"
           aria-label="B'" /></g><g
         id="g5-0-1-0"
         transform="translate(30.254306,19.752085)"><path
           style="color:#000000;fill:#000000;-inkscape-stroke:none"
           d="m 30.246094,154.44531 c -1.27146,0 -2.304686,1.03239 -2.304688,2.30274 2e-6,1.27034 1.033228,2.30273 2.304688,2.30273 1.27146,0 2.304685,-1.03239 2.304687,-2.30273 -2e-6,-1.27035 -1.033227,-2.30274 -2.304687,-2.30274 z m 0,0.20117 c 1.163342,0 2.103513,0.93955 2.103515,2.10157 -2e-6,1.16201 -0.940173,2.10156 -2.103515,2.10156 -1.163343,0 -2.105467,-0.93955 -2.105469,-2.10156 2e-6,-1.16202 0.942126,-2.10157 2.105469,-2.10157 z"
           id="path7-9-0-6-5-1-6" /><path
           d="m 31.284996,155.4045 0.05874,0.8735 h -0.05874 q -0.117478,-0.39222 -0.33538,-0.56465 -0.217903,-0.17243 -0.522967,-0.17243 -0.255798,0 -0.462332,0.13075 -0.206534,0.12884 -0.325906,0.41306 -0.117478,0.28422 -0.117478,0.70677 0,0.34864 0.111793,0.60444 0.111794,0.2558 0.335381,0.39222 0.225482,0.13643 0.513492,0.13643 0.250114,0 0.441489,-0.10611 0.191376,-0.108 0.420647,-0.42633 l 0.05874,0.0379 q -0.19327,0.34296 -0.450964,0.50213 -0.257693,0.15916 -0.612022,0.15916 -0.638549,0 -0.989088,-0.4737 -0.261483,-0.35243 -0.261483,-0.82992 0,-0.38465 0.172428,-0.70677 0.172427,-0.32211 0.473701,-0.49833 0.303169,-0.17811 0.661287,-0.17811 0.278536,0 0.549493,0.13642 0.07958,0.0417 0.113688,0.0417 0.05116,0 0.08906,-0.036 0.04927,-0.0512 0.07011,-0.14211 z"
           id="text14-0-4-7-7-4-2"
           style="-inkscape-font-specification:'Times New Roman';stroke-width:0.200256"
           aria-label="C" /></g><g
         id="g9-3-0-9-6"
         transform="translate(-1.5000009,49.499995)"><path
           d="m 27.45487,140.90659 0.05874,0.8735 h -0.05874 q -0.117478,-0.39222 -0.33538,-0.56465 -0.217903,-0.17242 -0.522966,-0.17242 -0.255799,0 -0.462333,0.13074 -0.206533,0.12884 -0.325906,0.41306 -0.117478,0.28422 -0.117478,0.70677 0,0.34864 0.111794,0.60444 0.111793,0.2558 0.33538,0.39222 0.225482,0.13643 0.513492,0.13643 0.250114,0 0.441489,-0.10611 0.191376,-0.108 0.420647,-0.42633 l 0.05874,0.0379 q -0.19327,0.34295 -0.450963,0.50212 -0.257694,0.15916 -0.612022,0.15916 -0.63855,0 -0.989088,-0.4737 -0.261483,-0.35243 -0.261483,-0.82992 0,-0.38465 0.172427,-0.70677 0.172427,-0.32211 0.473701,-0.49833 0.303169,-0.17811 0.661287,-0.17811 0.278536,0 0.549493,0.13643 0.07958,0.0417 0.113688,0.0417 0.05116,0 0.08906,-0.036 0.04927,-0.0512 0.07011,-0.14211 z m 0.551388,1.10657 -0.102319,-0.56087 q -0.04358,-0.23306 -0.04358,-0.31453 0,-0.12127 0.04926,-0.17622 0.04927,-0.055 0.134531,-0.055 0.08527,0 0.140216,0.0568 0.05684,0.055 0.05684,0.1459 0,0.0701 -0.04926,0.34486 l -0.102319,0.55897 z"
           id="text11-5-7-2-1-5-4-3"
           style="-inkscape-font-specification:'Times New Roman';stroke-width:0.200256"
           aria-label="C'" /><path
           style="color:#000000;fill:#000000;-inkscape-stroke:none"
           d="m 23.400391,140.40039 v 3.69922 h 6.699218 v -3.69922 z m 0.199218,0.19922 h 6.300782 v 3.30078 h -6.300782 z"
           id="rect7-01-59-8-3-3-4-1" /></g><path
         d="m 12.047742,186.84974 v 0.72709 h -0.05736 q -0.0279,-0.20929 -0.100769,-0.33331 -0.07131,-0.12403 -0.204639,-0.19689 -0.133325,-0.0729 -0.275952,-0.0729 -0.16123,0 -0.26665,0.0992 -0.10542,0.0977 -0.10542,0.22324 0,0.0961 0.06666,0.17518 0.09612,0.11627 0.457337,0.31006 0.294555,0.15813 0.401526,0.2434 0.10852,0.0837 0.165881,0.19843 0.05891,0.11472 0.05891,0.2403 0,0.23874 -0.186035,0.41238 -0.184485,0.17208 -0.47594,0.17208 -0.09147,0 -0.172082,-0.0139 -0.04806,-0.008 -0.199988,-0.0558 -0.150379,-0.0496 -0.190686,-0.0496 -0.03876,0 -0.06201,0.0233 -0.0217,0.0233 -0.03256,0.0961 h -0.05736 v -0.72089 h 0.05736 q 0.04031,0.22635 0.10852,0.33952 0.06821,0.11162 0.20774,0.18603 0.141076,0.0744 0.308508,0.0744 0.193787,0 0.305408,-0.10232 0.113171,-0.10232 0.113171,-0.24185 0,-0.0775 -0.04341,-0.15658 -0.04186,-0.0791 -0.131775,-0.14728 -0.06046,-0.0465 -0.330212,-0.19688 -0.269751,-0.15193 -0.384473,-0.24185 -0.113172,-0.0899 -0.172083,-0.19844 -0.05891,-0.10852 -0.05891,-0.23874 0,-0.22634 0.173633,-0.38913 0.173633,-0.16433 0.441834,-0.16433 0.167431,0 0.355017,0.0822 0.08682,0.0388 0.122473,0.0388 0.04031,0 0.06511,-0.0233 0.02636,-0.0248 0.04186,-0.0977 z m 0.821655,0.26355 v 0.46664 h 0.331763 v 0.10852 h -0.331763 v 0.92088 q 0,0.13797 0.03876,0.18603 0.04031,0.0481 0.10232,0.0481 0.05116,0 0.09922,-0.031 0.04806,-0.0325 0.07441,-0.0946 h 0.06046 q -0.05426,0.15193 -0.153479,0.22944 -0.09922,0.076 -0.204639,0.076 -0.07131,0 -0.139526,-0.0387 -0.06821,-0.0403 -0.100769,-0.11317 -0.03256,-0.0744 -0.03256,-0.2279 v -0.95498 h -0.224793 v -0.0512 q 0.08527,-0.0341 0.173633,-0.11472 0.08992,-0.0822 0.15968,-0.19379 0.03566,-0.0589 0.09922,-0.21549 z m 0.830957,-0.31781 q 0.06511,0 0.110071,0.0465 0.04651,0.045 0.04651,0.11007 0,0.0651 -0.04651,0.11162 -0.04496,0.0465 -0.110071,0.0465 -0.06511,0 -0.111621,-0.0465 -0.04651,-0.0465 -0.04651,-0.11162 0,-0.0651 0.04496,-0.11007 0.04651,-0.0465 0.113171,-0.0465 z m 0.128674,0.74259 v 1.14102 q 0,0.13332 0.0186,0.17828 0.02015,0.0434 0.05736,0.0651 0.03876,0.0217 0.139526,0.0217 V 189 h -0.68988 v -0.0558 q 0.103869,0 0.139526,-0.0202 0.03566,-0.0202 0.05581,-0.0667 0.0217,-0.0465 0.0217,-0.17828 v -0.54725 q 0,-0.231 -0.01395,-0.29921 -0.01085,-0.0496 -0.03411,-0.0682 -0.02326,-0.0202 -0.06356,-0.0202 -0.04341,0 -0.10542,0.0233 l -0.0217,-0.0558 0.427881,-0.17364 z m 1.598352,0.92243 q -0.05736,0.2806 -0.224792,0.43253 -0.167432,0.15038 -0.37052,0.15038 -0.241846,0 -0.42168,-0.20309 -0.179834,-0.20309 -0.179834,-0.5488 0,-0.33487 0.198438,-0.54416 0.199987,-0.20929 0.47904,-0.20929 0.20929,0 0.344165,0.11162 0.134876,0.11008 0.134876,0.22945 0,0.0589 -0.03876,0.0961 -0.03721,0.0357 -0.10542,0.0357 -0.09147,0 -0.137976,-0.0589 -0.02636,-0.0325 -0.03566,-0.12402 -0.0078,-0.0915 -0.06201,-0.13953 -0.05426,-0.0465 -0.150379,-0.0465 -0.155029,0 -0.249597,0.11473 -0.125573,0.15192 -0.125573,0.40152 0,0.25425 0.124023,0.44959 0.125574,0.19378 0.337964,0.19378 0.151929,0 0.272851,-0.10387 0.08527,-0.0713 0.165882,-0.2589 z m 0.623218,-1.66502 v 1.41232 l 0.361218,-0.32866 q 0.114722,-0.10542 0.133326,-0.13333 0.0124,-0.0186 0.0124,-0.0372 0,-0.031 -0.02635,-0.0527 -0.02481,-0.0233 -0.08372,-0.0264 v -0.0496 h 0.617017 v 0.0496 q -0.127124,0.003 -0.21239,0.0388 -0.08372,0.0357 -0.184485,0.12712 l -0.364319,0.33642 0.364319,0.46043 q 0.151928,0.19069 0.204638,0.24185 0.07441,0.0729 0.130225,0.0946 0.03876,0.0155 0.134876,0.0155 V 189 h -0.689881 v -0.0558 q 0.05891,-0.002 0.07906,-0.017 0.0217,-0.0171 0.0217,-0.0465 0,-0.0357 -0.06201,-0.11472 l -0.435632,-0.55656 v 0.47129 q 0,0.13798 0.0186,0.18138 0.02015,0.0434 0.05581,0.062 0.03566,0.0186 0.15503,0.0202 V 189 h -0.722437 v -0.0558 q 0.108521,0 0.162781,-0.0264 0.03256,-0.0171 0.04961,-0.0527 0.02326,-0.0512 0.02326,-0.17673 v -1.29294 q 0,-0.2465 -0.01085,-0.30076 -0.01085,-0.0558 -0.03566,-0.076 -0.02481,-0.0217 -0.06511,-0.0217 -0.03256,0 -0.09767,0.0264 l -0.02635,-0.0543 0.42168,-0.17364 z m 3.317627,1.79989 L 19.220947,189 h -1.240234 v -0.0574 q 0.547253,-0.4992 0.770495,-0.81545 0.223243,-0.31626 0.223243,-0.57826 0,-0.19999 -0.122474,-0.32867 -0.122473,-0.12867 -0.293005,-0.12867 -0.155029,0 -0.279053,0.0915 -0.122473,0.0899 -0.181384,0.2651 h -0.05736 q 0.03876,-0.28681 0.198438,-0.44029 0.16123,-0.15348 0.401526,-0.15348 0.255798,0 0.42633,0.16434 0.172083,0.16433 0.172083,0.38757 0,0.15968 -0.07441,0.31936 -0.114722,0.25115 -0.372071,0.53175 -0.386023,0.42168 -0.482141,0.5085 h 0.548804 q 0.167432,0 0.234094,-0.0124 0.06821,-0.0124 0.122473,-0.0496 0.05426,-0.0387 0.09457,-0.10852 z"
         id="text22-4-3-6-7"
         style="-inkscape-font-specification:'Times New Roman';stroke-width:0.200256"
         aria-label="Stick 2" /><g
         id="g10-7-2-4"
         transform="translate(-1.4999995,41.499995)"><path
           d="m 26.841901,146.70382 h -0.994772 l -0.174322,0.40548 q -0.06442,0.14969 -0.06442,0.22359 0,0.0587 0.05495,0.10421 0.05684,0.0436 0.242535,0.0569 v 0.0701 H 25.09679 v -0.0701 q 0.161058,-0.0284 0.208429,-0.0739 0.09663,-0.0909 0.214113,-0.36949 l 0.903821,-2.1146 h 0.06632 l 0.894348,2.13734 q 0.108004,0.2577 0.195165,0.33538 0.08906,0.0758 0.246325,0.0853 v 0.0701 H 26.81159 v -0.0701 q 0.153479,-0.008 0.206534,-0.0512 0.05495,-0.0436 0.05495,-0.10611 0,-0.0834 -0.07579,-0.26338 z m -0.05305,-0.14022 -0.435805,-1.03835 -0.447174,1.03835 z m 1.379417,-0.52107 -0.102319,-0.56086 q -0.04358,-0.23306 -0.04358,-0.31454 0,-0.12127 0.04927,-0.17622 0.04926,-0.055 0.134532,-0.055 0.08527,0 0.140215,0.0568 0.05684,0.055 0.05684,0.1459 0,0.0701 -0.04927,0.34485 l -0.102319,0.55897 z"
           id="text11-9-8-97-9-6"
           style="-inkscape-font-specification:'Times New Roman';stroke-width:0.200256"
           aria-label="A'" /><path
           style="color:#000000;fill:#000000;-inkscape-stroke:none"
           d="m 23.400391,144.40039 v 3.69922 h 6.699218 v -3.69922 z m 0.199218,0.19922 h 6.300782 v 3.30078 h -6.300782 z"
           id="rect7-01-59-7-02-0-4" /></g><g
         id="g8-5-7-1"
         transform="translate(1.5000008,41.499995)"><path
           style="color:#000000;fill:#000000;-inkscape-stroke:none"
           d="m 32.900391,144.40039 v 3.69922 h 6.699218 v -3.69922 z m 0.199218,0.19922 h 6.300782 v 3.30078 h -6.300782 z"
           id="rect7-01-59-0-12-8" /><path
           d="m 36.448956,146.25285 q 0.267168,0.0568 0.399804,0.1819 0.183796,0.17432 0.183796,0.42633 0,0.19138 -0.121267,0.3676 -0.121268,0.17432 -0.333486,0.25579 -0.210323,0.0796 -0.644233,0.0796 h -1.212675 v -0.0701 h 0.09663 q 0.161058,0 0.231166,-0.10232 0.04358,-0.0663 0.04358,-0.28233 v -1.65985 q 0,-0.23874 -0.05495,-0.30127 -0.0739,-0.0834 -0.219797,-0.0834 h -0.09663 v -0.0701 h 1.110355 q 0.310748,0 0.498334,0.0455 0.28422,0.0682 0.43391,0.24253 0.14969,0.17243 0.14969,0.39791 0,0.19327 -0.117478,0.34675 -0.117478,0.15158 -0.34675,0.22548 z m -0.992877,-0.10232 q 0.07011,0.0133 0.159163,0.0208 0.09095,0.006 0.198955,0.006 0.276641,0 0.414962,-0.0587 0.140216,-0.0606 0.214113,-0.1838 0.0739,-0.12316 0.0739,-0.26906 0,-0.22548 -0.183796,-0.38464 -0.183796,-0.15917 -0.536229,-0.15917 -0.189481,0 -0.341065,0.0417 z m 0,1.22784 q 0.219797,0.0512 0.43391,0.0512 0.34296,0 0.522966,-0.15348 0.180007,-0.15538 0.180007,-0.38275 0,-0.14969 -0.08148,-0.28801 -0.08148,-0.13833 -0.265273,-0.21791 -0.183796,-0.0796 -0.454753,-0.0796 -0.117478,0 -0.200849,0.004 -0.08337,0.004 -0.134531,0.0133 z m 2.088074,-1.33584 -0.102319,-0.56086 q -0.04358,-0.23306 -0.04358,-0.31454 0,-0.12127 0.04926,-0.17622 0.04926,-0.055 0.134532,-0.055 0.08527,0 0.140215,0.0568 0.05684,0.055 0.05684,0.1459 0,0.0701 -0.04926,0.34485 l -0.102319,0.55897 z"
           id="text13-0-7-0-71-6"
           style="-inkscape-font-specification:'Times New Roman';stroke-width:0.200256"
           aria-label="B'" /></g><g
         id="g7-4-4-1"
         transform="translate(1.5000008,49.999995)"><path
           d="m 34.614788,143.06406 v -0.0701 h 0.09664 q 0.162953,0 0.231166,-0.10422 0.04169,-0.0625 0.04169,-0.28043 v -1.65985 q 0,-0.24064 -0.05305,-0.30127 -0.0739,-0.0834 -0.219797,-0.0834 h -0.09664 v -0.0701 h 1.045932 q 0.57602,0 0.8754,0.13074 0.301274,0.13074 0.483175,0.43581 0.183796,0.30506 0.183796,0.70487 0,0.53622 -0.325907,0.89624 -0.365697,0.4017 -1.114145,0.4017 z m 0.733289,-0.18569 q 0.24064,0.0531 0.403593,0.0531 0.439595,0 0.7295,-0.30885 0.289905,-0.30886 0.289905,-0.83751 0,-0.53244 -0.289905,-0.8394 -0.289905,-0.30695 -0.744658,-0.30695 -0.170532,0 -0.388435,0.0549 z m 2.302188,-1.33584 -0.10232,-0.56086 q -0.04358,-0.23306 -0.04358,-0.31454 0,-0.12127 0.04926,-0.17622 0.04926,-0.055 0.134531,-0.055 0.08527,0 0.140215,0.0568 0.05685,0.055 0.05685,0.1459 0,0.0701 -0.04926,0.34485 l -0.10232,0.55897 z"
           id="text12-7-8-7-5-3"
           style="-inkscape-font-specification:'Times New Roman';stroke-width:0.200256"
           aria-label="D'" /><path
           style="color:#000000;fill:#000000;-inkscape-stroke:none"
           d="m 32.900391,139.90039 v 3.69922 h 6.699218 v -3.69922 z m 0.199218,0.19922 h 6.300782 v 3.30078 h -6.300782 z"
           id="rect7-01-59-5-7-1-6" /></g><g
         id="g6-8-8-3-8-9"
         transform="translate(-7.7548097,36.742976)"><path
           style="color:#000000;fill:#000000;-inkscape-stroke:none"
           d="m 35.253906,159.46484 c -1.266427,0 -2.294922,1.02766 -2.294922,2.29297 0,1.26531 1.028495,2.29297 2.294922,2.29297 1.266428,0 2.296876,-1.02766 2.296875,-2.29297 10e-7,-1.26531 -1.030447,-2.29297 -2.296875,-2.29297 z m 0,0.19922 c 1.158311,0 2.095704,0.93678 2.095703,2.09375 10e-7,1.15698 -0.937392,2.0918 -2.095703,2.0918 -1.15831,0 -2.09375,-0.93482 -2.09375,-2.0918 0,-1.15697 0.93544,-2.09375 2.09375,-2.09375 z"
           id="path7-9-55-7-1-4-0-6-6-6" /><path
           d="m 35.635665,162.11086 h -0.994772 l -0.174322,0.40549 q -0.06442,0.14969 -0.06442,0.22358 0,0.0587 0.05495,0.10422 0.05684,0.0436 0.242535,0.0568 v 0.0701 H 33.89055 v -0.0701 q 0.161059,-0.0284 0.208429,-0.0739 0.09663,-0.0909 0.214113,-0.36948 l 0.903821,-2.1146 h 0.06632 l 0.894347,2.13734 q 0.108004,0.25769 0.195165,0.33538 0.08906,0.0758 0.246325,0.0853 v 0.0701 h -1.013721 v -0.0701 q 0.15348,-0.008 0.206534,-0.0512 0.05495,-0.0436 0.05495,-0.10611 0,-0.0834 -0.07579,-0.26337 z m -0.05305,-0.14022 -0.435805,-1.03835 -0.447174,1.03835 z"
           id="text17-2-2-5-06-3-7-0-6"
           style="-inkscape-font-specification:'Times New Roman';stroke-width:0.200256"
           aria-label="A" /></g><g
         id="g3-2-1-7-7-1"
         transform="translate(-8.759372,37.756648)"><path
           style="color:#000000;fill:#000000;-inkscape-stroke:none"
           d="m 40.259766,154.4375 c -1.264358,0 -2.291017,1.03422 -2.291016,2.30664 -10e-7,1.27242 1.026658,2.30664 2.291016,2.30664 1.264357,0 2.291016,-1.03422 2.291015,-2.30664 10e-7,-1.27242 -1.026658,-2.30664 -2.291015,-2.30664 z m 0,0.19922 c 1.15534,0 2.089844,0.94244 2.089843,2.10742 10e-7,1.16498 -0.934503,2.10547 -2.089843,2.10547 -1.155341,0 -2.091798,-0.94049 -2.091797,-2.10547 -10e-7,-1.16498 0.936456,-2.10742 2.091797,-2.10742 z"
           id="path7-9-5-4-1-5-4-3-8-2" /><path
           d="m 40.831605,156.71683 q 0.267167,0.0568 0.399804,0.1819 0.183796,0.17432 0.183796,0.42633 0,0.19137 -0.121268,0.36759 -0.121267,0.17432 -0.333485,0.2558 -0.210324,0.0796 -0.644234,0.0796 h -1.212675 v -0.0701 h 0.09663 q 0.161059,0 0.231166,-0.10232 0.04358,-0.0663 0.04358,-0.28232 v -1.65985 q 0,-0.23875 -0.05495,-0.30128 -0.0739,-0.0834 -0.219797,-0.0834 h -0.09663 v -0.0701 h 1.110356 q 0.310748,0 0.498333,0.0455 0.284221,0.0682 0.43391,0.24254 0.14969,0.17242 0.14969,0.3979 0,0.19327 -0.117478,0.34675 -0.117478,0.15159 -0.346749,0.22549 z m -0.992878,-0.10232 q 0.07011,0.0133 0.159164,0.0208 0.09095,0.006 0.198954,0.006 0.276642,0 0.414963,-0.0587 0.140215,-0.0606 0.214113,-0.18379 0.0739,-0.12316 0.0739,-0.26906 0,-0.22549 -0.183796,-0.38465 -0.183796,-0.15916 -0.53623,-0.15916 -0.18948,0 -0.341065,0.0417 z m 0,1.22783 q 0.219798,0.0512 0.433911,0.0512 0.342959,0 0.522966,-0.15348 0.180006,-0.15537 0.180006,-0.38275 0,-0.14969 -0.08148,-0.28801 -0.08148,-0.13832 -0.265272,-0.2179 -0.183796,-0.0796 -0.454753,-0.0796 -0.117478,0 -0.20085,0.004 -0.08337,0.004 -0.134531,0.0133 z"
           id="text18-1-5-8-8-1-0-6-4"
           style="-inkscape-font-specification:'Times New Roman';stroke-width:0.200256"
           aria-label="B" /></g><g
         id="g5-8-0-0"
         transform="translate(1.2543056,45.752085)"><path
           style="color:#000000;fill:#000000;-inkscape-stroke:none"
           d="m 30.246094,154.44531 c -1.27146,0 -2.304686,1.03239 -2.304688,2.30274 2e-6,1.27034 1.033228,2.30273 2.304688,2.30273 1.27146,0 2.304685,-1.03239 2.304687,-2.30273 -2e-6,-1.27035 -1.033227,-2.30274 -2.304687,-2.30274 z m 0,0.20117 c 1.163342,0 2.103513,0.93955 2.103515,2.10157 -2e-6,1.16201 -0.940173,2.10156 -2.103515,2.10156 -1.163343,0 -2.105467,-0.93955 -2.105469,-2.10156 2e-6,-1.16202 0.942126,-2.10157 2.105469,-2.10157 z"
           id="path7-9-0-6-58-2-7" /><path
           d="m 31.284996,155.4045 0.05874,0.8735 h -0.05874 q -0.117478,-0.39222 -0.33538,-0.56465 -0.217903,-0.17243 -0.522967,-0.17243 -0.255798,0 -0.462332,0.13075 -0.206534,0.12884 -0.325906,0.41306 -0.117478,0.28422 -0.117478,0.70677 0,0.34864 0.111793,0.60444 0.111794,0.2558 0.335381,0.39222 0.225482,0.13643 0.513492,0.13643 0.250114,0 0.441489,-0.10611 0.191376,-0.108 0.420647,-0.42633 l 0.05874,0.0379 q -0.19327,0.34296 -0.450964,0.50213 -0.257693,0.15916 -0.612022,0.15916 -0.638549,0 -0.989088,-0.4737 -0.261483,-0.35243 -0.261483,-0.82992 0,-0.38465 0.172428,-0.70677 0.172427,-0.32211 0.473701,-0.49833 0.303169,-0.17811 0.661287,-0.17811 0.278536,0 0.549493,0.13642 0.07958,0.0417 0.113688,0.0417 0.05116,0 0.08906,-0.036 0.04927,-0.0512 0.07011,-0.14211 z"
           id="text14-0-4-7-0-9-9"
           style="-inkscape-font-specification:'Times New Roman';stroke-width:0.200256"
           aria-label="C" /></g><g
         id="g4-3-00-0"
         transform="translate(0.24519049,46.76121)"><path
           style="color:#000000;fill:#000000;-inkscape-stroke:none"
           d="m 35.253906,149.42773 c -1.266876,0 -2.294921,1.03561 -2.294922,2.31055 -5e-6,1.27494 1.028042,2.3125 2.294922,2.3125 1.266881,0 2.29688,-1.03756 2.296875,-2.3125 0,-1.27494 -1.029998,-2.31055 -2.296875,-2.31055 z m 0,0.19922 c 1.15786,0 2.095703,0.94384 2.095703,2.11133 5e-6,1.1675 -0.937839,2.11133 -2.095703,2.11133 -1.157863,0 -2.093754,-0.94383 -2.09375,-2.11133 10e-7,-1.16749 0.93589,-2.11133 2.09375,-2.11133 z"
           id="path7-3-9-4-1-2" /><path
           d="m 33.960659,153.02347 v -0.0701 h 0.09663 q 0.162953,0 0.231166,-0.10421 0.04169,-0.0625 0.04169,-0.28044 v -1.65984 q 0,-0.24064 -0.05306,-0.30128 -0.0739,-0.0834 -0.219797,-0.0834 h -0.09663 v -0.0701 h 1.045932 q 0.57602,0 0.8754,0.13074 0.301274,0.13075 0.483175,0.43581 0.183796,0.30506 0.183796,0.70487 0,0.53623 -0.325907,0.89624 -0.365697,0.4017 -1.114145,0.4017 z m 0.733289,-0.18569 q 0.24064,0.053 0.403593,0.053 0.439595,0 0.7295,-0.30885 0.289905,-0.30885 0.289905,-0.83751 0,-0.53244 -0.289905,-0.83939 -0.289905,-0.30696 -0.744658,-0.30696 -0.170532,0 -0.388435,0.055 z"
           id="text15-4-1-4-4-5-6"
           style="-inkscape-font-specification:'Times New Roman';stroke-width:0.200256"
           aria-label="D" /></g><g
         id="g10-7-6-8-2"
         transform="translate(22.500001,41.499995)"><path
           d="m 26.841901,146.70382 h -0.994772 l -0.174322,0.40548 q -0.06442,0.14969 -0.06442,0.22359 0,0.0587 0.05495,0.10421 0.05684,0.0436 0.242535,0.0569 v 0.0701 H 25.09679 v -0.0701 q 0.161058,-0.0284 0.208429,-0.0739 0.09663,-0.0909 0.214113,-0.36949 l 0.903821,-2.1146 h 0.06632 l 0.894348,2.13734 q 0.108004,0.2577 0.195165,0.33538 0.08906,0.0758 0.246325,0.0853 v 0.0701 H 26.81159 v -0.0701 q 0.153479,-0.008 0.206534,-0.0512 0.05495,-0.0436 0.05495,-0.10611 0,-0.0834 -0.07579,-0.26338 z m -0.05305,-0.14022 -0.435805,-1.03835 -0.447174,1.03835 z m 1.379417,-0.52107 -0.102319,-0.56086 q -0.04358,-0.23306 -0.04358,-0.31454 0,-0.12127 0.04927,-0.17622 0.04926,-0.055 0.134532,-0.055 0.08527,0 0.140215,0.0568 0.05684,0.055 0.05684,0.1459 0,0.0701 -0.04927,0.34485 l -0.102319,0.55897 z"
           id="text11-9-8-97-4-6-2"
           style="-inkscape-font-specification:'Times New Roman';stroke-width:0.200256"
           aria-label="A'" /><path
           style="color:#000000;fill:#000000;-inkscape-stroke:none"
           d="m 23.400391,144.40039 v 3.69922 h 6.699218 v -3.69922 z m 0.199218,0.19922 h 6.300782 v 3.30078 h -6.300782 z"
           id="rect7-01-59-7-02-5-4-8" /></g><g
         id="g8-5-9-1-6"
         transform="translate(23.500001,41.499995)"><path
           style="color:#000000;fill:#000000;-inkscape-stroke:none"
           d="m 32.900391,144.40039 v 3.69922 h 6.699218 v -3.69922 z m 0.199218,0.19922 h 6.300782 v 3.30078 h -6.300782 z"
           id="rect7-01-59-0-1-8-0" /><path
           d="m 36.448956,146.25285 q 0.267168,0.0568 0.399804,0.1819 0.183796,0.17432 0.183796,0.42633 0,0.19138 -0.121267,0.3676 -0.121268,0.17432 -0.333486,0.25579 -0.210323,0.0796 -0.644233,0.0796 h -1.212675 v -0.0701 h 0.09663 q 0.161058,0 0.231166,-0.10232 0.04358,-0.0663 0.04358,-0.28233 v -1.65985 q 0,-0.23874 -0.05495,-0.30127 -0.0739,-0.0834 -0.219797,-0.0834 h -0.09663 v -0.0701 h 1.110355 q 0.310748,0 0.498334,0.0455 0.28422,0.0682 0.43391,0.24253 0.14969,0.17243 0.14969,0.39791 0,0.19327 -0.117478,0.34675 -0.117478,0.15158 -0.34675,0.22548 z m -0.992877,-0.10232 q 0.07011,0.0133 0.159163,0.0208 0.09095,0.006 0.198955,0.006 0.276641,0 0.414962,-0.0587 0.140216,-0.0606 0.214113,-0.1838 0.0739,-0.12316 0.0739,-0.26906 0,-0.22548 -0.183796,-0.38464 -0.183796,-0.15917 -0.536229,-0.15917 -0.189481,0 -0.341065,0.0417 z m 0,1.22784 q 0.219797,0.0512 0.43391,0.0512 0.34296,0 0.522966,-0.15348 0.180007,-0.15538 0.180007,-0.38275 0,-0.14969 -0.08148,-0.28801 -0.08148,-0.13833 -0.265273,-0.21791 -0.183796,-0.0796 -0.454753,-0.0796 -0.117478,0 -0.200849,0.004 -0.08337,0.004 -0.134531,0.0133 z m 2.088074,-1.33584 -0.102319,-0.56086 q -0.04358,-0.23306 -0.04358,-0.31454 0,-0.12127 0.04926,-0.17622 0.04926,-0.055 0.134532,-0.055 0.08527,0 0.140215,0.0568 0.05684,0.055 0.05684,0.1459 0,0.0701 -0.04926,0.34485 l -0.102319,0.55897 z"
           id="text13-0-7-0-7-7-5"
           style="-inkscape-font-specification:'Times New Roman';stroke-width:0.200256"
           aria-label="B'" /></g><g
         id="g3-3-5-8-4-0-2"
         transform="translate(9.254308,44.770329)"><path
           style="color:#000000;fill:#000000;-inkscape-stroke:none"
           d="m 40.259766,154.4375 c -1.264358,0 -2.291017,1.03422 -2.291016,2.30664 -10e-7,1.27242 1.026658,2.30664 2.291016,2.30664 1.264357,0 2.291016,-1.03422 2.291015,-2.30664 10e-7,-1.27242 -1.026658,-2.30664 -2.291015,-2.30664 z m 0,0.19922 c 1.15534,0 2.089844,0.94244 2.089843,2.10742 10e-7,1.16498 -0.934503,2.10547 -2.089843,2.10547 -1.155341,0 -2.091798,-0.94049 -2.091797,-2.10547 -10e-7,-1.16498 0.936456,-2.10742 2.091797,-2.10742 z"
           id="path7-9-5-4-1-7-5-5-3-0-8" /><path
           d="m 40.831605,156.71683 q 0.267167,0.0568 0.399804,0.1819 0.183796,0.17432 0.183796,0.42633 0,0.19137 -0.121268,0.36759 -0.121267,0.17432 -0.333485,0.2558 -0.210324,0.0796 -0.644234,0.0796 h -1.212675 v -0.0701 h 0.09663 q 0.161059,0 0.231166,-0.10232 0.04358,-0.0663 0.04358,-0.28232 v -1.65985 q 0,-0.23875 -0.05495,-0.30128 -0.0739,-0.0834 -0.219797,-0.0834 h -0.09663 v -0.0701 h 1.110356 q 0.310748,0 0.498333,0.0455 0.284221,0.0682 0.43391,0.24254 0.14969,0.17242 0.14969,0.3979 0,0.19327 -0.117478,0.34675 -0.117478,0.15159 -0.346749,0.22549 z m -0.992878,-0.10232 q 0.07011,0.0133 0.159164,0.0208 0.09095,0.006 0.198954,0.006 0.276642,0 0.414963,-0.0587 0.140215,-0.0606 0.214113,-0.18379 0.0739,-0.12316 0.0739,-0.26906 0,-0.22549 -0.183796,-0.38465 -0.183796,-0.15916 -0.53623,-0.15916 -0.18948,0 -0.341065,0.0417 z m 0,1.22783 q 0.219798,0.0512 0.433911,0.0512 0.342959,0 0.522966,-0.15348 0.180006,-0.15537 0.180006,-0.38275 0,-0.14969 -0.08148,-0.28801 -0.08148,-0.13832 -0.265272,-0.2179 -0.183796,-0.0796 -0.454753,-0.0796 -0.117478,0 -0.20085,0.004 -0.08337,0.004 -0.134531,0.0133 z"
           id="text18-1-5-8-9-1-1-5-3-0"
           style="-inkscape-font-specification:'Times New Roman';stroke-width:0.200256"
           aria-label="B" /></g><g
         id="g5-0-1-9-4-6"
         transform="translate(24.754306,43.252086)"><path
           style="color:#000000;fill:#000000;-inkscape-stroke:none"
           d="m 30.246094,154.44531 c -1.27146,0 -2.304686,1.03239 -2.304688,2.30274 2e-6,1.27034 1.033228,2.30273 2.304688,2.30273 1.27146,0 2.304685,-1.03239 2.304687,-2.30273 -2e-6,-1.27035 -1.033227,-2.30274 -2.304687,-2.30274 z m 0,0.20117 c 1.163342,0 2.103513,0.93955 2.103515,2.10157 -2e-6,1.16201 -0.940173,2.10156 -2.103515,2.10156 -1.163343,0 -2.105467,-0.93955 -2.105469,-2.10156 2e-6,-1.16202 0.942126,-2.10157 2.105469,-2.10157 z"
           id="path7-9-0-6-5-6-9-8-9" /><path
           d="m 31.284996,155.4045 0.05874,0.8735 h -0.05874 q -0.117478,-0.39222 -0.33538,-0.56465 -0.217903,-0.17243 -0.522967,-0.17243 -0.255798,0 -0.462332,0.13075 -0.206534,0.12884 -0.325906,0.41306 -0.117478,0.28422 -0.117478,0.70677 0,0.34864 0.111793,0.60444 0.111794,0.2558 0.335381,0.39222 0.225482,0.13643 0.513492,0.13643 0.250114,0 0.441489,-0.10611 0.191376,-0.108 0.420647,-0.42633 l 0.05874,0.0379 q -0.19327,0.34296 -0.450964,0.50213 -0.257693,0.15916 -0.612022,0.15916 -0.638549,0 -0.989088,-0.4737 -0.261483,-0.35243 -0.261483,-0.82992 0,-0.38465 0.172428,-0.70677 0.172427,-0.32211 0.473701,-0.49833 0.303169,-0.17811 0.661287,-0.17811 0.278536,0 0.549493,0.13642 0.07958,0.0417 0.113688,0.0417 0.05116,0 0.08906,-0.036 0.04927,-0.0512 0.07011,-0.14211 z"
           id="text14-0-4-7-7-8-5-9-8"
           style="-inkscape-font-specification:'Times New Roman';stroke-width:0.200256"
           aria-label="C" /></g><g
         id="g4-3-0-7-1"
         transform="translate(25.245191,46.76121)"><path
           style="color:#000000;fill:#000000;-inkscape-stroke:none"
           d="m 35.253906,149.42773 c -1.266876,0 -2.294921,1.03561 -2.294922,2.31055 -5e-6,1.27494 1.028042,2.3125 2.294922,2.3125 1.266881,0 2.29688,-1.03756 2.296875,-2.3125 0,-1.27494 -1.029998,-2.31055 -2.296875,-2.31055 z m 0,0.19922 c 1.15786,0 2.095703,0.94384 2.095703,2.11133 5e-6,1.1675 -0.937839,2.11133 -2.095703,2.11133 -1.157863,0 -2.093754,-0.94383 -2.09375,-2.11133 10e-7,-1.16749 0.93589,-2.11133 2.09375,-2.11133 z"
           id="path7-3-9-4-8-1-2" /><path
           d="m 33.960659,153.02347 v -0.0701 h 0.09663 q 0.162953,0 0.231166,-0.10421 0.04169,-0.0625 0.04169,-0.28044 v -1.65984 q 0,-0.24064 -0.05306,-0.30128 -0.0739,-0.0834 -0.219797,-0.0834 h -0.09663 v -0.0701 h 1.045932 q 0.57602,0 0.8754,0.13074 0.301274,0.13075 0.483175,0.43581 0.183796,0.30506 0.183796,0.70487 0,0.53623 -0.325907,0.89624 -0.365697,0.4017 -1.114145,0.4017 z m 0.733289,-0.18569 q 0.24064,0.053 0.403593,0.053 0.439595,0 0.7295,-0.30885 0.289905,-0.30885 0.289905,-0.83751 0,-0.53244 -0.289905,-0.83939 -0.289905,-0.30696 -0.744658,-0.30696 -0.170532,0 -0.388435,0.055 z"
           id="text15-4-1-4-4-4-97-9"
           style="-inkscape-font-specification:'Times New Roman';stroke-width:0.200256"
           aria-label="D" /></g><g
         id="g4-3-0-8-4-5"
         transform="translate(24.245192,41.273369)"><path
           style="color:#000000;fill:#000000;-inkscape-stroke:none"
           d="m 35.253906,149.42773 c -1.266876,0 -2.294921,1.03561 -2.294922,2.31055 -5e-6,1.27494 1.028042,2.3125 2.294922,2.3125 1.266881,0 2.29688,-1.03756 2.296875,-2.3125 0,-1.27494 -1.029998,-2.31055 -2.296875,-2.31055 z m 0,0.19922 c 1.15786,0 2.095703,0.94384 2.095703,2.11133 5e-6,1.1675 -0.937839,2.11133 -2.095703,2.11133 -1.157863,0 -2.093754,-0.94383 -2.09375,-2.11133 10e-7,-1.16749 0.93589,-2.11133 2.09375,-2.11133 z"
           id="path7-3-9-4-8-4-9-2" /><path
           d="m 33.960659,153.02347 v -0.0701 h 0.09663 q 0.162953,0 0.231166,-0.10421 0.04169,-0.0625 0.04169,-0.28044 v -1.65984 q 0,-0.24064 -0.05306,-0.30128 -0.0739,-0.0834 -0.219797,-0.0834 h -0.09663 v -0.0701 h 1.045932 q 0.57602,0 0.8754,0.13074 0.301274,0.13075 0.483175,0.43581 0.183796,0.30506 0.183796,0.70487 0,0.53623 -0.325907,0.89624 -0.365697,0.4017 -1.114145,0.4017 z m 0.733289,-0.18569 q 0.24064,0.053 0.403593,0.053 0.439595,0 0.7295,-0.30885 0.289905,-0.30885 0.289905,-0.83751 0,-0.53244 -0.289905,-0.83939 -0.289905,-0.30696 -0.744658,-0.30696 -0.170532,0 -0.388435,0.055 z m 1.971459,-1.33584 -0.10232,-0.56086 q -0.04358,-0.23306 -0.04358,-0.31454 0,-0.12127 0.04927,-0.17622 0.04926,-0.0549 0.134531,-0.0549 0.08527,0 0.140215,0.0568 0.05684,0.0549 0.05684,0.1459 0,0.0701 -0.04926,0.34485 l -0.10232,0.55897 z"
           id="text15-4-1-4-4-4-9-4-2"
           style="-inkscape-font-specification:'Times New Roman';stroke-width:0.200256"
           aria-label="D'" /></g><g
         id="g5-6-6-1-4-0-5"
         transform="translate(23.754306,37.752086)"><path
           style="color:#000000;fill:#000000;-inkscape-stroke:none"
           d="m 30.246094,154.44531 c -1.27146,0 -2.304686,1.03239 -2.304688,2.30274 2e-6,1.27034 1.033228,2.30273 2.304688,2.30273 1.27146,0 2.304685,-1.03239 2.304687,-2.30273 -2e-6,-1.27035 -1.033227,-2.30274 -2.304687,-2.30274 z m 0,0.20117 c 1.163342,0 2.103513,0.93955 2.103515,2.10157 -2e-6,1.16201 -0.940173,2.10156 -2.103515,2.10156 -1.163343,0 -2.105467,-0.93955 -2.105469,-2.10156 2e-6,-1.16202 0.942126,-2.10157 2.105469,-2.10157 z"
           id="path7-9-0-6-4-3-5-6-9-3" /><path
           d="m 30.950563,155.4045 0.05874,0.8735 h -0.05874 q -0.117477,-0.39222 -0.33538,-0.56465 -0.217903,-0.17243 -0.522966,-0.17243 -0.255799,0 -0.462332,0.13075 -0.206534,0.12884 -0.325907,0.41306 -0.117478,0.28422 -0.117478,0.70677 0,0.34864 0.111794,0.60444 0.111793,0.2558 0.33538,0.39222 0.225482,0.13643 0.513492,0.13643 0.250114,0 0.44149,-0.10611 0.191375,-0.108 0.420646,-0.42633 l 0.05874,0.0379 q -0.19327,0.34296 -0.450963,0.50213 -0.257694,0.15916 -0.612022,0.15916 -0.638549,0 -0.989088,-0.4737 -0.261483,-0.35243 -0.261483,-0.82992 0,-0.38465 0.172427,-0.70677 0.172427,-0.32211 0.473701,-0.49833 0.303169,-0.17811 0.661287,-0.17811 0.278536,0 0.549493,0.13642 0.07958,0.0417 0.113689,0.0417 0.05116,0 0.08905,-0.036 0.04927,-0.0512 0.07011,-0.14211 z m 0.551388,1.10656 -0.102319,-0.56086 q -0.04358,-0.23306 -0.04358,-0.31454 0,-0.12126 0.04926,-0.17621 0.04927,-0.0549 0.134532,-0.0549 0.08527,0 0.140215,0.0568 0.05684,0.0549 0.05684,0.1459 0,0.0701 -0.04926,0.34486 l -0.102319,0.55896 z"
           id="text14-0-4-7-9-6-7-6-2-3"
           style="-inkscape-font-specification:'Times New Roman';stroke-width:0.200256"
           aria-label="C'" /></g><g
         id="g6-8-8-3-0-2-2"
         transform="translate(13.274358,34.242976)"><path
           style="color:#000000;fill:#000000;-inkscape-stroke:none"
           d="m 35.253906,159.46484 c -1.266427,0 -2.294922,1.02766 -2.294922,2.29297 0,1.26531 1.028495,2.29297 2.294922,2.29297 1.266428,0 2.296876,-1.02766 2.296875,-2.29297 10e-7,-1.26531 -1.030447,-2.29297 -2.296875,-2.29297 z m 0,0.19922 c 1.158311,0 2.095704,0.93678 2.095703,2.09375 10e-7,1.15698 -0.937392,2.0918 -2.095703,2.0918 -1.15831,0 -2.09375,-0.93482 -2.09375,-2.0918 0,-1.15697 0.93544,-2.09375 2.09375,-2.09375 z"
           id="path7-9-55-7-1-4-0-6-2-5-1" /><path
           d="m 35.635665,162.11086 h -0.994772 l -0.174322,0.40549 q -0.06442,0.14969 -0.06442,0.22358 0,0.0587 0.05495,0.10422 0.05684,0.0436 0.242535,0.0568 v 0.0701 H 33.89055 v -0.0701 q 0.161059,-0.0284 0.208429,-0.0739 0.09663,-0.0909 0.214113,-0.36948 l 0.903821,-2.1146 h 0.06632 l 0.894347,2.13734 q 0.108004,0.25769 0.195165,0.33538 0.08906,0.0758 0.246325,0.0853 v 0.0701 h -1.013721 v -0.0701 q 0.15348,-0.008 0.206534,-0.0512 0.05495,-0.0436 0.05495,-0.10611 0,-0.0834 -0.07579,-0.26337 z m -0.05305,-0.14022 -0.435805,-1.03835 -0.447174,1.03835 z"
           id="text17-2-2-5-06-3-7-7-3-7"
           style="-inkscape-font-specification:'Times New Roman';stroke-width:0.200256"
           aria-label="A" /></g></g></g></svg>
