<?xml version="1.0" encoding="UTF-8" standalone="no"?>
<!-- Created with Inkscape (http://www.inkscape.org/) -->

<svg
   width="4.3501868mm"
   height="33.451286mm"
   viewBox="0 0 4.3501868 33.451286"
   version="1.1"
   id="svg1"
   sodipodi:docname="Label 1.svg"
   inkscape:version="1.3.2 (091e20e, 2023-11-25, custom)"
   xml:space="preserve"
   xmlns:inkscape="http://www.inkscape.org/namespaces/inkscape"
   xmlns:sodipodi="http://sodipodi.sourceforge.net/DTD/sodipodi-0.dtd"
   xmlns="http://www.w3.org/2000/svg"
   xmlns:svg="http://www.w3.org/2000/svg"><sodipodi:namedview
     id="namedview1"
     pagecolor="#ffffff"
     bordercolor="#000000"
     borderopacity="0.25"
     inkscape:showpageshadow="2"
     inkscape:pageopacity="0.0"
     inkscape:pagecheckerboard="0"
     inkscape:deskcolor="#d1d1d1"
     inkscape:document-units="mm"
     showgrid="true"
     inkscape:zoom="9.0356898"
     inkscape:cx="494.53889"
     inkscape:cy="771.27482"
     inkscape:window-width="3840"
     inkscape:window-height="2050"
     inkscape:window-x="-12"
     inkscape:window-y="-12"
     inkscape:window-maximized="1"
     inkscape:current-layer="layer1"><inkscape:grid
       id="grid1"
       units="mm"
       originx="-198.6791"
       originy="-202.40326"
       spacingx="0.5"
       spacingy="0.5"
       empcolor="#0099e5"
       empopacity="0.30196078"
       color="#0099e5"
       opacity="0.14901961"
       empspacing="5"
       dotted="false"
       gridanglex="30"
       gridanglez="30"
       visible="true" /></sodipodi:namedview><defs
     id="defs1" /><g
     inkscape:label="Layer 1"
     inkscape:groupmode="layer"
     id="layer1"
     transform="translate(-198.6791,-202.40327)"><path
       d="M 202.62695,203.12639 H 202.22 l -0.0713,0.16589 q -0.0263,0.0612 -0.0263,0.0915 0,0.024 0.0225,0.0426 0.0232,0.0178 0.0992,0.0233 v 0.0287 h -0.33099 v -0.0287 q 0.0659,-0.0116 0.0853,-0.0302 0.0395,-0.0372 0.0876,-0.15115 l 0.36974,-0.86507 h 0.0271 l 0.36587,0.87437 q 0.0442,0.10542 0.0798,0.1372 0.0364,0.031 0.10077,0.0349 v 0.0287 h -0.4147 v -0.0287 q 0.0628,-0.003 0.0845,-0.0209 0.0225,-0.0178 0.0225,-0.0434 0,-0.0341 -0.031,-0.10774 z m -0.0217,-0.0574 -0.17829,-0.42478 -0.18293,0.42478 z"
       id="text109-8"
       style="font-size:1.5875px;font-family:'Times New Roman';-inkscape-font-specification:'Times New Roman, ';text-align:end;letter-spacing:0px;text-anchor:end;stroke-width:0.1"
       aria-label="A" /><path
       d="m 202.72152,209.54192 q 0.10929,0.0232 0.16355,0.0744 0.0752,0.0713 0.0752,0.17441 0,0.0783 -0.0496,0.15038 -0.0496,0.0713 -0.13642,0.10464 -0.086,0.0326 -0.26355,0.0326 h -0.4961 v -0.0287 h 0.0395 q 0.0659,0 0.0946,-0.0419 0.0178,-0.0271 0.0178,-0.1155 v -0.67903 q 0,-0.0977 -0.0225,-0.12324 -0.0302,-0.0341 -0.0899,-0.0341 h -0.0395 v -0.0287 h 0.45424 q 0.12712,0 0.20386,0.0186 0.11627,0.0279 0.17751,0.0992 0.0612,0.0705 0.0612,0.16278 0,0.0791 -0.0481,0.14185 -0.0481,0.062 -0.14185,0.0923 z m -0.40618,-0.0419 q 0.0287,0.005 0.0651,0.009 0.0372,0.002 0.0814,0.002 0.11317,0 0.16976,-0.024 0.0574,-0.0248 0.0876,-0.0752 0.0302,-0.0504 0.0302,-0.11007 0,-0.0922 -0.0752,-0.15735 -0.0752,-0.0651 -0.21936,-0.0651 -0.0775,0 -0.13953,0.0171 z m 0,0.50229 q 0.0899,0.0209 0.17751,0.0209 0.1403,0 0.21394,-0.0628 0.0736,-0.0636 0.0736,-0.15658 0,-0.0612 -0.0333,-0.11783 -0.0333,-0.0566 -0.10852,-0.0891 -0.0752,-0.0325 -0.18604,-0.0325 -0.0481,0 -0.0822,0.002 -0.0341,0.002 -0.055,0.005 z"
       id="text110-8"
       style="font-size:1.5875px;font-family:'Times New Roman';-inkscape-font-specification:'Times New Roman, ';text-align:end;letter-spacing:0px;text-anchor:end;stroke-width:0.1"
       aria-label="B" /><path
       d="m 202.94398,215.40318 0.024,0.35735 h -0.024 q -0.0481,-0.16046 -0.1372,-0.231 -0.0891,-0.0705 -0.21394,-0.0705 -0.10464,0 -0.18913,0.0535 -0.0845,0.0527 -0.13333,0.16898 -0.0481,0.11627 -0.0481,0.28913 0,0.14263 0.0457,0.24727 0.0457,0.10465 0.1372,0.16046 0.0922,0.0558 0.21006,0.0558 0.10232,0 0.18061,-0.0434 0.0783,-0.0442 0.17208,-0.17441 l 0.024,0.0155 q -0.0791,0.14031 -0.18448,0.20542 -0.10542,0.0651 -0.25037,0.0651 -0.26123,0 -0.40463,-0.19379 -0.10697,-0.14417 -0.10697,-0.33951 0,-0.15735 0.0705,-0.28913 0.0705,-0.13177 0.19378,-0.20386 0.12403,-0.0729 0.27053,-0.0729 0.11395,0 0.22479,0.0558 0.0326,0.0171 0.0465,0.0171 0.0209,0 0.0364,-0.0147 0.0202,-0.0209 0.0287,-0.0581 z"
       id="text111-2"
       style="font-size:1.5875px;line-height:0;font-family:'Times New Roman';-inkscape-font-specification:'Times New Roman, ';text-align:end;letter-spacing:0px;text-anchor:end;stroke-width:0.1"
       aria-label="C" /><path
       d="m 201.92777,223.07832 v -0.0287 h 0.0395 q 0.0667,0 0.0946,-0.0426 0.0171,-0.0256 0.0171,-0.11472 v -0.67903 q 0,-0.0984 -0.0217,-0.12324 -0.0302,-0.0341 -0.0899,-0.0341 h -0.0395 v -0.0287 h 0.42788 q 0.23564,0 0.35812,0.0535 0.12324,0.0535 0.19766,0.17829 0.0752,0.1248 0.0752,0.28835 0,0.21937 -0.13333,0.36665 -0.1496,0.16433 -0.45578,0.16433 z m 0.29998,-0.076 q 0.0984,0.0217 0.16511,0.0217 0.17983,0 0.29843,-0.12635 0.11859,-0.12635 0.11859,-0.34262 0,-0.21781 -0.11859,-0.34339 -0.1186,-0.12557 -0.30464,-0.12557 -0.0698,0 -0.1589,0.0225 z"
       id="text112-6"
       style="font-size:1.5875px;font-family:'Times New Roman';-inkscape-font-specification:'Times New Roman, ';text-align:end;letter-spacing:0px;text-anchor:end;stroke-width:0.1"
       aria-label="D" /><path
       d="m 199.39304,229.12639 h -0.40695 l -0.0713,0.16589 q -0.0264,0.0612 -0.0264,0.0915 0,0.024 0.0225,0.0426 0.0232,0.0178 0.0992,0.0233 v 0.0287 h -0.33099 v -0.0287 q 0.0659,-0.0116 0.0853,-0.0302 0.0395,-0.0372 0.0876,-0.15115 l 0.36974,-0.86507 h 0.0271 l 0.36587,0.87437 q 0.0442,0.10542 0.0798,0.1372 0.0364,0.031 0.10077,0.0349 v 0.0287 h -0.4147 v -0.0287 q 0.0628,-0.003 0.0845,-0.0209 0.0225,-0.0178 0.0225,-0.0434 0,-0.0341 -0.031,-0.10774 z m -0.0217,-0.0574 -0.17828,-0.42478 -0.18293,0.42478 z m 1.19916,-0.61314 v -0.0287 h 0.37207 v 0.0287 h -0.0395 q -0.062,0 -0.0953,0.0519 -0.0163,0.024 -0.0163,0.11162 v 0.42633 q 0,0.15813 -0.0318,0.24572 -0.031,0.0868 -0.12325,0.1496 -0.0915,0.062 -0.24959,0.062 -0.17209,0 -0.26123,-0.0597 -0.0891,-0.0597 -0.12635,-0.16046 -0.0248,-0.069 -0.0248,-0.25889 v -0.41083 q 0,-0.0969 -0.0271,-0.12713 -0.0264,-0.0302 -0.086,-0.0302 h -0.0395 v -0.0287 h 0.45424 v 0.0287 h -0.0403 q -0.0651,0 -0.093,0.0411 -0.0194,0.0279 -0.0194,0.11627 v 0.45811 q 0,0.0612 0.0108,0.1403 0.0116,0.0791 0.0411,0.12325 0.0295,0.0442 0.0845,0.0729 0.0558,0.0287 0.13643,0.0287 0.10309,0 0.18448,-0.045 0.0814,-0.045 0.11085,-0.11472 0.0302,-0.0705 0.0302,-0.23797 v -0.42555 q 0,-0.0984 -0.0217,-0.12325 -0.0302,-0.0341 -0.0899,-0.0341 z m 1.30767,-0.0287 0.0116,0.2465 h -0.0294 q -0.009,-0.0651 -0.0233,-0.093 -0.024,-0.045 -0.0643,-0.0659 -0.0395,-0.0217 -0.10465,-0.0217 h -0.14805 v 0.80305 q 0,0.0969 0.0209,0.12092 0.0294,0.0326 0.0907,0.0326 h 0.0364 v 0.0287 h -0.44571 v -0.0287 h 0.0372 q 0.0667,0 0.0946,-0.0403 0.017,-0.0248 0.017,-0.11317 v -0.80305 h -0.12635 q -0.0736,0 -0.10464,0.0109 -0.0403,0.0147 -0.069,0.0566 -0.0287,0.0419 -0.0341,0.11317 h -0.0294 l 0.0124,-0.2465 z m 0.60306,-0.024 q 0.20464,0 0.35424,0.15581 0.15038,0.15503 0.15038,0.38757 0,0.23952 -0.15115,0.39765 -0.15116,0.15813 -0.36587,0.15813 -0.21704,0 -0.36509,-0.15425 -0.14728,-0.15426 -0.14728,-0.3992 0,-0.25038 0.17053,-0.40851 0.14805,-0.1372 0.35424,-0.1372 z m -0.0147,0.0566 q -0.14107,0 -0.22634,0.10464 -0.10619,0.13023 -0.10619,0.38138 0,0.25734 0.11007,0.3961 0.0845,0.10542 0.22324,0.10542 0.14805,0 0.24417,-0.1155 0.0969,-0.1155 0.0969,-0.36432 0,-0.26975 -0.10619,-0.4023 -0.0853,-0.10542 -0.23565,-0.10542 z"
       id="text113-0"
       style="font-size:1.5875px;font-family:'Times New Roman';-inkscape-font-specification:'Times New Roman, ';text-align:end;letter-spacing:0px;text-anchor:end;stroke-width:0.1"
       aria-label="AUTO" /><path
       d="M 200.2553,235.85444 199.84913,234.97 v 0.70228 q 0,0.0969 0.0209,0.12092 0.0287,0.0326 0.0907,0.0326 h 0.0372 v 0.0287 h -0.36586 v -0.0287 h 0.0372 q 0.0667,0 0.0946,-0.0403 0.0171,-0.0248 0.0171,-0.11317 v -0.68678 q 0,-0.0698 -0.0155,-0.10077 -0.0109,-0.0225 -0.0403,-0.0372 -0.0287,-0.0155 -0.093,-0.0155 v -0.0287 h 0.29765 l 0.38137,0.82243 0.37517,-0.82243 h 0.29766 v 0.0287 h -0.0364 q -0.0674,0 -0.0953,0.0403 -0.0171,0.0248 -0.0171,0.11317 v 0.68678 q 0,0.0969 0.0217,0.12092 0.0287,0.0326 0.0907,0.0326 h 0.0364 v 0.0287 h -0.44648 v -0.0287 h 0.0372 q 0.0674,0 0.0946,-0.0403 0.0171,-0.0248 0.0171,-0.11317 v -0.70228 l -0.4054,0.88444 z m 1.48828,-0.35192 h -0.40695 l -0.0713,0.16589 q -0.0264,0.0612 -0.0264,0.0915 0,0.024 0.0225,0.0426 0.0233,0.0178 0.0992,0.0232 v 0.0287 h -0.33099 v -0.0287 q 0.0659,-0.0116 0.0853,-0.0302 0.0395,-0.0372 0.0876,-0.15115 l 0.36975,-0.86507 h 0.0271 l 0.36587,0.87437 q 0.0442,0.10542 0.0798,0.1372 0.0364,0.031 0.10077,0.0349 v 0.0287 h -0.41471 v -0.0287 q 0.0628,-0.003 0.0845,-0.0209 0.0225,-0.0178 0.0225,-0.0434 0,-0.0341 -0.031,-0.10774 z m -0.0217,-0.0574 -0.17828,-0.42478 -0.18294,0.42478 z m 0.7674,-0.0829 v 0.30619 q 0,0.0992 0.0217,0.12324 0.0295,0.0341 0.0891,0.0341 h 0.0403 v 0.0287 h -0.45036 v -0.0287 h 0.0395 q 0.0667,0 0.0953,-0.0434 0.0155,-0.024 0.0155,-0.11394 v -0.67903 q 0,-0.0992 -0.0209,-0.12325 -0.0302,-0.0341 -0.0899,-0.0341 h -0.0395 v -0.0287 h 0.38525 q 0.14107,0 0.22246,0.0295 0.0814,0.0287 0.1372,0.0977 0.0558,0.069 0.0558,0.16355 0,0.12868 -0.0853,0.20929 -0.0845,0.0806 -0.23952,0.0806 -0.038,0 -0.0822,-0.005 -0.0442,-0.005 -0.0946,-0.0163 z m 0,-0.0442 q 0.0411,0.008 0.0729,0.0116 0.0318,0.004 0.0543,0.004 0.0806,0 0.13875,-0.062 0.0589,-0.0628 0.0589,-0.16201 0,-0.0682 -0.0279,-0.12634 -0.0279,-0.0589 -0.0791,-0.0876 -0.0512,-0.0294 -0.11627,-0.0294 -0.0395,0 -0.10154,0.0147 z"
       id="text114-2"
       style="font-size:1.5875px;font-family:'Times New Roman';-inkscape-font-specification:'Times New Roman, ';text-align:end;letter-spacing:0px;text-anchor:end;stroke-width:0.1"
       aria-label="MAP" /></g></svg>
