<?xml version="1.0" encoding="UTF-8" standalone="no"?>
<!-- Created with Inkscape (http://www.inkscape.org/) -->

<svg
   width="5.0073009mm"
   height="1.0991577mm"
   viewBox="0 0 5.0073009 1.0991577"
   version="1.1"
   id="svg1"
   sodipodi:docname="Label 1.svg"
   inkscape:version="1.3.2 (091e20e, 2023-11-25, custom)"
   xml:space="preserve"
   xmlns:inkscape="http://www.inkscape.org/namespaces/inkscape"
   xmlns:sodipodi="http://sodipodi.sourceforge.net/DTD/sodipodi-0.dtd"
   xmlns="http://www.w3.org/2000/svg"
   xmlns:svg="http://www.w3.org/2000/svg"><sodipodi:namedview
     id="namedview1"
     pagecolor="#ffffff"
     bordercolor="#000000"
     borderopacity="0.25"
     inkscape:showpageshadow="2"
     inkscape:pageopacity="0.0"
     inkscape:pagecheckerboard="0"
     inkscape:deskcolor="#d1d1d1"
     inkscape:document-units="mm"
     showgrid="true"
     inkscape:zoom="9.0356898"
     inkscape:cx="494.53889"
     inkscape:cy="771.27482"
     inkscape:window-width="3840"
     inkscape:window-height="2050"
     inkscape:window-x="-12"
     inkscape:window-y="-12"
     inkscape:window-maximized="1"
     inkscape:current-layer="layer1"><inkscape:grid
       id="grid1"
       units="mm"
       originx="-187.85416"
       originy="-187.85416"
       spacingx="0.5"
       spacingy="0.5"
       empcolor="#0099e5"
       empopacity="0.30196078"
       color="#0099e5"
       opacity="0.14901961"
       empspacing="5"
       dotted="false"
       gridanglex="30"
       gridanglez="30"
       visible="true" /></sodipodi:namedview><defs
     id="defs1" /><g
     inkscape:label="Layer 1"
     inkscape:groupmode="layer"
     id="layer1"
     transform="translate(-187.85416,-187.85417)"><path
       d="m 188.37895,187.85416 q 0.20463,0 0.35424,0.15581 0.15038,0.15503 0.15038,0.38757 0,0.23952 -0.15116,0.39765 -0.15115,0.15813 -0.36587,0.15813 -0.21704,0 -0.36509,-0.15425 -0.14728,-0.15426 -0.14728,-0.3992 0,-0.25038 0.17053,-0.40851 0.14806,-0.1372 0.35425,-0.1372 z m -0.0147,0.0566 q -0.14108,0 -0.22634,0.10464 -0.1062,0.13023 -0.1062,0.38138 0,0.25734 0.11007,0.39609 0.0845,0.10542 0.22324,0.10542 0.14806,0 0.24417,-0.11549 0.0969,-0.1155 0.0969,-0.36432 0,-0.26975 -0.1062,-0.4023 -0.0853,-0.10542 -0.23564,-0.10542 z"
       id="text103-8-6"
       style="font-size:1.5875px;font-family:'Times New Roman';-inkscape-font-specification:'Times New Roman, ';text-align:center;letter-spacing:0px;text-anchor:middle;stroke-width:0.1"
       aria-label="O" /><path
       d="m 190.59715,188.90061 v 0.0287 h -0.45036 v -0.0287 h 0.0372 q 0.0651,0 0.0946,-0.038 0.0186,-0.0248 0.0186,-0.11937 v -0.67903 q 0,-0.0798 -0.0101,-0.10542 -0.008,-0.0194 -0.0318,-0.0333 -0.0341,-0.0186 -0.0713,-0.0186 h -0.0372 v -0.0287 h 0.45036 v 0.0287 h -0.038 q -0.0643,0 -0.0938,0.038 -0.0194,0.0248 -0.0194,0.11938 v 0.67903 q 0,0.0798 0.0101,0.10542 0.008,0.0194 0.0326,0.0333 0.0333,0.0186 0.0705,0.0186 z"
       id="text104-4-4"
       style="font-size:1.5875px;font-family:'Times New Roman';-inkscape-font-specification:'Times New Roman, ';text-align:center;letter-spacing:0px;text-anchor:middle;stroke-width:0.1"
       aria-label="I" /><path
       d="m 192.33282,188.90061 v 0.0287 h -0.45036 v -0.0287 h 0.0372 q 0.0651,0 0.0946,-0.038 0.0186,-0.0248 0.0186,-0.11937 v -0.67903 q 0,-0.0798 -0.0101,-0.10542 -0.008,-0.0194 -0.0318,-0.0333 -0.0341,-0.0186 -0.0713,-0.0186 h -0.0372 v -0.0287 h 0.45036 v 0.0287 h -0.038 q -0.0643,0 -0.0938,0.038 -0.0194,0.0248 -0.0194,0.11938 v 0.67903 q 0,0.0798 0.0101,0.10542 0.008,0.0194 0.0325,0.0333 0.0333,0.0186 0.0705,0.0186 z m 0.52865,0 v 0.0287 h -0.45036 v -0.0287 h 0.0372 q 0.0651,0 0.0946,-0.038 0.0186,-0.0248 0.0186,-0.11937 v -0.67903 q 0,-0.0798 -0.0101,-0.10542 -0.008,-0.0194 -0.0318,-0.0333 -0.0341,-0.0186 -0.0713,-0.0186 h -0.0372 v -0.0287 h 0.45036 v 0.0287 h -0.038 q -0.0643,0 -0.0938,0.038 -0.0194,0.0248 -0.0194,0.11938 v 0.67903 q 0,0.0798 0.0101,0.10542 0.008,0.0194 0.0325,0.0333 0.0333,0.0186 0.0705,0.0186 z"
       id="text105-4-2"
       style="font-size:1.5875px;font-family:'Times New Roman';-inkscape-font-specification:'Times New Roman, ';text-align:center;letter-spacing:0px;text-anchor:middle;stroke-width:0.1"
       aria-label="II" /></g></svg>
