%TF.GenerationSoftware,KiCad,Pcbnew,8.0.4*%
%TF.CreationDate,2024-08-27T17:02:55+01:00*%
%TF.ProjectId,Bottom Board,426f7474-6f6d-4204-926f-6172642e6b69,2*%
%TF.SameCoordinates,Original*%
%TF.FileFunction,Legend,Top*%
%TF.FilePolarity,Positive*%
%FSLAX46Y46*%
G04 Gerber Fmt 4.6, Leading zero omitted, Abs format (unit mm)*
G04 Created by KiCad (PCBNEW 8.0.4) date 2024-08-27 17:02:55*
%MOMM*%
%LPD*%
G01*
G04 APERTURE LIST*
%ADD10C,0.000000*%
%ADD11C,0.150000*%
G04 APERTURE END LIST*
D10*
G36*
X124266707Y-67042963D02*
G01*
X124263712Y-67162198D01*
X124254822Y-67279827D01*
X124240182Y-67395709D01*
X124219933Y-67509700D01*
X124194218Y-67621656D01*
X124163181Y-67731436D01*
X124126965Y-67838896D01*
X124085712Y-67943893D01*
X124039565Y-68046285D01*
X123988668Y-68145927D01*
X123933163Y-68242678D01*
X123873194Y-68336394D01*
X123808903Y-68426932D01*
X123740434Y-68514149D01*
X123667929Y-68597903D01*
X123591531Y-68678050D01*
X123511384Y-68754447D01*
X123427630Y-68826952D01*
X123340412Y-68895421D01*
X123249873Y-68959712D01*
X123156157Y-69019681D01*
X123059406Y-69075185D01*
X122959764Y-69126082D01*
X122857372Y-69172228D01*
X122752375Y-69213481D01*
X122644915Y-69249697D01*
X122535135Y-69280734D01*
X122423178Y-69306448D01*
X122309187Y-69326697D01*
X122193306Y-69341338D01*
X122075676Y-69350227D01*
X121956442Y-69353222D01*
X109250000Y-69353222D01*
X109250000Y-60112176D01*
X111560263Y-60112176D01*
X111560263Y-69050002D01*
X111687387Y-68971313D01*
X111808775Y-68884736D01*
X111924086Y-68790627D01*
X112032980Y-68689339D01*
X112135118Y-68581227D01*
X112230158Y-68466646D01*
X112317761Y-68345949D01*
X112397587Y-68219491D01*
X112469295Y-68087627D01*
X112532546Y-67950711D01*
X112586999Y-67809097D01*
X112632314Y-67663139D01*
X112668151Y-67513193D01*
X112694170Y-67359611D01*
X112710031Y-67202750D01*
X112715393Y-67042963D01*
X112715393Y-60112176D01*
X115025656Y-60112176D01*
X115025656Y-67042963D01*
X121956442Y-67042963D01*
X121956442Y-60112176D01*
X115025656Y-60112176D01*
X112715393Y-60112176D01*
X112718388Y-59992942D01*
X112727277Y-59875313D01*
X112741918Y-59759432D01*
X112762167Y-59645442D01*
X112787882Y-59533485D01*
X112818919Y-59423706D01*
X112855135Y-59316246D01*
X112896388Y-59211249D01*
X112942535Y-59108858D01*
X112993432Y-59009215D01*
X113048936Y-58912465D01*
X113108905Y-58818749D01*
X113173196Y-58728210D01*
X113241665Y-58640993D01*
X113314170Y-58557239D01*
X113390568Y-58477092D01*
X113470715Y-58400694D01*
X113554469Y-58328189D01*
X113641687Y-58259720D01*
X113732225Y-58195429D01*
X113825941Y-58135460D01*
X113922692Y-58079955D01*
X114022335Y-58029058D01*
X114124726Y-57982912D01*
X114229723Y-57941659D01*
X114337183Y-57905442D01*
X114446963Y-57874405D01*
X114558920Y-57848691D01*
X114672911Y-57828442D01*
X114788792Y-57813801D01*
X114906422Y-57804912D01*
X115025656Y-57801917D01*
X124266707Y-57801917D01*
X124266707Y-67042963D01*
G37*
G36*
X88168870Y-63000000D02*
G01*
X88223000Y-62998344D01*
X88277023Y-62993514D01*
X88330835Y-62985723D01*
X88384330Y-62975183D01*
X88437401Y-62962105D01*
X88489944Y-62946700D01*
X88541853Y-62929180D01*
X88593021Y-62909756D01*
X88643343Y-62888640D01*
X88692713Y-62866044D01*
X88741026Y-62842178D01*
X88788175Y-62817255D01*
X88834055Y-62791486D01*
X88878561Y-62765083D01*
X88963024Y-62711218D01*
X89040719Y-62657353D01*
X89110799Y-62605181D01*
X89172420Y-62556392D01*
X89224733Y-62512680D01*
X89298057Y-62447253D01*
X89324002Y-62422436D01*
X93366970Y-58379482D01*
X93421099Y-58327010D01*
X93475123Y-58277816D01*
X93528935Y-58231795D01*
X93582430Y-58188840D01*
X93635501Y-58148847D01*
X93688044Y-58111709D01*
X93739953Y-58077321D01*
X93791121Y-58045577D01*
X93841443Y-58016371D01*
X93890813Y-57989597D01*
X93939125Y-57965150D01*
X93986275Y-57942924D01*
X94032155Y-57922813D01*
X94076660Y-57904711D01*
X94161124Y-57874113D01*
X94238818Y-57850282D01*
X94308899Y-57832375D01*
X94370519Y-57819543D01*
X94422833Y-57810941D01*
X94464994Y-57805724D01*
X94496156Y-57803045D01*
X94522102Y-57801917D01*
X96832363Y-57801917D01*
X91056707Y-63577574D01*
X95525622Y-68963372D01*
X95532818Y-68963372D01*
X95645409Y-68882310D01*
X95752631Y-68794698D01*
X95854222Y-68700829D01*
X95949921Y-68600991D01*
X96039466Y-68495475D01*
X96122596Y-68384571D01*
X96199050Y-68268568D01*
X96268566Y-68147757D01*
X96330882Y-68022427D01*
X96385738Y-67892869D01*
X96432871Y-67759372D01*
X96472022Y-67622227D01*
X96502927Y-67481724D01*
X96525326Y-67338152D01*
X96538956Y-67191802D01*
X96543558Y-67042963D01*
X96543558Y-62299704D01*
X96543558Y-60112176D01*
X98853824Y-60112176D01*
X98853824Y-62299704D01*
X105784607Y-62299704D01*
X105784607Y-60112176D01*
X98853824Y-60112176D01*
X96543558Y-60112176D01*
X96546554Y-59992972D01*
X96555446Y-59875369D01*
X96570091Y-59759511D01*
X96590346Y-59645539D01*
X96616068Y-59533599D01*
X96647113Y-59423832D01*
X96683338Y-59316382D01*
X96724601Y-59211392D01*
X96770758Y-59109006D01*
X96821665Y-59009366D01*
X96877180Y-58912615D01*
X96937160Y-58818898D01*
X97001461Y-58728356D01*
X97069940Y-58641134D01*
X97142454Y-58557374D01*
X97218861Y-58477219D01*
X97299015Y-58400813D01*
X97382775Y-58328299D01*
X97469998Y-58259820D01*
X97560540Y-58195519D01*
X97654257Y-58135539D01*
X97751008Y-58080024D01*
X97850648Y-58029116D01*
X97953034Y-57982960D01*
X98058024Y-57941697D01*
X98165474Y-57905472D01*
X98275241Y-57874426D01*
X98387182Y-57848705D01*
X98501154Y-57828450D01*
X98617012Y-57813805D01*
X98734616Y-57804913D01*
X98853820Y-57801917D01*
X111560259Y-57801917D01*
X111560259Y-59534612D01*
X109249996Y-59534612D01*
X109249996Y-58119574D01*
X109123641Y-58198339D01*
X109002824Y-58284710D01*
X108887905Y-58378365D01*
X108779247Y-58478982D01*
X108677209Y-58586239D01*
X108582151Y-58699814D01*
X108494436Y-58819384D01*
X108414422Y-58944628D01*
X108342471Y-59075224D01*
X108278944Y-59210848D01*
X108224200Y-59351180D01*
X108178602Y-59495898D01*
X108142508Y-59644678D01*
X108116281Y-59797199D01*
X108100280Y-59953139D01*
X108094866Y-60112176D01*
X108094866Y-63462052D01*
X108095515Y-63469325D01*
X108095997Y-63476551D01*
X108096528Y-63490898D01*
X108096598Y-63505161D01*
X108096344Y-63519406D01*
X108095420Y-63548115D01*
X108095028Y-63562714D01*
X108094866Y-63577566D01*
X108093369Y-63637183D01*
X108088924Y-63695997D01*
X108081604Y-63753938D01*
X108071479Y-63810933D01*
X108058622Y-63866911D01*
X108043104Y-63921801D01*
X108024995Y-63975531D01*
X108004369Y-64028029D01*
X107981296Y-64079225D01*
X107955847Y-64129046D01*
X107928095Y-64177421D01*
X107898111Y-64224279D01*
X107865965Y-64269548D01*
X107831731Y-64313157D01*
X107795478Y-64355034D01*
X107757280Y-64395108D01*
X107717206Y-64433306D01*
X107675329Y-64469559D01*
X107631721Y-64503794D01*
X107586451Y-64535939D01*
X107539593Y-64565924D01*
X107491218Y-64593676D01*
X107441397Y-64619124D01*
X107390201Y-64642198D01*
X107337702Y-64662824D01*
X107283972Y-64680932D01*
X107229082Y-64696451D01*
X107173104Y-64709308D01*
X107116109Y-64719433D01*
X107058168Y-64726753D01*
X106999353Y-64731198D01*
X106939736Y-64732695D01*
X98853820Y-64732695D01*
X98853820Y-67042954D01*
X108094866Y-67042954D01*
X108094866Y-68082571D01*
X108095515Y-68089844D01*
X108095997Y-68097070D01*
X108096528Y-68111417D01*
X108096598Y-68125680D01*
X108096344Y-68139925D01*
X108095420Y-68168634D01*
X108095028Y-68183233D01*
X108094866Y-68198084D01*
X108093369Y-68257701D01*
X108088924Y-68316515D01*
X108081604Y-68374456D01*
X108071479Y-68431451D01*
X108058622Y-68487429D01*
X108043104Y-68542319D01*
X108024995Y-68596049D01*
X108004369Y-68648548D01*
X107981296Y-68699743D01*
X107955847Y-68749565D01*
X107928095Y-68797940D01*
X107898111Y-68844798D01*
X107865965Y-68890067D01*
X107831731Y-68933676D01*
X107795478Y-68975553D01*
X107757280Y-69015627D01*
X107717206Y-69053825D01*
X107675329Y-69090078D01*
X107631721Y-69124313D01*
X107586451Y-69156458D01*
X107539593Y-69186443D01*
X107491218Y-69214195D01*
X107441397Y-69239643D01*
X107390201Y-69262717D01*
X107337702Y-69283343D01*
X107283972Y-69301451D01*
X107229082Y-69316970D01*
X107173104Y-69329827D01*
X107116109Y-69339952D01*
X107058168Y-69347272D01*
X106999353Y-69351717D01*
X106939736Y-69353214D01*
X93944512Y-69353214D01*
X93887843Y-69351557D01*
X93831601Y-69346728D01*
X93775878Y-69338937D01*
X93720763Y-69328397D01*
X93666345Y-69315319D01*
X93612716Y-69299914D01*
X93559965Y-69282393D01*
X93508181Y-69262970D01*
X93457454Y-69241854D01*
X93407876Y-69219257D01*
X93359534Y-69195392D01*
X93312520Y-69170469D01*
X93266923Y-69144700D01*
X93222832Y-69118296D01*
X93139533Y-69064432D01*
X93063340Y-69010567D01*
X92994973Y-68958394D01*
X92935151Y-68909606D01*
X92884593Y-68865894D01*
X92814146Y-68800466D01*
X92789385Y-68775649D01*
X89323992Y-64732695D01*
X89273910Y-64676475D01*
X89223420Y-64624010D01*
X89172652Y-64575169D01*
X89121739Y-64529825D01*
X89070811Y-64487847D01*
X89019999Y-64449106D01*
X88969434Y-64413474D01*
X88919247Y-64380822D01*
X88869570Y-64351019D01*
X88820532Y-64323937D01*
X88772266Y-64299447D01*
X88724902Y-64277420D01*
X88678571Y-64257726D01*
X88633404Y-64240236D01*
X88589533Y-64224822D01*
X88547088Y-64211354D01*
X88467001Y-64189738D01*
X88394192Y-64174357D01*
X88329708Y-64164177D01*
X88274598Y-64158165D01*
X88229910Y-64155288D01*
X88196692Y-64154511D01*
X88168860Y-64155130D01*
X88168860Y-69353222D01*
X85743086Y-69353222D01*
X85743086Y-57801917D01*
X85743096Y-57801909D01*
X88168870Y-57801909D01*
X88168870Y-63000000D01*
G37*
D11*
G36*
X86934578Y-70589427D02*
G01*
X86934578Y-71527320D01*
X86858374Y-71527320D01*
X86829294Y-71370370D01*
X86784082Y-71222354D01*
X86725017Y-71100139D01*
X86634079Y-70981359D01*
X86516052Y-70884588D01*
X86452442Y-70847348D01*
X86306314Y-70786623D01*
X86156074Y-70756856D01*
X86085345Y-70753558D01*
X85935182Y-70771900D01*
X85795760Y-70833164D01*
X85730705Y-70883984D01*
X85635035Y-71004478D01*
X85591983Y-71149142D01*
X85590753Y-71180006D01*
X85625386Y-71330216D01*
X85679414Y-71411549D01*
X85793902Y-71517737D01*
X85914917Y-71603990D01*
X86045434Y-71685735D01*
X86173089Y-71759366D01*
X86287578Y-71821877D01*
X86425575Y-71896787D01*
X86564496Y-71975587D01*
X86694155Y-72054309D01*
X86821737Y-72142812D01*
X86934638Y-72247978D01*
X87022013Y-72368572D01*
X87042289Y-72405861D01*
X87098038Y-72551276D01*
X87119655Y-72703132D01*
X87119958Y-72723866D01*
X87104571Y-72876319D01*
X87058409Y-73017873D01*
X86981472Y-73148528D01*
X86873761Y-73268283D01*
X86741824Y-73368300D01*
X86592210Y-73439741D01*
X86446797Y-73478811D01*
X86287850Y-73496001D01*
X86239951Y-73496894D01*
X86086619Y-73489952D01*
X86011340Y-73480774D01*
X85868346Y-73447761D01*
X85746092Y-73414096D01*
X85598610Y-73374526D01*
X85491835Y-73356210D01*
X85410502Y-73384054D01*
X85366538Y-73496894D01*
X85290335Y-73496894D01*
X85290335Y-72559002D01*
X85366538Y-72559002D01*
X85399524Y-72711449D01*
X85442973Y-72853644D01*
X85510153Y-72995708D01*
X85607887Y-73113256D01*
X85731290Y-73205581D01*
X85787125Y-73236775D01*
X85932308Y-73295268D01*
X86087589Y-73326764D01*
X86196720Y-73332763D01*
X86347258Y-73319597D01*
X86488222Y-73274700D01*
X86603384Y-73197941D01*
X86700165Y-73079821D01*
X86749212Y-72934764D01*
X86752861Y-72878471D01*
X86723714Y-72730253D01*
X86696441Y-72671842D01*
X86607227Y-72552582D01*
X86520586Y-72476936D01*
X86396766Y-72396714D01*
X86260882Y-72317296D01*
X86124741Y-72240459D01*
X86080949Y-72216085D01*
X85934078Y-72132461D01*
X85806983Y-72056622D01*
X85672632Y-71970551D01*
X85570970Y-71897348D01*
X85460301Y-71796912D01*
X85367897Y-71679824D01*
X85341626Y-71635764D01*
X85285351Y-71494846D01*
X85263530Y-71341370D01*
X85263224Y-71319958D01*
X85281481Y-71158700D01*
X85336253Y-71010426D01*
X85427540Y-70875134D01*
X85494033Y-70805582D01*
X85617315Y-70711014D01*
X85756350Y-70643466D01*
X85911139Y-70602937D01*
X86059502Y-70589638D01*
X86081682Y-70589427D01*
X86237608Y-70600683D01*
X86385070Y-70630450D01*
X86537970Y-70678822D01*
X86553559Y-70684682D01*
X86695994Y-70728514D01*
X86716224Y-70730111D01*
X86803419Y-70702267D01*
X86858374Y-70589427D01*
X86934578Y-70589427D01*
G37*
G36*
X89855966Y-72910711D02*
G01*
X89920231Y-73052623D01*
X89994212Y-73183882D01*
X90069190Y-73274145D01*
X90200824Y-73344933D01*
X90335903Y-73367934D01*
X90335903Y-73450000D01*
X89233147Y-73450000D01*
X89233147Y-73367934D01*
X89380045Y-73348617D01*
X89458827Y-73313712D01*
X89517446Y-73200139D01*
X89485389Y-73048327D01*
X89435380Y-72918771D01*
X89266120Y-72523831D01*
X88184612Y-72523831D01*
X87994836Y-72956873D01*
X87942079Y-73096458D01*
X87924494Y-73195743D01*
X87985310Y-73306385D01*
X88126035Y-73354380D01*
X88248360Y-73367934D01*
X88248360Y-73450000D01*
X87368353Y-73450000D01*
X87368353Y-73367934D01*
X87512517Y-73332397D01*
X87594766Y-73287334D01*
X87691297Y-73162292D01*
X87765400Y-73025063D01*
X87827774Y-72886531D01*
X88048276Y-72371423D01*
X88248360Y-72371423D01*
X89208967Y-72371423D01*
X88734892Y-71230565D01*
X88248360Y-72371423D01*
X88048276Y-72371423D01*
X88811095Y-70589427D01*
X88882903Y-70589427D01*
X89855966Y-72910711D01*
G37*
G36*
X92345045Y-70636322D02*
G01*
X92375820Y-71292847D01*
X92297418Y-71292847D01*
X92270673Y-71144469D01*
X92235869Y-71045184D01*
X92145186Y-70925571D01*
X92065876Y-70869330D01*
X91925252Y-70823116D01*
X91786706Y-70812177D01*
X91392498Y-70812177D01*
X91392498Y-72957606D01*
X91399078Y-73112816D01*
X91432143Y-73256042D01*
X91448185Y-73280739D01*
X91579103Y-73355672D01*
X91689253Y-73367934D01*
X91786706Y-73367934D01*
X91786706Y-73450000D01*
X90601151Y-73450000D01*
X90601151Y-73367934D01*
X90700070Y-73367934D01*
X90851744Y-73341006D01*
X90952128Y-73260223D01*
X90990539Y-73111101D01*
X90996825Y-72957606D01*
X90996825Y-70812177D01*
X90661235Y-70812177D01*
X90511650Y-70817646D01*
X90382798Y-70840753D01*
X90255643Y-70923610D01*
X90199616Y-70991695D01*
X90136020Y-71132158D01*
X90109734Y-71281062D01*
X90108758Y-71292847D01*
X90030356Y-71292847D01*
X90063328Y-70636322D01*
X92345045Y-70636322D01*
G37*
G36*
X93650035Y-70495638D02*
G01*
X92638137Y-73496894D01*
X92473273Y-73496894D01*
X93485171Y-70495638D01*
X93650035Y-70495638D01*
G37*
G36*
X94884401Y-70640038D02*
G01*
X95044651Y-70653388D01*
X95201175Y-70680011D01*
X95319190Y-70713991D01*
X95460162Y-70779526D01*
X95584856Y-70870343D01*
X95684089Y-70974842D01*
X95768774Y-71109336D01*
X95818307Y-71259934D01*
X95832833Y-71410816D01*
X95818728Y-71574306D01*
X95776413Y-71721859D01*
X95705888Y-71853476D01*
X95607153Y-71969155D01*
X95482680Y-72063082D01*
X95334944Y-72130172D01*
X95186591Y-72166862D01*
X95020426Y-72183006D01*
X94969679Y-72183845D01*
X94822678Y-72176918D01*
X94750593Y-72169190D01*
X94605433Y-72146880D01*
X94499267Y-72125959D01*
X94499267Y-72945882D01*
X94504920Y-73092442D01*
X94534598Y-73238491D01*
X94557153Y-73276343D01*
X94686353Y-73355054D01*
X94793824Y-73367934D01*
X94901535Y-73367934D01*
X94901535Y-73450000D01*
X93704257Y-73450000D01*
X93704257Y-73367934D01*
X93809037Y-73367934D01*
X93961078Y-73338991D01*
X94062561Y-73252163D01*
X94097823Y-73103499D01*
X94103594Y-72948080D01*
X94103594Y-71138241D01*
X94097013Y-70980024D01*
X94065085Y-70839288D01*
X94499267Y-70839288D01*
X94499267Y-72002128D01*
X94649018Y-72027132D01*
X94692707Y-72032903D01*
X94837788Y-72043161D01*
X94990012Y-72019874D01*
X95125750Y-71950013D01*
X95207083Y-71877564D01*
X95295940Y-71751697D01*
X95347913Y-71602799D01*
X95363154Y-71447452D01*
X95348849Y-71294000D01*
X95305932Y-71150365D01*
X95288416Y-71111130D01*
X95205350Y-70982201D01*
X95086580Y-70883008D01*
X95078123Y-70878122D01*
X94933226Y-70819870D01*
X94780415Y-70800529D01*
X94769644Y-70800453D01*
X94623424Y-70814144D01*
X94499267Y-70839288D01*
X94065085Y-70839288D01*
X94063949Y-70834280D01*
X94047906Y-70809246D01*
X93917160Y-70731164D01*
X93809037Y-70718387D01*
X93704257Y-70718387D01*
X93704257Y-70636322D01*
X94727878Y-70636322D01*
X94884401Y-70640038D01*
G37*
G36*
X97904989Y-70589427D02*
G01*
X97904989Y-71527320D01*
X97828786Y-71527320D01*
X97799705Y-71370370D01*
X97754494Y-71222354D01*
X97695429Y-71100139D01*
X97604490Y-70981359D01*
X97486464Y-70884588D01*
X97422854Y-70847348D01*
X97276725Y-70786623D01*
X97126485Y-70756856D01*
X97055757Y-70753558D01*
X96905593Y-70771900D01*
X96766172Y-70833164D01*
X96701116Y-70883984D01*
X96605447Y-71004478D01*
X96562395Y-71149142D01*
X96561165Y-71180006D01*
X96595798Y-71330216D01*
X96649825Y-71411549D01*
X96764314Y-71517737D01*
X96885329Y-71603990D01*
X97015846Y-71685735D01*
X97143501Y-71759366D01*
X97257990Y-71821877D01*
X97395986Y-71896787D01*
X97534908Y-71975587D01*
X97664566Y-72054309D01*
X97792149Y-72142812D01*
X97905049Y-72247978D01*
X97992424Y-72368572D01*
X98012700Y-72405861D01*
X98068449Y-72551276D01*
X98090066Y-72703132D01*
X98090370Y-72723866D01*
X98074982Y-72876319D01*
X98028820Y-73017873D01*
X97951884Y-73148528D01*
X97844173Y-73268283D01*
X97712236Y-73368300D01*
X97562622Y-73439741D01*
X97417209Y-73478811D01*
X97258262Y-73496001D01*
X97210363Y-73496894D01*
X97057031Y-73489952D01*
X96981751Y-73480774D01*
X96838758Y-73447761D01*
X96716504Y-73414096D01*
X96569022Y-73374526D01*
X96462247Y-73356210D01*
X96380914Y-73384054D01*
X96336950Y-73496894D01*
X96260746Y-73496894D01*
X96260746Y-72559002D01*
X96336950Y-72559002D01*
X96369936Y-72711449D01*
X96413384Y-72853644D01*
X96480565Y-72995708D01*
X96578298Y-73113256D01*
X96701702Y-73205581D01*
X96757536Y-73236775D01*
X96902720Y-73295268D01*
X97058001Y-73326764D01*
X97167132Y-73332763D01*
X97317670Y-73319597D01*
X97458634Y-73274700D01*
X97573796Y-73197941D01*
X97670576Y-73079821D01*
X97719623Y-72934764D01*
X97723273Y-72878471D01*
X97694126Y-72730253D01*
X97666853Y-72671842D01*
X97577639Y-72552582D01*
X97490998Y-72476936D01*
X97367178Y-72396714D01*
X97231294Y-72317296D01*
X97095153Y-72240459D01*
X97051361Y-72216085D01*
X96904490Y-72132461D01*
X96777394Y-72056622D01*
X96643043Y-71970551D01*
X96541381Y-71897348D01*
X96430713Y-71796912D01*
X96338309Y-71679824D01*
X96312037Y-71635764D01*
X96255763Y-71494846D01*
X96233942Y-71341370D01*
X96233635Y-71319958D01*
X96251893Y-71158700D01*
X96306665Y-71010426D01*
X96397952Y-70875134D01*
X96464445Y-70805582D01*
X96587727Y-70711014D01*
X96726762Y-70643466D01*
X96881551Y-70602937D01*
X97029914Y-70589638D01*
X97052093Y-70589427D01*
X97208020Y-70600683D01*
X97355482Y-70630450D01*
X97508381Y-70678822D01*
X97523970Y-70684682D01*
X97666406Y-70728514D01*
X97686636Y-70730111D01*
X97773831Y-70702267D01*
X97828786Y-70589427D01*
X97904989Y-70589427D01*
G37*
G36*
X100028437Y-71891486D02*
G01*
X100628541Y-72789078D01*
X100717430Y-72919029D01*
X100809674Y-73046285D01*
X100910138Y-73171362D01*
X100997836Y-73259490D01*
X101125348Y-73332219D01*
X101269925Y-73365238D01*
X101304117Y-73367934D01*
X101304117Y-73450000D01*
X100104640Y-73450000D01*
X100104640Y-73367934D01*
X100253691Y-73351977D01*
X100281961Y-73343021D01*
X100353035Y-73286601D01*
X100380879Y-73208932D01*
X100362561Y-73113677D01*
X100283120Y-72983000D01*
X100248988Y-72931960D01*
X99774913Y-72213154D01*
X99190195Y-72964933D01*
X99102783Y-73083944D01*
X99078088Y-73125401D01*
X99059769Y-73208932D01*
X99115457Y-73318841D01*
X99255866Y-73362667D01*
X99327948Y-73367934D01*
X99327948Y-73450000D01*
X98336566Y-73450000D01*
X98336566Y-73367934D01*
X98483541Y-73338042D01*
X98518283Y-73324703D01*
X98650231Y-73256752D01*
X98760816Y-73179623D01*
X98876597Y-73073191D01*
X98979654Y-72957443D01*
X99025331Y-72901186D01*
X99684787Y-72065875D01*
X99134508Y-71257676D01*
X99039354Y-71124860D01*
X98938592Y-70999518D01*
X98835417Y-70892227D01*
X98752756Y-70826831D01*
X98617967Y-70759446D01*
X98467215Y-70723986D01*
X98392254Y-70718387D01*
X98392254Y-70636322D01*
X99684787Y-70636322D01*
X99684787Y-70718387D01*
X99538984Y-70736403D01*
X99459107Y-70771877D01*
X99398290Y-70877390D01*
X99449391Y-71023271D01*
X99497208Y-71100139D01*
X99925855Y-71742009D01*
X100421912Y-71112595D01*
X100509596Y-70992703D01*
X100528157Y-70960188D01*
X100547941Y-70875191D01*
X100523028Y-70798988D01*
X100444626Y-70738171D01*
X100292984Y-70719450D01*
X100248988Y-70718387D01*
X100248988Y-70636322D01*
X101240370Y-70636322D01*
X101240370Y-70718387D01*
X101093797Y-70740062D01*
X101048395Y-70755757D01*
X100916962Y-70828171D01*
X100844696Y-70883984D01*
X100740873Y-70988967D01*
X100643657Y-71104223D01*
X100583112Y-71180739D01*
X100028437Y-71891486D01*
G37*
G36*
X103065596Y-70917690D02*
G01*
X103065596Y-71527320D01*
X103506699Y-71527320D01*
X103506699Y-71668004D01*
X103065596Y-71668004D01*
X103065596Y-72929762D01*
X103077188Y-73079943D01*
X103118353Y-73184752D01*
X103253175Y-73250697D01*
X103385066Y-73208932D01*
X103479476Y-73093828D01*
X103483984Y-73083635D01*
X103564585Y-73083635D01*
X103501833Y-73222155D01*
X103415016Y-73341289D01*
X103360153Y-73392114D01*
X103226247Y-73470699D01*
X103088311Y-73496894D01*
X102942857Y-73463800D01*
X102902931Y-73442672D01*
X102796926Y-73340881D01*
X102768841Y-73288066D01*
X102733885Y-73139766D01*
X102725653Y-72989694D01*
X102725610Y-72976657D01*
X102725610Y-71668004D01*
X102426657Y-71668004D01*
X102426657Y-71601325D01*
X102555818Y-71531567D01*
X102658199Y-71450383D01*
X102763848Y-71342245D01*
X102858226Y-71217041D01*
X102869958Y-71199057D01*
X102939431Y-71062748D01*
X103001849Y-70917690D01*
X103065596Y-70917690D01*
G37*
G36*
X104762049Y-71491966D02*
G01*
X104904940Y-71526587D01*
X105056604Y-71596150D01*
X105192069Y-71697130D01*
X105295289Y-71808688D01*
X105381227Y-71935142D01*
X105446057Y-72069590D01*
X105489779Y-72212033D01*
X105512395Y-72362470D01*
X105515841Y-72452023D01*
X105503962Y-72612422D01*
X105472960Y-72757760D01*
X105422715Y-72904025D01*
X105394208Y-72969330D01*
X105318544Y-73106328D01*
X105228391Y-73223040D01*
X105111226Y-73328928D01*
X105059351Y-73364270D01*
X104921363Y-73434209D01*
X104773930Y-73478244D01*
X104617052Y-73496376D01*
X104584543Y-73496894D01*
X104430781Y-73484838D01*
X104266956Y-73440299D01*
X104119890Y-73362942D01*
X103989584Y-73252767D01*
X103906769Y-73153977D01*
X103823972Y-73024307D01*
X103761511Y-72887905D01*
X103719386Y-72744771D01*
X103697598Y-72594905D01*
X103694278Y-72506245D01*
X103704478Y-72359336D01*
X103708996Y-72337718D01*
X104077495Y-72337718D01*
X104083239Y-72489744D01*
X104104462Y-72656886D01*
X104141322Y-72813018D01*
X104193820Y-72958140D01*
X104240893Y-73055059D01*
X104329462Y-73186813D01*
X104444647Y-73290039D01*
X104591937Y-73348858D01*
X104673203Y-73356210D01*
X104824122Y-73328759D01*
X104951823Y-73246407D01*
X105002931Y-73189881D01*
X105076770Y-73047304D01*
X105114386Y-72888661D01*
X105129457Y-72739145D01*
X105132624Y-72618353D01*
X105127346Y-72465177D01*
X105107082Y-72295299D01*
X105071619Y-72140619D01*
X105020958Y-72001137D01*
X104942644Y-71857617D01*
X104916469Y-71820411D01*
X104806281Y-71706941D01*
X104664550Y-71636874D01*
X104543510Y-71621109D01*
X104399585Y-71649509D01*
X104323691Y-71687055D01*
X104213258Y-71791717D01*
X104145638Y-71916399D01*
X104101518Y-72065113D01*
X104081754Y-72214940D01*
X104077495Y-72337718D01*
X103708996Y-72337718D01*
X103735081Y-72212890D01*
X103786086Y-72066909D01*
X103823238Y-71986008D01*
X103902153Y-71851238D01*
X104004793Y-71726646D01*
X104123174Y-71628529D01*
X104161758Y-71604256D01*
X104295624Y-71538955D01*
X104448497Y-71495058D01*
X104607257Y-71480425D01*
X104762049Y-71491966D01*
G37*
G36*
X106644243Y-70636322D02*
G01*
X107402617Y-70636322D01*
X109111340Y-72746580D01*
X109111340Y-71127983D01*
X109104500Y-70973190D01*
X109070130Y-70830262D01*
X109053454Y-70805582D01*
X108923566Y-70730649D01*
X108812386Y-70718387D01*
X108715666Y-70718387D01*
X108715666Y-70636322D01*
X109687997Y-70636322D01*
X109687997Y-70718387D01*
X109589079Y-70718387D01*
X109437587Y-70745315D01*
X109337753Y-70826099D01*
X109298712Y-70975564D01*
X109292324Y-71128715D01*
X109292324Y-73496894D01*
X109218318Y-73496894D01*
X107376238Y-71229832D01*
X107376238Y-72958339D01*
X107382732Y-73113132D01*
X107415361Y-73256060D01*
X107431193Y-73280739D01*
X107562397Y-73355672D01*
X107672993Y-73367934D01*
X107771912Y-73367934D01*
X107771912Y-73450000D01*
X106798848Y-73450000D01*
X106798848Y-73367934D01*
X106895569Y-73367934D01*
X107040683Y-73344267D01*
X107149093Y-73260223D01*
X107188133Y-73111674D01*
X107194522Y-72959071D01*
X107194522Y-71010013D01*
X107093371Y-70897475D01*
X107009874Y-70821702D01*
X106876334Y-70754297D01*
X106825959Y-70736706D01*
X106673689Y-70718674D01*
X106644243Y-70718387D01*
X106644243Y-70636322D01*
G37*
G36*
X110612700Y-70788729D02*
G01*
X110612700Y-71902477D01*
X111226727Y-71902477D01*
X111383622Y-71891967D01*
X111523574Y-71845255D01*
X111546197Y-71827739D01*
X111625720Y-71702159D01*
X111659431Y-71554399D01*
X111665631Y-71480425D01*
X111741835Y-71480425D01*
X111741835Y-72465212D01*
X111665631Y-72465212D01*
X111640487Y-72317029D01*
X111607746Y-72207292D01*
X111501625Y-72103744D01*
X111486113Y-72095917D01*
X111336387Y-72059733D01*
X111226727Y-72054884D01*
X110612700Y-72054884D01*
X110612700Y-72982519D01*
X110616730Y-73132362D01*
X110628820Y-73209665D01*
X110686706Y-73274145D01*
X110836347Y-73297569D01*
X110843510Y-73297592D01*
X111317585Y-73297592D01*
X111464972Y-73293696D01*
X111616559Y-73275825D01*
X111661235Y-73264619D01*
X111792439Y-73198216D01*
X111867864Y-73134193D01*
X111964413Y-73019235D01*
X112046287Y-72895573D01*
X112121074Y-72762619D01*
X112129448Y-72746580D01*
X112211514Y-72746580D01*
X111970446Y-73450000D01*
X109816957Y-73450000D01*
X109816957Y-73367934D01*
X109915876Y-73367934D01*
X110064174Y-73338864D01*
X110103454Y-73320307D01*
X110192847Y-73221388D01*
X110214170Y-73074548D01*
X110217027Y-72950279D01*
X110217027Y-71129448D01*
X110211803Y-70982788D01*
X110184380Y-70837931D01*
X110163538Y-70801186D01*
X110031761Y-70730031D01*
X109915876Y-70718387D01*
X109816957Y-70718387D01*
X109816957Y-70636322D01*
X111970446Y-70636322D01*
X112001221Y-71245952D01*
X111921354Y-71245952D01*
X111887591Y-71100906D01*
X111835174Y-70961392D01*
X111825366Y-70944801D01*
X111718205Y-70843547D01*
X111670028Y-70819504D01*
X111517586Y-70793057D01*
X111379134Y-70788729D01*
X110612700Y-70788729D01*
G37*
G36*
X114005264Y-70599463D02*
G01*
X114164539Y-70629570D01*
X114316730Y-70679748D01*
X114461838Y-70749998D01*
X114599861Y-70840319D01*
X114730801Y-70950711D01*
X114781193Y-71000488D01*
X114896236Y-71133935D01*
X114991781Y-71277365D01*
X115067827Y-71430776D01*
X115124373Y-71594170D01*
X115161421Y-71767545D01*
X115177020Y-71913433D01*
X115180530Y-72027041D01*
X115174245Y-72181956D01*
X115155388Y-72330161D01*
X115114140Y-72505984D01*
X115053250Y-72671324D01*
X114972718Y-72826181D01*
X114872544Y-72970555D01*
X114778262Y-73078506D01*
X114648650Y-73199038D01*
X114510773Y-73299140D01*
X114364632Y-73378814D01*
X114210226Y-73438058D01*
X114047555Y-73476874D01*
X113876620Y-73495260D01*
X113805931Y-73496894D01*
X113630005Y-73486930D01*
X113463095Y-73457038D01*
X113305200Y-73407217D01*
X113156322Y-73337468D01*
X113016459Y-73247791D01*
X112885613Y-73138186D01*
X112835799Y-73088764D01*
X112722866Y-72955374D01*
X112629075Y-72810285D01*
X112554425Y-72653496D01*
X112498915Y-72485007D01*
X112462547Y-72304820D01*
X112447234Y-72152246D01*
X112443789Y-72032903D01*
X112443981Y-72028506D01*
X112915666Y-72028506D01*
X112920234Y-72193954D01*
X112933939Y-72349579D01*
X112956779Y-72495380D01*
X112998178Y-72663818D01*
X113053851Y-72816908D01*
X113123800Y-72954649D01*
X113208025Y-73077041D01*
X113313312Y-73185819D01*
X113450469Y-73277421D01*
X113605579Y-73334127D01*
X113756026Y-73355120D01*
X113801535Y-73356210D01*
X113967124Y-73341589D01*
X114119599Y-73297726D01*
X114258962Y-73224622D01*
X114385211Y-73122275D01*
X114451465Y-73050662D01*
X114538620Y-72923417D01*
X114607742Y-72771390D01*
X114651570Y-72625771D01*
X114682876Y-72462943D01*
X114701659Y-72282905D01*
X114707670Y-72126485D01*
X114707920Y-72085659D01*
X114703512Y-71912907D01*
X114690289Y-71751489D01*
X114668250Y-71601406D01*
X114628304Y-71429740D01*
X114574584Y-71275785D01*
X114507089Y-71139540D01*
X114425820Y-71021004D01*
X114318454Y-70912226D01*
X114194469Y-70830166D01*
X114053865Y-70774823D01*
X113896641Y-70746197D01*
X113799337Y-70741835D01*
X113642323Y-70755088D01*
X113499545Y-70794849D01*
X113353801Y-70872747D01*
X113241526Y-70969308D01*
X113197767Y-71018806D01*
X113101897Y-71159456D01*
X113037157Y-71293823D01*
X112986191Y-71443789D01*
X112949000Y-71609354D01*
X112925584Y-71790518D01*
X112916768Y-71946681D01*
X112915666Y-72028506D01*
X112443981Y-72028506D01*
X112450864Y-71871118D01*
X112472091Y-71716959D01*
X112507468Y-71570425D01*
X112556996Y-71431516D01*
X112638805Y-71268602D01*
X112742725Y-71117601D01*
X112841781Y-71005380D01*
X112896615Y-70952128D01*
X113023369Y-70847639D01*
X113157707Y-70760860D01*
X113299630Y-70691791D01*
X113449138Y-70640432D01*
X113606231Y-70606783D01*
X113770909Y-70590844D01*
X113838904Y-70589427D01*
X114005264Y-70599463D01*
G37*
G36*
X118965073Y-70589427D02*
G01*
X119037613Y-71480425D01*
X118965073Y-71480425D01*
X118914258Y-71341564D01*
X118848713Y-71202357D01*
X118765450Y-71070601D01*
X118682973Y-70975575D01*
X118567142Y-70879931D01*
X118437637Y-70807778D01*
X118294458Y-70759116D01*
X118137605Y-70733947D01*
X118041835Y-70730111D01*
X117881365Y-70740379D01*
X117733345Y-70771184D01*
X117572156Y-70835258D01*
X117428896Y-70928904D01*
X117303565Y-71052122D01*
X117229972Y-71150697D01*
X117150786Y-71288479D01*
X117087983Y-71435843D01*
X117041563Y-71592790D01*
X117011527Y-71759320D01*
X116999012Y-71905415D01*
X116996964Y-71996266D01*
X117002400Y-72143021D01*
X117022480Y-72308049D01*
X117057357Y-72466414D01*
X117107030Y-72618119D01*
X117151570Y-72722400D01*
X117223803Y-72857635D01*
X117317604Y-72991667D01*
X117423403Y-73103809D01*
X117541200Y-73194060D01*
X117556769Y-73203803D01*
X117698771Y-73277476D01*
X117842859Y-73327038D01*
X117989034Y-73352489D01*
X118071144Y-73356210D01*
X118223002Y-73346502D01*
X118369365Y-73317376D01*
X118511148Y-73268649D01*
X118647802Y-73201605D01*
X118647802Y-72392672D01*
X118642481Y-72245874D01*
X118615562Y-72117899D01*
X118516643Y-72018981D01*
X118368178Y-71987267D01*
X118281437Y-71984542D01*
X118281437Y-71902477D01*
X119362945Y-71902477D01*
X119362945Y-71984542D01*
X119311654Y-71984542D01*
X119162529Y-72018391D01*
X119091102Y-72091521D01*
X119056842Y-72235063D01*
X119050070Y-72393405D01*
X119050070Y-73249232D01*
X118917051Y-73315970D01*
X118770477Y-73377479D01*
X118625191Y-73425678D01*
X118581856Y-73437543D01*
X118432591Y-73468841D01*
X118273309Y-73488548D01*
X118121389Y-73496372D01*
X118068946Y-73496894D01*
X117920553Y-73492354D01*
X117733336Y-73472175D01*
X117558276Y-73435854D01*
X117395376Y-73383389D01*
X117244634Y-73314782D01*
X117106051Y-73230031D01*
X116979627Y-73129138D01*
X116865361Y-73012102D01*
X116838695Y-72980321D01*
X116747927Y-72856293D01*
X116672543Y-72726470D01*
X116612544Y-72590851D01*
X116567929Y-72449436D01*
X116538698Y-72302225D01*
X116524852Y-72149217D01*
X116523622Y-72086392D01*
X116532072Y-71927259D01*
X116557422Y-71771072D01*
X116599671Y-71617830D01*
X116658821Y-71467534D01*
X116700209Y-71382972D01*
X116784582Y-71239438D01*
X116879979Y-71108886D01*
X116986403Y-70991317D01*
X117103851Y-70886732D01*
X117232325Y-70795129D01*
X117277599Y-70767480D01*
X117417247Y-70698102D01*
X117567554Y-70645764D01*
X117728519Y-70610467D01*
X117874973Y-70593774D01*
X118003000Y-70589427D01*
X118157075Y-70596872D01*
X118279972Y-70615806D01*
X118430731Y-70657388D01*
X118578181Y-70709492D01*
X118633880Y-70730844D01*
X118773756Y-70775879D01*
X118787753Y-70777006D01*
X118855164Y-70738904D01*
X118888869Y-70589427D01*
X118965073Y-70589427D01*
G37*
G36*
X120287648Y-70788729D02*
G01*
X120287648Y-71902477D01*
X120901675Y-71902477D01*
X121058570Y-71891967D01*
X121198521Y-71845255D01*
X121221144Y-71827739D01*
X121300667Y-71702159D01*
X121334379Y-71554399D01*
X121340579Y-71480425D01*
X121416783Y-71480425D01*
X121416783Y-72465212D01*
X121340579Y-72465212D01*
X121315434Y-72317029D01*
X121282693Y-72207292D01*
X121176572Y-72103744D01*
X121161060Y-72095917D01*
X121011335Y-72059733D01*
X120901675Y-72054884D01*
X120287648Y-72054884D01*
X120287648Y-72982519D01*
X120291678Y-73132362D01*
X120303768Y-73209665D01*
X120361654Y-73274145D01*
X120511295Y-73297569D01*
X120518458Y-73297592D01*
X120992533Y-73297592D01*
X121139919Y-73293696D01*
X121291506Y-73275825D01*
X121336183Y-73264619D01*
X121467387Y-73198216D01*
X121542812Y-73134193D01*
X121639360Y-73019235D01*
X121721234Y-72895573D01*
X121796022Y-72762619D01*
X121804396Y-72746580D01*
X121886462Y-72746580D01*
X121645394Y-73450000D01*
X119491905Y-73450000D01*
X119491905Y-73367934D01*
X119590823Y-73367934D01*
X119739122Y-73338864D01*
X119778402Y-73320307D01*
X119867795Y-73221388D01*
X119889117Y-73074548D01*
X119891975Y-72950279D01*
X119891975Y-71129448D01*
X119886751Y-70982788D01*
X119859327Y-70837931D01*
X119838485Y-70801186D01*
X119706709Y-70730031D01*
X119590823Y-70718387D01*
X119491905Y-70718387D01*
X119491905Y-70636322D01*
X121645394Y-70636322D01*
X121676169Y-71245952D01*
X121596301Y-71245952D01*
X121562538Y-71100906D01*
X121510122Y-70961392D01*
X121500314Y-70944801D01*
X121393152Y-70843547D01*
X121344975Y-70819504D01*
X121192533Y-70793057D01*
X121054082Y-70788729D01*
X120287648Y-70788729D01*
G37*
G36*
X123680211Y-70599463D02*
G01*
X123839487Y-70629570D01*
X123991678Y-70679748D01*
X124136786Y-70749998D01*
X124274809Y-70840319D01*
X124405748Y-70950711D01*
X124456141Y-71000488D01*
X124571184Y-71133935D01*
X124666729Y-71277365D01*
X124742774Y-71430776D01*
X124799321Y-71594170D01*
X124836369Y-71767545D01*
X124851968Y-71913433D01*
X124855478Y-72027041D01*
X124849192Y-72181956D01*
X124830336Y-72330161D01*
X124789088Y-72505984D01*
X124728198Y-72671324D01*
X124647666Y-72826181D01*
X124547491Y-72970555D01*
X124453210Y-73078506D01*
X124323598Y-73199038D01*
X124185721Y-73299140D01*
X124039580Y-73378814D01*
X123885173Y-73438058D01*
X123722503Y-73476874D01*
X123551567Y-73495260D01*
X123480879Y-73496894D01*
X123304953Y-73486930D01*
X123138042Y-73457038D01*
X122980148Y-73407217D01*
X122831269Y-73337468D01*
X122691407Y-73247791D01*
X122560561Y-73138186D01*
X122510746Y-73088764D01*
X122397814Y-72955374D01*
X122304023Y-72810285D01*
X122229372Y-72653496D01*
X122173863Y-72485007D01*
X122137495Y-72304820D01*
X122122182Y-72152246D01*
X122118737Y-72032903D01*
X122118929Y-72028506D01*
X122590614Y-72028506D01*
X122595182Y-72193954D01*
X122608886Y-72349579D01*
X122631727Y-72495380D01*
X122673125Y-72663818D01*
X122728799Y-72816908D01*
X122798748Y-72954649D01*
X122882973Y-73077041D01*
X122988259Y-73185819D01*
X123125417Y-73277421D01*
X123280526Y-73334127D01*
X123430973Y-73355120D01*
X123476483Y-73356210D01*
X123642071Y-73341589D01*
X123794547Y-73297726D01*
X123933909Y-73224622D01*
X124060158Y-73122275D01*
X124126413Y-73050662D01*
X124213568Y-72923417D01*
X124282690Y-72771390D01*
X124326518Y-72625771D01*
X124357823Y-72462943D01*
X124376607Y-72282905D01*
X124382617Y-72126485D01*
X124382868Y-72085659D01*
X124378460Y-71912907D01*
X124365237Y-71751489D01*
X124343197Y-71601406D01*
X124303252Y-71429740D01*
X124249531Y-71275785D01*
X124182037Y-71139540D01*
X124100767Y-71021004D01*
X123993402Y-70912226D01*
X123869417Y-70830166D01*
X123728812Y-70774823D01*
X123571589Y-70746197D01*
X123474284Y-70741835D01*
X123317271Y-70755088D01*
X123174493Y-70794849D01*
X123028748Y-70872747D01*
X122916474Y-70969308D01*
X122872714Y-71018806D01*
X122776844Y-71159456D01*
X122712104Y-71293823D01*
X122661139Y-71443789D01*
X122623948Y-71609354D01*
X122600531Y-71790518D01*
X122591716Y-71946681D01*
X122590614Y-72028506D01*
X122118929Y-72028506D01*
X122125812Y-71871118D01*
X122147038Y-71716959D01*
X122182415Y-71570425D01*
X122231943Y-71431516D01*
X122313753Y-71268602D01*
X122417673Y-71117601D01*
X122516728Y-71005380D01*
X122571563Y-70952128D01*
X122698316Y-70847639D01*
X122832655Y-70760860D01*
X122974578Y-70691791D01*
X123124086Y-70640432D01*
X123281179Y-70606783D01*
X123445857Y-70590844D01*
X123513852Y-70589427D01*
X123680211Y-70599463D01*
G37*
G36*
X100760433Y-77950711D02*
G01*
X100824697Y-78092623D01*
X100898678Y-78223882D01*
X100973657Y-78314145D01*
X101105290Y-78384933D01*
X101240370Y-78407934D01*
X101240370Y-78490000D01*
X100137613Y-78490000D01*
X100137613Y-78407934D01*
X100284511Y-78388617D01*
X100363294Y-78353712D01*
X100421912Y-78240139D01*
X100389855Y-78088327D01*
X100339847Y-77958771D01*
X100170586Y-77563831D01*
X99089079Y-77563831D01*
X98899302Y-77996873D01*
X98846546Y-78136458D01*
X98828960Y-78235743D01*
X98889777Y-78346385D01*
X99030501Y-78394380D01*
X99152826Y-78407934D01*
X99152826Y-78490000D01*
X98272819Y-78490000D01*
X98272819Y-78407934D01*
X98416984Y-78372397D01*
X98499232Y-78327334D01*
X98595764Y-78202292D01*
X98669867Y-78065063D01*
X98732240Y-77926531D01*
X98952742Y-77411423D01*
X99152826Y-77411423D01*
X100113433Y-77411423D01*
X99639358Y-76270565D01*
X99152826Y-77411423D01*
X98952742Y-77411423D01*
X99715562Y-75629427D01*
X99787369Y-75629427D01*
X100760433Y-77950711D01*
G37*
G36*
X103075855Y-77727229D02*
G01*
X103076817Y-77877713D01*
X103081279Y-78031688D01*
X103091242Y-78134626D01*
X103140335Y-78237208D01*
X103220202Y-78265785D01*
X103368214Y-78230614D01*
X103390928Y-78303154D01*
X102830391Y-78536894D01*
X102735869Y-78536894D01*
X102735869Y-78266517D01*
X102624438Y-78370377D01*
X102498568Y-78456855D01*
X102465492Y-78473879D01*
X102319567Y-78523048D01*
X102181193Y-78536894D01*
X102031488Y-78520637D01*
X101891582Y-78471864D01*
X101761477Y-78390577D01*
X101641172Y-78276775D01*
X101551238Y-78155606D01*
X101483392Y-78020341D01*
X101437636Y-77870981D01*
X101413969Y-77707526D01*
X101410363Y-77607794D01*
X101419353Y-77456918D01*
X101421260Y-77446594D01*
X101787718Y-77446594D01*
X101794081Y-77597161D01*
X101817588Y-77755437D01*
X101865661Y-77913397D01*
X101936358Y-78046903D01*
X101968702Y-78090662D01*
X102074163Y-78198693D01*
X102198956Y-78277261D01*
X102345485Y-78313272D01*
X102373168Y-78314145D01*
X102523520Y-78282945D01*
X102658657Y-78198761D01*
X102735869Y-78125101D01*
X102735869Y-77142512D01*
X102706090Y-76991301D01*
X102661131Y-76884591D01*
X102573833Y-76766392D01*
X102497732Y-76708736D01*
X102359767Y-76655181D01*
X102298430Y-76649385D01*
X102147502Y-76680801D01*
X102020666Y-76766233D01*
X101975297Y-76813517D01*
X101884621Y-76951281D01*
X101828934Y-77100208D01*
X101799442Y-77250956D01*
X101787901Y-77420777D01*
X101787718Y-77446594D01*
X101421260Y-77446594D01*
X101446324Y-77310936D01*
X101491275Y-77169849D01*
X101554207Y-77033656D01*
X101635119Y-76902357D01*
X101666085Y-76859678D01*
X101767107Y-76744385D01*
X101897924Y-76640025D01*
X102042696Y-76568133D01*
X102201423Y-76528708D01*
X102323343Y-76520425D01*
X102470990Y-76535953D01*
X102613733Y-76588902D01*
X102735869Y-76679427D01*
X102735869Y-76330648D01*
X102734652Y-76168592D01*
X102729242Y-76013826D01*
X102720482Y-75933510D01*
X102672121Y-75832393D01*
X102589323Y-75805282D01*
X102447174Y-75838255D01*
X102420063Y-75766448D01*
X102982798Y-75535638D01*
X103075855Y-75535638D01*
X103075855Y-77727229D01*
G37*
G36*
X104430132Y-76528869D02*
G01*
X104584554Y-76561292D01*
X104693719Y-76606887D01*
X104810386Y-76703667D01*
X104873238Y-76811318D01*
X104902396Y-76960844D01*
X104910023Y-77114897D01*
X104910607Y-77182079D01*
X104910607Y-77836406D01*
X104911609Y-77988161D01*
X104916868Y-78137440D01*
X104920865Y-78174926D01*
X104954571Y-78258457D01*
X105009525Y-78278974D01*
X105067411Y-78265052D01*
X105183707Y-78163658D01*
X105233740Y-78114110D01*
X105233740Y-78229881D01*
X105133743Y-78349508D01*
X105021865Y-78450247D01*
X104885623Y-78522203D01*
X104792638Y-78536894D01*
X104651930Y-78486817D01*
X104632170Y-78466552D01*
X104577576Y-78323424D01*
X104570621Y-78227683D01*
X104453734Y-78316731D01*
X104333950Y-78404637D01*
X104210559Y-78484686D01*
X104205722Y-78487069D01*
X104060779Y-78529887D01*
X103968318Y-78536894D01*
X103820729Y-78514401D01*
X103687212Y-78439869D01*
X103645918Y-78400607D01*
X103563844Y-78275603D01*
X103523612Y-78122061D01*
X103519156Y-78041570D01*
X103532620Y-77941919D01*
X103865736Y-77941919D01*
X103890758Y-78087247D01*
X103954396Y-78191779D01*
X104075526Y-78276787D01*
X104158095Y-78290697D01*
X104301823Y-78256233D01*
X104434602Y-78182817D01*
X104554735Y-78094717D01*
X104570621Y-78081870D01*
X104570621Y-77352805D01*
X104428701Y-77410874D01*
X104290069Y-77470579D01*
X104168353Y-77530125D01*
X104043692Y-77612451D01*
X103939832Y-77716567D01*
X103935345Y-77722833D01*
X103873962Y-77862145D01*
X103865736Y-77941919D01*
X103532620Y-77941919D01*
X103538862Y-77895717D01*
X103581438Y-77798304D01*
X103679011Y-77677009D01*
X103800598Y-77577953D01*
X103874529Y-77530125D01*
X104014316Y-77454945D01*
X104153332Y-77390540D01*
X104293587Y-77331206D01*
X104453316Y-77268060D01*
X104570621Y-77223845D01*
X104570621Y-77148374D01*
X104563492Y-77001831D01*
X104531807Y-76850620D01*
X104480495Y-76756364D01*
X104354194Y-76669862D01*
X104220377Y-76649385D01*
X104072545Y-76680941D01*
X104013747Y-76722658D01*
X103939097Y-76850564D01*
X103935345Y-76891186D01*
X103939742Y-77016482D01*
X103900024Y-77159790D01*
X103891382Y-77170355D01*
X103764620Y-77223845D01*
X103640056Y-77168157D01*
X103591885Y-77026950D01*
X103591696Y-77015017D01*
X103621565Y-76869949D01*
X103702160Y-76744841D01*
X103772680Y-76675764D01*
X103900492Y-76593847D01*
X104039873Y-76546062D01*
X104202322Y-76522852D01*
X104281926Y-76520425D01*
X104430132Y-76528869D01*
G37*
G36*
X105888067Y-76961528D02*
G01*
X105970557Y-76833507D01*
X106071535Y-76709939D01*
X106181891Y-76616413D01*
X106313705Y-76550796D01*
X106461471Y-76521269D01*
X106491835Y-76520425D01*
X106644573Y-76538161D01*
X106782125Y-76591368D01*
X106904491Y-76680047D01*
X106965911Y-76744640D01*
X107056702Y-76872492D01*
X107125193Y-77016262D01*
X107171385Y-77175950D01*
X107193230Y-77325496D01*
X107198918Y-77459050D01*
X107192085Y-77608755D01*
X107165844Y-77777397D01*
X107119923Y-77934035D01*
X107054320Y-78078669D01*
X106969038Y-78211299D01*
X106919016Y-78273112D01*
X106812322Y-78375894D01*
X106676389Y-78462448D01*
X106525527Y-78516029D01*
X106359736Y-78536637D01*
X106337962Y-78536894D01*
X106187245Y-78524693D01*
X106074180Y-78493663D01*
X105944559Y-78416953D01*
X105888067Y-78369832D01*
X105888067Y-78941360D01*
X105893219Y-79090586D01*
X105911514Y-79185359D01*
X105994313Y-79268157D01*
X106144490Y-79297459D01*
X106207537Y-79298932D01*
X106207537Y-79380997D01*
X105218353Y-79380997D01*
X105218353Y-79298932D01*
X105270377Y-79298932D01*
X105415929Y-79277487D01*
X105463817Y-79255701D01*
X105524634Y-79181695D01*
X105544877Y-79028013D01*
X105546616Y-78923775D01*
X105546616Y-77127857D01*
X105545511Y-77088290D01*
X105888067Y-77088290D01*
X105888067Y-77800502D01*
X105890746Y-77951352D01*
X105905946Y-78099163D01*
X105907118Y-78103852D01*
X105970500Y-78237088D01*
X106047802Y-78316343D01*
X106184031Y-78387809D01*
X106331368Y-78407934D01*
X106485840Y-78381088D01*
X106614676Y-78300549D01*
X106665492Y-78245268D01*
X106746250Y-78112417D01*
X106795846Y-77971264D01*
X106824560Y-77808404D01*
X106832554Y-77648094D01*
X106825882Y-77491414D01*
X106801234Y-77326526D01*
X106758423Y-77180923D01*
X106687256Y-77038132D01*
X106642777Y-76976182D01*
X106527393Y-76870863D01*
X106384740Y-76817488D01*
X106329170Y-76813517D01*
X106182029Y-76841543D01*
X106133531Y-76863342D01*
X106011293Y-76960673D01*
X105898688Y-77076713D01*
X105888067Y-77088290D01*
X105545511Y-77088290D01*
X105542402Y-76976915D01*
X105529763Y-76893384D01*
X105477006Y-76819378D01*
X105379553Y-76794466D01*
X105253524Y-76823042D01*
X105228611Y-76757096D01*
X105810398Y-76520425D01*
X105888067Y-76520425D01*
X105888067Y-76961528D01*
G37*
G36*
X108011514Y-75957690D02*
G01*
X108011514Y-76567320D01*
X108452617Y-76567320D01*
X108452617Y-76708004D01*
X108011514Y-76708004D01*
X108011514Y-77969762D01*
X108023106Y-78119943D01*
X108064271Y-78224752D01*
X108199093Y-78290697D01*
X108330984Y-78248932D01*
X108425394Y-78133828D01*
X108429902Y-78123635D01*
X108510502Y-78123635D01*
X108447751Y-78262155D01*
X108360934Y-78381289D01*
X108306071Y-78432114D01*
X108172165Y-78510699D01*
X108034229Y-78536894D01*
X107888774Y-78503800D01*
X107848849Y-78482672D01*
X107742844Y-78380881D01*
X107714759Y-78328066D01*
X107679803Y-78179766D01*
X107671571Y-78029694D01*
X107671528Y-78016657D01*
X107671528Y-76708004D01*
X107372575Y-76708004D01*
X107372575Y-76641325D01*
X107501736Y-76571567D01*
X107604117Y-76490383D01*
X107709765Y-76382245D01*
X107804144Y-76257041D01*
X107815876Y-76239057D01*
X107885349Y-76102748D01*
X107947767Y-75957690D01*
X108011514Y-75957690D01*
G37*
G36*
X109677922Y-76533614D02*
G01*
X109831684Y-76579982D01*
X109967361Y-76659735D01*
X110047767Y-76731451D01*
X110146234Y-76860985D01*
X110206708Y-76995006D01*
X110241718Y-77146795D01*
X110251465Y-77294187D01*
X108947209Y-77294187D01*
X108953726Y-77446067D01*
X108979887Y-77607113D01*
X109026034Y-77750768D01*
X109103246Y-77893650D01*
X109151640Y-77956573D01*
X109259122Y-78061720D01*
X109390878Y-78144100D01*
X109534110Y-78188459D01*
X109635974Y-78196908D01*
X109788925Y-78177133D01*
X109923363Y-78117808D01*
X109958374Y-78093593D01*
X110062326Y-77985343D01*
X110138763Y-77855777D01*
X110187718Y-77739685D01*
X110251465Y-77781451D01*
X110214107Y-77938194D01*
X110150667Y-78086939D01*
X110072379Y-78212441D01*
X110000140Y-78302421D01*
X109889543Y-78405003D01*
X109749467Y-78485374D01*
X109592814Y-78528651D01*
X109479170Y-78536894D01*
X109315267Y-78520225D01*
X109163547Y-78470216D01*
X109024008Y-78386868D01*
X108911904Y-78286590D01*
X108896650Y-78270181D01*
X108802433Y-78144728D01*
X108731357Y-78001745D01*
X108683422Y-77841230D01*
X108660753Y-77689692D01*
X108654850Y-77553572D01*
X108660914Y-77406544D01*
X108684201Y-77243947D01*
X108702711Y-77176950D01*
X108947209Y-77176950D01*
X109821354Y-77176950D01*
X109806746Y-77026619D01*
X109778123Y-76914633D01*
X109693630Y-76786921D01*
X109624250Y-76729253D01*
X109486470Y-76669161D01*
X109411026Y-76661109D01*
X109258698Y-76691055D01*
X109130471Y-76773041D01*
X109104745Y-76797397D01*
X109013705Y-76925786D01*
X108962511Y-77075640D01*
X108947209Y-77176950D01*
X108702711Y-77176950D01*
X108724954Y-77096445D01*
X108794572Y-76943439D01*
X108887963Y-76810979D01*
X108903245Y-76793733D01*
X109017948Y-76687239D01*
X109144713Y-76606901D01*
X109283540Y-76552720D01*
X109434427Y-76524696D01*
X109526064Y-76520425D01*
X109677922Y-76533614D01*
G37*
G36*
X111046476Y-76520425D02*
G01*
X111046476Y-76944675D01*
X111135691Y-76800496D01*
X111240948Y-76669990D01*
X111362787Y-76570556D01*
X111501827Y-76522082D01*
X111533008Y-76520425D01*
X111675153Y-76556764D01*
X111719853Y-76590767D01*
X111791964Y-76718394D01*
X111794592Y-76751967D01*
X111740370Y-76888988D01*
X111612875Y-76944675D01*
X111473187Y-76890258D01*
X111450942Y-76873600D01*
X111321065Y-76801863D01*
X111318318Y-76801793D01*
X111237718Y-76843558D01*
X111143746Y-76956215D01*
X111064965Y-77088484D01*
X111046476Y-77124193D01*
X111046476Y-78037906D01*
X111058763Y-78191023D01*
X111085311Y-78276775D01*
X111179833Y-78370565D01*
X111322979Y-78406146D01*
X111376204Y-78407934D01*
X111376204Y-78490000D01*
X110409735Y-78490000D01*
X110409735Y-78407934D01*
X110560975Y-78390188D01*
X110623692Y-78362505D01*
X110696232Y-78256259D01*
X110706239Y-78102820D01*
X110706490Y-78054026D01*
X110706490Y-77315436D01*
X110705620Y-77165913D01*
X110701582Y-77015205D01*
X110692568Y-76919030D01*
X110643475Y-76826706D01*
X110554082Y-76797397D01*
X110409735Y-76828171D01*
X110389218Y-76753433D01*
X110960014Y-76520425D01*
X111046476Y-76520425D01*
G37*
M02*
