%TF.GenerationSoftware,KiCad,Pcbnew,8.0.4*%
%TF.CreationDate,2024-08-27T17:02:55+01:00*%
%TF.ProjectId,Bottom Board,426f7474-6f6d-4204-926f-6172642e6b69,2*%
%TF.SameCoordinates,Original*%
%TF.FileFunction,Copper,L1,Top*%
%TF.FilePolarity,Positive*%
%FSLAX46Y46*%
G04 Gerber Fmt 4.6, Leading zero omitted, Abs format (unit mm)*
G04 Created by KiCad (PCBNEW 8.0.4) date 2024-08-27 17:02:55*
%MOMM*%
%LPD*%
G01*
G04 APERTURE LIST*
G04 APERTURE END LIST*
%TA.AperFunction,NonConductor*%
G36*
X131500840Y-40000010D02*
G01*
X131677619Y-40002323D01*
X131688938Y-40002990D01*
X132041445Y-40040040D01*
X132054252Y-40042070D01*
X132400130Y-40115588D01*
X132412665Y-40118947D01*
X132748965Y-40228218D01*
X132761082Y-40232869D01*
X133084131Y-40376698D01*
X133095679Y-40382583D01*
X133401918Y-40559390D01*
X133412800Y-40566457D01*
X133698877Y-40774304D01*
X133708960Y-40782469D01*
X133971742Y-41019079D01*
X133980920Y-41028257D01*
X134217530Y-41291039D01*
X134225698Y-41301126D01*
X134433540Y-41587196D01*
X134440609Y-41598081D01*
X134617412Y-41904312D01*
X134623305Y-41915877D01*
X134767130Y-42238917D01*
X134771781Y-42251034D01*
X134881052Y-42587334D01*
X134884411Y-42599871D01*
X134957928Y-42945741D01*
X134959959Y-42958560D01*
X134997008Y-43311051D01*
X134997676Y-43322391D01*
X134999989Y-43499159D01*
X135000000Y-43500781D01*
X135000000Y-96499218D01*
X134999989Y-96500840D01*
X134997676Y-96677608D01*
X134997008Y-96688948D01*
X134959959Y-97041439D01*
X134957928Y-97054258D01*
X134884411Y-97400128D01*
X134881052Y-97412665D01*
X134771781Y-97748965D01*
X134767130Y-97761082D01*
X134623305Y-98084122D01*
X134617412Y-98095687D01*
X134440609Y-98401918D01*
X134433540Y-98412803D01*
X134225698Y-98698873D01*
X134217530Y-98708960D01*
X133980920Y-98971742D01*
X133971742Y-98980920D01*
X133708960Y-99217530D01*
X133698873Y-99225698D01*
X133412803Y-99433540D01*
X133401918Y-99440609D01*
X133095687Y-99617412D01*
X133084122Y-99623305D01*
X132761082Y-99767130D01*
X132748965Y-99771781D01*
X132412665Y-99881052D01*
X132400128Y-99884411D01*
X132054258Y-99957928D01*
X132041439Y-99959959D01*
X131688948Y-99997008D01*
X131677608Y-99997676D01*
X131500841Y-99999989D01*
X131499219Y-100000000D01*
X78500781Y-100000000D01*
X78499159Y-99999989D01*
X78322391Y-99997676D01*
X78311051Y-99997008D01*
X77958560Y-99959959D01*
X77945741Y-99957928D01*
X77599871Y-99884411D01*
X77587334Y-99881052D01*
X77251034Y-99771781D01*
X77238917Y-99767130D01*
X76915877Y-99623305D01*
X76904312Y-99617412D01*
X76598081Y-99440609D01*
X76587196Y-99433540D01*
X76301126Y-99225698D01*
X76291039Y-99217530D01*
X76028257Y-98980920D01*
X76019079Y-98971742D01*
X75782469Y-98708960D01*
X75774301Y-98698873D01*
X75566459Y-98412803D01*
X75559390Y-98401918D01*
X75421581Y-98163226D01*
X75382583Y-98095679D01*
X75376698Y-98084131D01*
X75232869Y-97761082D01*
X75228218Y-97748965D01*
X75118947Y-97412665D01*
X75115588Y-97400128D01*
X75042071Y-97054258D01*
X75040040Y-97041439D01*
X75002990Y-96688938D01*
X75002323Y-96677619D01*
X75000011Y-96500840D01*
X75000000Y-96499218D01*
X75000000Y-96378711D01*
X76649500Y-96378711D01*
X76649500Y-96621288D01*
X76681161Y-96861785D01*
X76743947Y-97096104D01*
X76836773Y-97320205D01*
X76836776Y-97320212D01*
X76958064Y-97530289D01*
X76958066Y-97530292D01*
X76958067Y-97530293D01*
X77105733Y-97722736D01*
X77105739Y-97722743D01*
X77277256Y-97894260D01*
X77277262Y-97894265D01*
X77469711Y-98041936D01*
X77679788Y-98163224D01*
X77903900Y-98256054D01*
X78138211Y-98318838D01*
X78318586Y-98342584D01*
X78378711Y-98350500D01*
X78378712Y-98350500D01*
X78621289Y-98350500D01*
X78669388Y-98344167D01*
X78861789Y-98318838D01*
X79096100Y-98256054D01*
X79320212Y-98163224D01*
X79530289Y-98041936D01*
X79722738Y-97894265D01*
X79894265Y-97722738D01*
X80041936Y-97530289D01*
X80163224Y-97320212D01*
X80256054Y-97096100D01*
X80318838Y-96861789D01*
X80350500Y-96621288D01*
X80350500Y-96378712D01*
X80350500Y-96378711D01*
X129649500Y-96378711D01*
X129649500Y-96621288D01*
X129681161Y-96861785D01*
X129743947Y-97096104D01*
X129836773Y-97320205D01*
X129836776Y-97320212D01*
X129958064Y-97530289D01*
X129958066Y-97530292D01*
X129958067Y-97530293D01*
X130105733Y-97722736D01*
X130105739Y-97722743D01*
X130277256Y-97894260D01*
X130277262Y-97894265D01*
X130469711Y-98041936D01*
X130679788Y-98163224D01*
X130903900Y-98256054D01*
X131138211Y-98318838D01*
X131318586Y-98342584D01*
X131378711Y-98350500D01*
X131378712Y-98350500D01*
X131621289Y-98350500D01*
X131669388Y-98344167D01*
X131861789Y-98318838D01*
X132096100Y-98256054D01*
X132320212Y-98163224D01*
X132530289Y-98041936D01*
X132722738Y-97894265D01*
X132894265Y-97722738D01*
X133041936Y-97530289D01*
X133163224Y-97320212D01*
X133256054Y-97096100D01*
X133318838Y-96861789D01*
X133350500Y-96621288D01*
X133350500Y-96378712D01*
X133318838Y-96138211D01*
X133256054Y-95903900D01*
X133163224Y-95679788D01*
X133041936Y-95469711D01*
X132894265Y-95277262D01*
X132894260Y-95277256D01*
X132722743Y-95105739D01*
X132722736Y-95105733D01*
X132530293Y-94958067D01*
X132530292Y-94958066D01*
X132530289Y-94958064D01*
X132320212Y-94836776D01*
X132320205Y-94836773D01*
X132096104Y-94743947D01*
X131861785Y-94681161D01*
X131621289Y-94649500D01*
X131621288Y-94649500D01*
X131378712Y-94649500D01*
X131378711Y-94649500D01*
X131138214Y-94681161D01*
X130903895Y-94743947D01*
X130679794Y-94836773D01*
X130679785Y-94836777D01*
X130469706Y-94958067D01*
X130277263Y-95105733D01*
X130277256Y-95105739D01*
X130105739Y-95277256D01*
X130105733Y-95277263D01*
X129958067Y-95469706D01*
X129836777Y-95679785D01*
X129836773Y-95679794D01*
X129743947Y-95903895D01*
X129681161Y-96138214D01*
X129649500Y-96378711D01*
X80350500Y-96378711D01*
X80318838Y-96138211D01*
X80256054Y-95903900D01*
X80163224Y-95679788D01*
X80041936Y-95469711D01*
X79894265Y-95277262D01*
X79894260Y-95277256D01*
X79722743Y-95105739D01*
X79722736Y-95105733D01*
X79530293Y-94958067D01*
X79530292Y-94958066D01*
X79530289Y-94958064D01*
X79320212Y-94836776D01*
X79320205Y-94836773D01*
X79096104Y-94743947D01*
X78861785Y-94681161D01*
X78621289Y-94649500D01*
X78621288Y-94649500D01*
X78378712Y-94649500D01*
X78378711Y-94649500D01*
X78138214Y-94681161D01*
X77903895Y-94743947D01*
X77679794Y-94836773D01*
X77679785Y-94836777D01*
X77469706Y-94958067D01*
X77277263Y-95105733D01*
X77277256Y-95105739D01*
X77105739Y-95277256D01*
X77105733Y-95277263D01*
X76958067Y-95469706D01*
X76836777Y-95679785D01*
X76836773Y-95679794D01*
X76743947Y-95903895D01*
X76681161Y-96138214D01*
X76649500Y-96378711D01*
X75000000Y-96378711D01*
X75000000Y-43500781D01*
X75000011Y-43499159D01*
X75001586Y-43378711D01*
X76649500Y-43378711D01*
X76649500Y-43621288D01*
X76681161Y-43861785D01*
X76743947Y-44096104D01*
X76836773Y-44320205D01*
X76836776Y-44320212D01*
X76958064Y-44530289D01*
X76958066Y-44530292D01*
X76958067Y-44530293D01*
X77105733Y-44722736D01*
X77105739Y-44722743D01*
X77277256Y-44894260D01*
X77277262Y-44894265D01*
X77469711Y-45041936D01*
X77679788Y-45163224D01*
X77903900Y-45256054D01*
X78138211Y-45318838D01*
X78318586Y-45342584D01*
X78378711Y-45350500D01*
X78378712Y-45350500D01*
X78621289Y-45350500D01*
X78669388Y-45344167D01*
X78861789Y-45318838D01*
X79096100Y-45256054D01*
X79320212Y-45163224D01*
X79530289Y-45041936D01*
X79722738Y-44894265D01*
X79894265Y-44722738D01*
X80041936Y-44530289D01*
X80163224Y-44320212D01*
X80256054Y-44096100D01*
X80318838Y-43861789D01*
X80350500Y-43621288D01*
X80350500Y-43378712D01*
X80350500Y-43378711D01*
X129649500Y-43378711D01*
X129649500Y-43621288D01*
X129681161Y-43861785D01*
X129743947Y-44096104D01*
X129836773Y-44320205D01*
X129836776Y-44320212D01*
X129958064Y-44530289D01*
X129958066Y-44530292D01*
X129958067Y-44530293D01*
X130105733Y-44722736D01*
X130105739Y-44722743D01*
X130277256Y-44894260D01*
X130277262Y-44894265D01*
X130469711Y-45041936D01*
X130679788Y-45163224D01*
X130903900Y-45256054D01*
X131138211Y-45318838D01*
X131318586Y-45342584D01*
X131378711Y-45350500D01*
X131378712Y-45350500D01*
X131621289Y-45350500D01*
X131669388Y-45344167D01*
X131861789Y-45318838D01*
X132096100Y-45256054D01*
X132320212Y-45163224D01*
X132530289Y-45041936D01*
X132722738Y-44894265D01*
X132894265Y-44722738D01*
X133041936Y-44530289D01*
X133163224Y-44320212D01*
X133256054Y-44096100D01*
X133318838Y-43861789D01*
X133350500Y-43621288D01*
X133350500Y-43378712D01*
X133318838Y-43138211D01*
X133256054Y-42903900D01*
X133163224Y-42679788D01*
X133041936Y-42469711D01*
X132894265Y-42277262D01*
X132894260Y-42277256D01*
X132722743Y-42105739D01*
X132722736Y-42105733D01*
X132530293Y-41958067D01*
X132530292Y-41958066D01*
X132530289Y-41958064D01*
X132320212Y-41836776D01*
X132320205Y-41836773D01*
X132096104Y-41743947D01*
X131861785Y-41681161D01*
X131621289Y-41649500D01*
X131621288Y-41649500D01*
X131378712Y-41649500D01*
X131378711Y-41649500D01*
X131138214Y-41681161D01*
X130903895Y-41743947D01*
X130679794Y-41836773D01*
X130679785Y-41836777D01*
X130469706Y-41958067D01*
X130277263Y-42105733D01*
X130277256Y-42105739D01*
X130105739Y-42277256D01*
X130105733Y-42277263D01*
X129958067Y-42469706D01*
X129836777Y-42679785D01*
X129836773Y-42679794D01*
X129743947Y-42903895D01*
X129681161Y-43138214D01*
X129649500Y-43378711D01*
X80350500Y-43378711D01*
X80318838Y-43138211D01*
X80256054Y-42903900D01*
X80163224Y-42679788D01*
X80041936Y-42469711D01*
X79894265Y-42277262D01*
X79894260Y-42277256D01*
X79722743Y-42105739D01*
X79722736Y-42105733D01*
X79530293Y-41958067D01*
X79530292Y-41958066D01*
X79530289Y-41958064D01*
X79320212Y-41836776D01*
X79320205Y-41836773D01*
X79096104Y-41743947D01*
X78861785Y-41681161D01*
X78621289Y-41649500D01*
X78621288Y-41649500D01*
X78378712Y-41649500D01*
X78378711Y-41649500D01*
X78138214Y-41681161D01*
X77903895Y-41743947D01*
X77679794Y-41836773D01*
X77679785Y-41836777D01*
X77469706Y-41958067D01*
X77277263Y-42105733D01*
X77277256Y-42105739D01*
X77105739Y-42277256D01*
X77105733Y-42277263D01*
X76958067Y-42469706D01*
X76836777Y-42679785D01*
X76836773Y-42679794D01*
X76743947Y-42903895D01*
X76681161Y-43138214D01*
X76649500Y-43378711D01*
X75001586Y-43378711D01*
X75002323Y-43322379D01*
X75002990Y-43311062D01*
X75040041Y-42958551D01*
X75042071Y-42945741D01*
X75115588Y-42599871D01*
X75118947Y-42587334D01*
X75228218Y-42251034D01*
X75232869Y-42238917D01*
X75376702Y-41915860D01*
X75382579Y-41904327D01*
X75559397Y-41598069D01*
X75566451Y-41587207D01*
X75774311Y-41301112D01*
X75782458Y-41291051D01*
X76019088Y-41028247D01*
X76028247Y-41019088D01*
X76291051Y-40782458D01*
X76301112Y-40774311D01*
X76587207Y-40566451D01*
X76598069Y-40559397D01*
X76904327Y-40382579D01*
X76915860Y-40376702D01*
X77238923Y-40232866D01*
X77251028Y-40228220D01*
X77587340Y-40118945D01*
X77599864Y-40115589D01*
X77945750Y-40042069D01*
X77958551Y-40040041D01*
X78311062Y-40002990D01*
X78322379Y-40002323D01*
X78499159Y-40000010D01*
X78500781Y-40000000D01*
X131499219Y-40000000D01*
X131500840Y-40000010D01*
G37*
%TD.AperFunction*%
M02*
